<svg width="40" height="40" viewBox="0 0 40 40" fill="none" xmlns="http://www.w3.org/2000/svg">
<g clip-path="url(#clip0_148_729)">
<path d="M5.27692 35.234L4.25591 36.596V11.064L5.27692 12.426C5.34396 12.5154 5.42795 12.5908 5.52411 12.6477C5.62027 12.7047 5.72671 12.7422 5.83735 12.758C5.94799 12.7739 6.06067 12.7677 6.16895 12.74C6.27723 12.7123 6.37898 12.6635 6.46841 12.5965C6.55785 12.5295 6.63319 12.4455 6.69016 12.3493C6.74713 12.2531 6.7846 12.1467 6.80043 12.0361C6.81627 11.9254 6.81015 11.8127 6.78244 11.7045C6.75472 11.5962 6.70595 11.4944 6.63891 11.405L4.08592 8.005C4.00317 7.90447 3.89919 7.8235 3.78145 7.76792C3.66371 7.71233 3.53512 7.6835 3.40491 7.6835C3.27471 7.6835 3.14612 7.71233 3.02838 7.76792C2.91063 7.8235 2.80666 7.90447 2.72391 8.005L0.170914 11.405C0.0355214 11.5856 -0.0225777 11.8126 0.00939723 12.0361C0.0413722 12.2595 0.160803 12.4611 0.341415 12.5965C0.522028 12.7319 0.749027 12.79 0.972477 12.758C1.19593 12.726 1.39752 12.6066 1.53291 12.426L2.55391 11.064V36.595L1.53191 35.234C1.39639 35.0534 1.19467 34.934 0.971123 34.9021C0.74758 34.8702 0.520527 34.9285 0.339915 35.064C0.159303 35.1995 0.0399252 35.4012 0.00804396 35.6248C-0.0238372 35.8483 0.0343893 36.0754 0.169915 36.256L2.72291 39.656C2.80218 39.7618 2.90498 39.8476 3.02319 39.9068C3.14139 39.9659 3.27175 39.9967 3.40392 39.9967C3.53609 39.9967 3.66644 39.9659 3.78464 39.9068C3.90285 39.8476 4.00565 39.7618 4.08491 39.656L6.63791 36.256C6.77331 36.0754 6.83141 35.8484 6.79943 35.6249C6.76746 35.4015 6.64803 35.1999 6.46741 35.0645C6.2868 34.9291 6.0598 34.871 5.83635 34.903C5.6129 34.935 5.41131 35.0544 5.27591 35.235L5.27692 35.234Z" fill="#979DAC"/>
<path d="M39.66 2.723L36.26 0.170001C36.0794 0.0346078 35.8524 -0.0234922 35.6289 0.00848275C35.4055 0.0404577 35.2039 0.159888 35.0685 0.340501C34.9331 0.521113 34.875 0.748113 34.907 0.971562C34.9389 1.19501 35.0584 1.39661 35.239 1.532L36.601 2.553H11.06L12.422 1.532C12.59 1.39273 12.698 1.19424 12.7239 0.97756C12.7497 0.760876 12.6913 0.542552 12.5607 0.367701C12.4302 0.19285 12.2374 0.0748353 12.0223 0.0380419C11.8072 0.00124851 11.5862 0.0484885 11.405 0.170001L8.00497 2.723C7.89921 2.80226 7.81335 2.90507 7.75422 3.02327C7.69509 3.14148 7.66431 3.27183 7.66431 3.404C7.66431 3.53617 7.69509 3.66652 7.75422 3.78473C7.81335 3.90293 7.89921 4.00574 8.00497 4.085L11.405 6.638C11.5856 6.77339 11.8126 6.83149 12.036 6.79952C12.2595 6.76754 12.4611 6.64811 12.5965 6.4675C12.7319 6.28689 12.79 6.05989 12.758 5.83644C12.726 5.61299 12.6066 5.41139 12.426 5.276L11.06 4.255H36.596L35.234 5.276C35.0534 5.41206 34.9342 5.61429 34.9027 5.83821C34.8712 6.06213 34.9299 6.28939 35.066 6.47C35.202 6.65061 35.4043 6.76978 35.6282 6.80129C35.8521 6.83279 36.0794 6.77406 36.26 6.638L39.66 4.085C39.7657 4.00574 39.8516 3.90293 39.9107 3.78473C39.9699 3.66652 40.0006 3.53617 40.0006 3.404C40.0006 3.27183 39.9699 3.14148 39.9107 3.02327C39.8516 2.90507 39.7657 2.80226 39.66 2.723Z" fill="#979DAC"/>
<path d="M39.1489 7.66H8.51091C8.28521 7.66 8.06876 7.74966 7.90916 7.90926C7.74957 8.06885 7.65991 8.2853 7.65991 8.511V39.149C7.65991 39.3747 7.74957 39.5912 7.90916 39.7508C8.06876 39.9103 8.28521 40 8.51091 40H39.1489C39.3746 40 39.5911 39.9103 39.7507 39.7508C39.9103 39.5912 39.9999 39.3747 39.9999 39.149V8.511C39.9999 8.2853 39.9103 8.06885 39.7507 7.90926C39.5911 7.74966 39.3746 7.66 39.1489 7.66ZM9.35991 38.298V9.36H38.2979V29.788H35.7449C33.9398 29.7899 32.2091 30.5077 30.9326 31.784C29.6561 33.0603 28.938 34.7909 28.9359 36.596C28.9359 36.8217 29.0256 37.0382 29.1852 37.1978C29.3448 37.3573 29.5612 37.447 29.7869 37.447H38.2979V38.298H9.35991ZM38.2959 35.745H30.7089C30.9117 34.5558 31.5284 33.4765 32.4499 32.6979C33.3714 31.9193 34.5385 31.4915 35.7449 31.49H38.2979L38.2959 35.745Z" fill="#979DAC"/>
<path d="M24.6808 29.787C24.4551 29.787 24.2387 29.6973 24.0791 29.5377C23.9195 29.3782 23.8298 29.1617 23.8298 28.936V21.691L21.1468 25.983C21.0653 26.0992 20.957 26.194 20.831 26.2594C20.7051 26.3249 20.5653 26.3591 20.4233 26.3591C20.2814 26.3591 20.1416 26.3249 20.0156 26.2594C19.8897 26.194 19.7814 26.0992 19.6998 25.983L17.0188 21.691V28.936C17.0083 29.1543 16.9141 29.3602 16.7558 29.5109C16.5976 29.6617 16.3874 29.7458 16.1688 29.7458C15.9503 29.7458 15.7401 29.6617 15.5819 29.5109C15.4236 29.3602 15.3294 29.1543 15.3188 28.936V18.723C15.3187 18.5381 15.3788 18.3582 15.4901 18.2105C15.6013 18.0628 15.7576 17.9554 15.9353 17.9044C16.113 17.8535 16.3025 17.8618 16.4751 17.9281C16.6477 17.9944 16.794 18.1151 16.8918 18.272L20.4258 23.926L23.9588 18.272C24.0567 18.1151 24.203 17.9944 24.3756 17.9281C24.5482 17.8618 24.7377 17.8535 24.9154 17.9044C25.0931 17.9554 25.2494 18.0628 25.3606 18.2105C25.4719 18.3582 25.532 18.5381 25.5318 18.723V28.936C25.5318 29.1617 25.4422 29.3782 25.2826 29.5377C25.123 29.6973 24.9065 29.787 24.6808 29.787Z" fill="#979DAC"/>
<path d="M30.6378 17.873H27.2378C27.1256 17.8735 27.0145 17.8519 26.9107 17.8093C26.8069 17.7667 26.7126 17.704 26.6331 17.6248C26.5536 17.5456 26.4906 17.4515 26.4477 17.3479C26.4047 17.2443 26.3827 17.1332 26.3828 17.021V14.464C26.3828 14.2383 26.4725 14.0218 26.632 13.8623C26.7916 13.7027 27.0081 13.613 27.2338 13.613H29.7828V12.764H27.2338C27.1187 12.7696 27.0037 12.7517 26.8957 12.7115C26.7877 12.6713 26.689 12.6096 26.6056 12.5302C26.5221 12.4507 26.4557 12.3551 26.4103 12.2492C26.365 12.1433 26.3416 12.0292 26.3416 11.914C26.3416 11.7988 26.365 11.6847 26.4103 11.5788C26.4557 11.4729 26.5221 11.3773 26.6056 11.2978C26.689 11.2184 26.7877 11.1567 26.8957 11.1165C27.0037 11.0763 27.1187 11.0584 27.2338 11.064H30.6338C30.8595 11.064 31.076 11.1537 31.2355 11.3133C31.3951 11.4728 31.4848 11.6893 31.4848 11.915V14.464C31.4848 14.6897 31.3951 14.9062 31.2355 15.0658C31.076 15.2253 30.8595 15.315 30.6338 15.315H28.0828V16.166H30.6358C30.7509 16.1604 30.8659 16.1783 30.9739 16.2185C31.0819 16.2587 31.1806 16.3204 31.264 16.3998C31.3475 16.4793 31.4139 16.5749 31.4593 16.6808C31.5046 16.7867 31.528 16.9008 31.528 17.016C31.528 17.1312 31.5046 17.2453 31.4593 17.3512C31.4139 17.4571 31.3475 17.5527 31.264 17.6322C31.1806 17.7116 31.0819 17.7733 30.9739 17.8135C30.8659 17.8537 30.7509 17.8716 30.6358 17.866L30.6378 17.873Z" fill="#979DAC"/>
</g>
<defs>
<clipPath id="clip0_148_729">
<rect width="40" height="40" fill="white"/>
</clipPath>
</defs>
</svg>
