<svg width="101" height="100" viewBox="0 0 101 100" fill="none" xmlns="http://www.w3.org/2000/svg">
<mask id="mask0_148_982" style="mask-type:luminance" maskUnits="userSpaceOnUse" x="14" y="10" width="73" height="82">
<path d="M14.274 10H86.6584V92H14.274V10Z" fill="white"/>
</mask>
<g mask="url(#mask0_148_982)">
<path d="M40.7761 50.4104C40.6011 50.199 40.2521 49.799 40.2521 49.799V59.4667L64.9573 88.3531H71.9021C71.9896 88.1781 72.1209 88.025 72.2802 87.901C72.4698 87.7708 72.6729 87.6469 72.8917 87.5448C68.4479 82.4125 44.0552 54.2104 40.7761 50.4177V50.4104ZM59.8886 27.3406C59.8886 27.3479 59.8813 27.3552 59.8813 27.3552L54.4552 30.0927L57.5969 34.7219L61.5677 33.5208C61.9094 33.3969 62.2875 33.426 62.6084 33.5938C62.9354 33.7688 63.1677 34.0667 63.2625 34.4167C63.3573 34.7656 63.299 35.1448 63.1021 35.45C62.9063 35.7635 62.5938 35.974 62.2375 36.0396L59.7209 36.7823L62.099 41.6021C62.9282 43.5385 64.2084 45.2417 65.8302 46.5885L66.9938 47.5417L78.8552 44.3604L72.5354 30.849C71.5094 28.651 69.6625 26.9406 67.3938 26.0885L64.6084 25.0479L59.8886 27.3406ZM36.7469 31.3229L39.6698 32.349L41.0375 31.8031H41.0302C41.3354 31.6792 41.6771 31.7156 41.9469 31.8906C41.9469 31.8906 47.8667 36.4479 49.7354 36.2073C51.0302 36.0396 53.1313 35.8219 54.6375 35.574L51.6552 31.1625C50.4479 31.1406 49.2625 30.8563 48.1865 30.3177C47.2844 29.9323 46.0625 29.5104 45.2334 29.2188L40.3542 27.675C40.1427 27.6031 39.9542 27.4646 39.8229 27.2823L38.4052 25.2219L35.8886 27.0635L36.7469 31.3229ZM31.8011 21.1531L35.0813 25.1708L36.9063 23.8385L33.5469 19.726L35.4448 18.1677L32.725 14.8406L26.7615 19.7771L29.6052 22.9438L31.8011 21.1531ZM57.6334 24.1448L59.474 25.324L63.3209 23.475C63.5021 23.3875 63.6698 23.2708 63.8084 23.1323C64.1063 22.4563 64.3167 21.75 64.4406 21.0219C64.3459 20.0896 64.0625 19.1875 63.6115 18.3719C62.6875 17.7604 61.6115 17.425 60.5063 17.3885C59.124 17.3885 57.7573 17.6948 56.5136 18.299C56.4115 19.5073 56.3823 20.7229 56.4334 21.9313C56.5427 22.7979 56.9719 23.5917 57.6334 24.1521V24.1448ZM54.2594 19.1146C54.3104 18.175 54.3677 17.4396 54.375 17.3958C54.4115 17.1198 54.55 16.8719 54.7532 16.6906C54.9427 16.5229 55.1459 16.3698 55.3573 16.2458C56.899 15.424 58.6229 14.9938 60.3677 15.001C61.8375 14.9792 63.2844 15.3875 64.5281 16.1656C64.9136 16.3844 65.4156 16.6833 65.7281 16.8719C65.699 16.2385 65.5167 15.6125 65.2042 15.0594L64.6375 13.8729L64.5792 13.6906C64.2448 12.4021 63.4011 11.3031 62.2448 10.6479C61.0875 9.98542 59.7209 9.825 58.4407 10.1969C53.125 11.2885 53.0813 16.6323 53.1032 16.901C53.125 17.1635 52.7459 17.6948 52.6157 17.9281V17.9208C52.4407 18.2917 52.3104 18.6771 52.2157 19.0708C52.8917 19.151 53.575 19.1656 54.2594 19.1219V19.1146ZM49.3063 44.6083C48.6886 45.0448 47.9896 45.3583 47.2479 45.5406L44.2959 46.2531C43.8229 46.3771 43.3354 46.4354 42.8552 46.4281L41.525 46.4063L45.2698 50.549L47.6917 48.6563C47.8302 48.5469 47.9969 48.4813 48.1792 48.4521L51.9532 47.9938C52.9719 47.8625 53.9459 47.5052 54.8115 46.9521L55.8521 46.2604L52.9427 42.0094L49.3063 44.6083ZM60.2948 43.3781C60.1646 43.1229 60.0115 42.8615 59.8948 42.5917L57.4521 38.1146L55.2552 40.3354L58.274 44.7469L60.2948 43.3781ZM63.2188 65.8583C63.5604 64.0385 64.5427 62.4 65.975 61.2354L67.35 59.8667L65.1823 53.3365C65.1604 53.2563 65.1459 53.1698 65.1313 53.0823L65.0948 52.4271L62.2229 55.026C60.3896 56.4813 59.124 58.5271 58.6375 60.8208L57.8375 64.8604L62.1427 69.8552L63.2188 65.8583ZM86.5927 89.3427L80.7313 67.4521C80.0625 64.9333 79.6334 62.3708 79.4511 59.7792L78.7313 47.8333L67.9823 50.5271V52.4563L78.375 83.7667C78.7021 84.7563 78.6438 85.8417 78.2 86.7875C77.699 87.7271 76.7677 88.3531 75.7136 88.4833L74.6511 88.7531C73.5969 89.0229 72.8334 89.9396 72.7459 91.0323L72.6802 92H84.5636C85.2261 92 85.8365 91.6865 86.2365 91.1698C86.6365 90.6458 86.7677 89.9688 86.5927 89.3354V89.3427ZM23.7209 46.574H16.0271L23.7209 55.7323V46.574ZM37.474 56.2125V46.574H29.2198L37.474 56.2125ZM14.274 49.3917V88.3531H47.0229L23.7146 60.6094L14.274 49.3917ZM26.5063 48.2479V59.0292L51.1459 88.3531H60.8115L37.5469 61.1625L26.5063 48.2479Z" fill="url(#paint0_linear_148_982)"/>
</g>
<defs>
<linearGradient id="paint0_linear_148_982" x1="34.5001" y1="27" x2="73.0001" y2="92" gradientUnits="userSpaceOnUse">
<stop/>
<stop offset="1" stop-color="#393844" stop-opacity="0"/>
</linearGradient>
</defs>
</svg>
