<svg width="40" height="40" viewBox="0 0 40 40" fill="none" xmlns="http://www.w3.org/2000/svg">
<path d="M21.2926 6.625H18.626V21.4676L28.2604 26.0466L29.4051 23.6381L21.2926 19.7824V6.625Z" fill="#979DAC"/>
<path d="M20 0C8.95433 0 0 8.95433 0 20C0 31.0457 8.95433 40 20 40C31.0457 40 40 31.0457 40 20C40 8.95433 31.0457 0 20 0ZM20 37.3333C10.4271 37.3333 2.66667 29.5729 2.66667 20C2.66667 10.4271 10.4271 2.66667 20 2.66667C29.5729 2.66667 37.3333 10.4271 37.3333 20C37.3333 29.5729 29.5729 37.3333 20 37.3333Z" fill="#979DAC"/>
</svg>
