<svg xmlns="http://www.w3.org/2000/svg" version="1.1" xmlns:xlink="http://www.w3.org/1999/xlink" width="512" height="512" x="0" y="0" viewBox="0 0 128 128" style="enable-background:new 0 0 512 512" xml:space="preserve" class=""><g><path d="M32.234 23.479A13.839 13.839 0 1 0 18.4 37.318a13.854 13.854 0 0 0 13.834-13.839zm-24.177 0A10.339 10.339 0 1 1 18.4 33.818 10.351 10.351 0 0 1 8.057 23.479zM43.9 71.911H27.656V48.162a9.261 9.261 0 1 0-18.521 0v33.01a9.271 9.271 0 0 0 9.265 9.261h16.234v23.75a9.261 9.261 0 0 0 18.522 0V81.172a9.272 9.272 0 0 0-9.256-9.261zm5.761 42.272a5.761 5.761 0 0 1-11.522 0v-25.5a1.75 1.75 0 0 0-1.75-1.75H18.4a5.767 5.767 0 0 1-5.761-5.761v-33.01a5.761 5.761 0 1 1 11.521 0v25.5a1.751 1.751 0 0 0 1.75 1.75H43.9a5.768 5.768 0 0 1 5.761 5.761zM109.6 9.482a13.839 13.839 0 1 0 13.839 13.839A13.854 13.854 0 0 0 109.6 9.482zm0 24.178a10.339 10.339 0 1 1 10.339-10.339A10.351 10.351 0 0 1 109.6 33.66z" fill="#e6b740" opacity="1" data-original="#000000" class=""></path><path d="M109.6 38.9a9.271 9.271 0 0 0-9.26 9.261v23.75H84.105a9.272 9.272 0 0 0-9.261 9.261v33.011a9.261 9.261 0 0 0 18.522 0v-23.75H109.6a9.271 9.271 0 0 0 9.261-9.261v-33.01A9.271 9.271 0 0 0 109.6 38.9zm5.761 42.271a5.767 5.767 0 0 1-5.761 5.761H91.616a1.75 1.75 0 0 0-1.75 1.75v25.5a5.761 5.761 0 0 1-11.522 0v-33.01a5.768 5.768 0 0 1 5.761-5.761h17.989a1.751 1.751 0 0 0 1.75-1.75v-25.5a5.761 5.761 0 1 1 11.521 0z" fill="#e6b740" opacity="1" data-original="#000000" class=""></path><path d="M37.854 63.472h52.292a1.75 1.75 0 0 0 1.75-1.75V52.59a1.75 1.75 0 0 0-1.75-1.75H37.854a1.75 1.75 0 0 0-1.75 1.75v9.132a1.75 1.75 0 0 0 1.75 1.75zM39.6 54.34h48.8v5.632H39.6zM37.854 35.8h11.115v4.853a1.751 1.751 0 0 0 1.75 1.75h33.614a1.751 1.751 0 0 0 1.75-1.75V19.788l5.339-5.681a1.75 1.75 0 0 0-1.276-2.948H79.031V6.307a1.75 1.75 0 0 0-1.75-1.75H43.667a1.75 1.75 0 0 0-1.75 1.75V27.17l-5.338 5.68a1.749 1.749 0 0 0 1.275 2.95zm41.177-1.75V14.659H86.1L83.058 17.9a1.749 1.749 0 0 0-.475 1.2v19.8H52.469v-3.1h24.812a1.75 1.75 0 0 0 1.75-1.752zm-34.089-4.988a1.751 1.751 0 0 0 .475-1.2V8.057h30.114V32.3H41.9z" fill="#e6b740" opacity="1" data-original="#000000" class=""></path><path d="M68.935 22.515H52.014a1.75 1.75 0 1 0 0 3.5h16.921a1.75 1.75 0 0 0 0-3.5zM68.935 14.339H52.014a1.75 1.75 0 0 0 0 3.5h16.921a1.75 1.75 0 1 0 0-3.5z" fill="#e6b740" opacity="1" data-original="#000000" class=""></path></g></svg>