<svg height="512" viewBox="0 0 128 128" width="512" xmlns="http://www.w3.org/2000/svg"><g fill="rgb(0,0,0)"><path d="m32.234 23.479a13.839 13.839 0 1 0 -13.834 13.839 13.854 13.854 0 0 0 13.834-13.839zm-24.177 0a10.339 10.339 0 1 1 10.343 10.339 10.351 10.351 0 0 1 -10.343-10.339z"/><path d="m43.9 71.911h-16.244v-23.749a9.261 9.261 0 1 0 -18.521 0v33.01a9.271 9.271 0 0 0 9.265 9.261h16.234v23.75a9.261 9.261 0 0 0 18.522 0v-33.011a9.272 9.272 0 0 0 -9.256-9.261zm5.761 42.272a5.761 5.761 0 0 1 -11.522 0v-25.5a1.75 1.75 0 0 0 -1.75-1.75h-17.989a5.767 5.767 0 0 1 -5.761-5.761v-33.01a5.761 5.761 0 1 1 11.521 0v25.5a1.751 1.751 0 0 0 1.75 1.75h17.99a5.768 5.768 0 0 1 5.761 5.761z"/><path d="m109.6 9.482a13.839 13.839 0 1 0 13.839 13.839 13.854 13.854 0 0 0 -13.839-13.839zm0 24.178a10.339 10.339 0 1 1 10.339-10.339 10.351 10.351 0 0 1 -10.339 10.339z"/><path d="m109.6 38.9a9.271 9.271 0 0 0 -9.26 9.261v23.75h-16.235a9.272 9.272 0 0 0 -9.261 9.261v33.011a9.261 9.261 0 0 0 18.522 0v-23.75h16.234a9.271 9.271 0 0 0 9.261-9.261v-33.01a9.271 9.271 0 0 0 -9.261-9.262zm5.761 42.271a5.767 5.767 0 0 1 -5.761 5.761h-17.984a1.75 1.75 0 0 0 -1.75 1.75v25.5a5.761 5.761 0 0 1 -11.522 0v-33.01a5.768 5.768 0 0 1 5.761-5.761h17.989a1.751 1.751 0 0 0 1.75-1.75v-25.5a5.761 5.761 0 1 1 11.521 0z"/><path d="m37.854 63.472h52.292a1.75 1.75 0 0 0 1.75-1.75v-9.132a1.75 1.75 0 0 0 -1.75-1.75h-52.292a1.75 1.75 0 0 0 -1.75 1.75v9.132a1.75 1.75 0 0 0 1.75 1.75zm1.746-9.132h48.8v5.632h-48.8z"/><path d="m37.854 35.8h11.115v4.853a1.751 1.751 0 0 0 1.75 1.75h33.614a1.751 1.751 0 0 0 1.75-1.75v-20.865l5.339-5.681a1.75 1.75 0 0 0 -1.276-2.948h-11.115v-4.852a1.75 1.75 0 0 0 -1.75-1.75h-33.614a1.75 1.75 0 0 0 -1.75 1.75v20.863l-5.338 5.68a1.749 1.749 0 0 0 1.275 2.95zm41.177-1.75v-19.391h7.069l-3.042 3.241a1.749 1.749 0 0 0 -.475 1.2v19.8h-30.114v-3.1h24.812a1.75 1.75 0 0 0 1.75-1.752zm-34.089-4.988a1.751 1.751 0 0 0 .475-1.2v-19.805h30.114v24.243h-33.631z"/><path d="m68.935 22.515h-16.921a1.75 1.75 0 1 0 0 3.5h16.921a1.75 1.75 0 0 0 0-3.5z"/><path d="m68.935 14.339h-16.921a1.75 1.75 0 0 0 0 3.5h16.921a1.75 1.75 0 1 0 0-3.5z"/></g></svg>