<svg width="101" height="100" viewBox="0 0 101 100" fill="none" xmlns="http://www.w3.org/2000/svg">
<mask id="mask0_148_976" style="mask-type:luminance" maskUnits="userSpaceOnUse" x="8" y="10" width="84" height="80">
<path d="M8.5 10H91.1667V89.8667H8.5V10Z" fill="white"/>
</mask>
<g mask="url(#mask0_148_976)">
<path fill-rule="evenodd" clip-rule="evenodd" d="M62.1302 10.0031C46.1802 10.0031 33.251 22.9479 33.251 38.9156C33.251 45.0833 35.1812 50.8 38.4687 55.4938L29.4156 64.2885L29.0896 63.9521C28.0844 62.9146 26.4135 62.8896 25.3771 63.8958L9.51769 79.3031C8.48123 80.3094 8.45623 81.9823 9.46144 83.0198L15.1875 88.9271C16.1937 89.9646 17.8635 89.9896 18.9 88.9833L34.7594 73.576C35.7958 72.5698 35.8208 70.8969 34.8156 69.8594L34.4885 69.5229L43.3698 60.8958C47.7614 64.6563 53.2927 67.1219 59.375 67.6979L62.6146 62.0792C62.4541 62.0823 62.2927 62.0854 62.1302 62.0854C49.3489 62.0854 38.9875 51.7125 38.9875 38.9156C38.9875 26.1198 49.3489 15.7458 62.1302 15.7458C74.9114 15.7458 85.2729 26.1198 85.2729 38.9156C85.2729 45.4531 82.5687 51.3573 78.2187 55.5688C78.8854 56.1667 79.4646 56.875 79.9291 57.6781L81.4833 60.375C87.3333 55.0833 91.0094 47.4302 91.0094 38.9156C91.0094 22.9479 78.0791 10.0031 62.1302 10.0031ZM65.5344 24.6365C67.0437 24.9958 68.4854 25.5948 69.8062 26.4094L72.5833 25.175L75.8552 28.451L74.6219 31.2292C75.4364 32.5531 76.0344 33.9969 76.3937 35.5083L79.226 36.6V41.2323L76.3927 42.324C76.0583 43.7333 75.5146 45.0844 74.7823 46.3333L74.8656 44.5458C74.9229 43.2594 74.0062 42.1073 72.7062 41.901L71.0635 41.6385C71.325 40.7771 71.4666 39.8635 71.4666 38.9156C71.4666 33.7531 67.2864 29.5688 62.1302 29.5688C59.9833 29.5688 58.0062 30.2938 56.4291 31.5135L54.6229 31.225L54.7698 28.0458C54.7989 27.3781 54.5698 26.7583 54.1708 26.2844L54.4531 26.4094C55.7739 25.5948 57.2166 24.9958 58.726 24.6365L59.8166 21.8H64.4437L65.5344 24.6365ZM53.1958 36.1938C52.9344 37.0552 52.7937 37.9688 52.7937 38.9156C52.7937 44.0792 56.9729 48.2635 62.1302 48.2635C64.2771 48.2635 66.2541 47.5375 67.8312 46.3188L69.6375 46.6073L69.4906 49.7854C69.4614 50.4531 69.6906 51.0729 70.0896 51.5479L69.8073 51.4229C68.4864 52.2375 67.0437 52.8365 65.5344 53.1958L64.4437 56.0323H59.8166L58.726 53.1958C57.2166 52.8354 55.775 52.2365 54.4531 51.4219L51.6771 52.6563L48.4052 49.3802L49.6375 46.6021C48.8239 45.2792 48.226 43.8354 47.8666 42.324L45.0344 41.2323V36.599L47.8666 35.5073C48.2021 34.0979 48.7448 32.7469 49.4771 31.4979L49.3948 33.2854C49.3375 34.5719 50.2541 35.724 51.5541 35.9302L53.1958 36.1938ZM90.2281 81.0302L77.5531 59.051C76.5104 57.2448 74.6239 56.1542 72.5406 56.1542C70.4562 56.1542 68.5698 57.2448 67.5281 59.051L54.8531 81.0302C52.6271 84.8906 55.4135 89.7219 59.8656 89.7219H85.2156C89.6677 89.7219 92.4541 84.8906 90.2281 81.0302ZM72.1573 64.5104C72.6989 64.5104 72.3823 64.5104 72.9239 64.5104C73.7875 64.5104 74.4687 65.2188 74.4375 66.0823L74.0552 76.7021C74.025 77.5177 73.3562 78.1636 72.5406 78.1636C71.725 78.1636 71.0552 77.5177 71.026 76.7021L70.6437 66.0823C70.6114 65.2188 71.2937 64.5104 72.1573 64.5104ZM72.5406 85.5198C71.4687 85.5198 70.5989 84.65 70.5989 83.576C70.5989 82.5031 71.4687 81.6333 72.5406 81.6333C73.6125 81.6333 74.4812 82.5031 74.4812 83.576C74.4812 84.65 73.6125 85.5198 72.5406 85.5198Z" fill="url(#paint0_linear_148_976)"/>
</g>
<defs>
<linearGradient id="paint0_linear_148_976" x1="50" y1="26" x2="86" y2="94" gradientUnits="userSpaceOnUse">
<stop/>
<stop offset="1" stop-color="#383742" stop-opacity="0"/>
</linearGradient>
</defs>
</svg>
