<svg xmlns="http://www.w3.org/2000/svg" version="1.1" xmlns:xlink="http://www.w3.org/1999/xlink" width="512" height="512" x="0" y="0" viewBox="0 0 512 512" style="enable-background:new 0 0 512 512" xml:space="preserve" class=""><g><path d="M436.47 242.25c-9.08-14.41-41.06-17.27-56.52-9.15-8.1 3.86-13.44 9.81-14.65 16.35-.01.03-4.05 22.3-4.06 22.34-16.72-5.62-37.38-9.17-62.64-12.61a9.82 9.82 0 0 1-8.04-6.76l-5.24-19.84c6.24-12.5 15.12-37.57 17.94-45.67 13.1-8.2 7.13-20.62 12.52-31.6 3.49-6.3 5.22-16.53-1.88-20.42 6.54-1.66 14-4.77 14-11.44.18-4.06-4.34-9.61-6.42-13.66-1.71-37.27-14.65-64.31-37.52-78.59l.42-2.53c1.23-7.07-9.13-9.76-11.54-3.09a81.543 81.543 0 0 0-11.44-3.59c-4.5-13.08-14.49-16.33-27.08-15.42-9.27 0-17.28 6.41-20.08 15.42-3.98.94-7.8 2.13-11.43 3.59-2.41-6.68-12.77-3.99-11.54 3.08l.43 2.54c-22.87 14.27-35.81 41.31-37.52 78.58-2.09 4.05-6.6 9.59-6.42 13.66 0 6.3 6.25 9.38 14.13 11.35-7.27 3.87-5.55 14.11-2.02 20.5 5.37 10.91-.55 23.45 12.52 31.6 2.82 8.1 11.7 33.18 17.94 45.67l-5.22 19.84a9.823 9.823 0 0 1-8.05 6.76c-25.26 3.44-45.93 6.99-62.65 12.61 0-.03-4.05-22.31-4.06-22.33-1.2-6.54-6.54-12.5-14.65-16.36-21.99-10.99-66.55-2.21-59.95 27.22.7 3.4 17.56 91.4 18.87 98.06a6.023 6.023 0 0 0-4.18 3.95c-8.46 27.14-5.76 68.26 21.41 85.66l4.96 25.81a5.996 5.996 0 0 0 4.29 4.65c52.63 14.62 105.35 22.13 156.69 22.31 52.68.18 105.41-7.33 156.83-22.34a5.995 5.995 0 0 0 4.21-4.63l4.96-25.81c27.18-17.41 29.86-58.5 21.42-85.66a6.012 6.012 0 0 0-4.19-3.96c3.69-19.22 15.37-79.88 18.86-98.03.61-2.57 1.88-10.5-3.42-18.1zm-29.53-1.41c12.87 1.11 23.41 6.67 21.27 16.78-.73 12.14-41.34 15.73-55.57 18.55l2.21-12.14c8.84 3.73 41.55 5.71 37.62-6.74-.99-3.16-4.35-4.93-7.51-3.95-9.14 2.85-25.61 1.35-27.87-1.68.86-4.79 11.87-12.68 29.85-10.82zM234.32 18.59h7.01c5.24-.12 9.53 5.46 9.16 11.14-3.32 17.98-5.33 38.06-7.49 67.88-.44 4.08-3.16 4.72-6.42 4.43-2.02 0-3.75-1.95-3.93-4.44-1.78-25.39-4.17-49.13-6.4-61.54l-1.09-6.33c-.37-5.66 3.92-11.27 9.16-11.14zm-72.15 101.29c2.39-3.83 3.86-6.31 3.97-9 1.58-37.18 14.62-56.47 27.59-66.48 1.64 12.28 3.19 28.72 4.7 49.91.22 3.31 3.15 5.81 6.41 5.56 3.31-.23 5.79-3.1 5.56-6.41-1.74-24.45-3.55-42.76-5.49-55.72 2.81-1.27 5.78-2.34 8.9-3.23 2.79 15.65 4.47 31.83 6.62 60.45-.24 11.38 7.31 20.05 18.64 19.07 9.91.07 16.55-9.24 16.15-19.07 2.15-28.55 3.82-44.72 6.62-60.45 3.11.88 6.08 1.96 8.9 3.22-1.94 12.96-3.74 31.25-5.48 55.72-.23 3.31 2.25 6.18 5.56 6.41 3.26.25 6.19-2.25 6.41-5.56 1.51-21.23 3.06-37.68 4.69-49.93 20.94 16.05 26.66 44.43 27.6 66.5-.05 3 3.02 7.4 5.29 11.14-38.35 9.4-115.22 9.25-153.92-.07.44-.74.91-1.5 1.28-2.08zm16.2 56.67s-3.5-1.65-3.81-9.74c-.44-12.93-3.45-13.54-5.74-21.87 4.38.7 8.35-3.15 7.23-7.57 32.63 4.36 90.82 4.44 123.53.11-1.09 4.42 2.92 8.17 7.25 7.47-2.28 8.31-5.3 8.95-5.74 21.87-.29 7.63-3.28 9.43-3.98 9.75-2.27.25-3.58 1.72-4.34 3.93-.52.77-13.12 39.53-20.78 51.2-10.03 11.9-58.31 11.91-68.34.02-7.6-11.6-20.37-50.49-20.79-51.22a5.99 5.99 0 0 0-4.5-3.94zm.3 94.53c15.56-2.66 17.95-13.99 21.09-27.15 20.27 12.03 55.87 12.04 76.14 0 3.15 13.17 5.56 24.51 21.09 27.16 19.15 2.61 35.52 5.26 49.32 8.82a868.45 868.45 0 0 1-216.97 0c13.79-3.56 30.17-6.21 49.33-8.82zM49.03 249.12c10.21-13.56 47.15-9.43 49.53 2.54-2.25 3.03-18.72 4.52-27.87 1.68-3.16-.98-6.53.78-7.51 3.95-3.92 12.44 28.74 10.48 37.63 6.74l2.21 12.15c-8.96-1.4-18.25-3-27.65-4.78-22.29-4.37-32.8-9.05-26.34-22.27zm11.3 122.31c15.34 3.73 33.22 6.84 50.52 1.31 4.49-1.44 9.27.52 11.11 4.56 7.92 17.36 9.66 35.88 5.17 55.07-4.03 11.28-25.73 12.46-38.31 9.62-29.9-6.19-34.18-46.99-28.49-70.55zm177.5 117.35c-49.1-.17-99.53-7.2-149.93-20.89l-2.78-14.46c17.74 4.34 48.16 2.13 53.69-18.34 5.11-21.83 3.11-42.95-5.93-62.78-4.37-9.56-15.41-14.29-25.69-11-13.01 4.17-27.23 2.27-39.9-.57l-15.75-81.9c122.66 26.48 249.9 26.48 372.57 0l-15.75 81.9c-12.66 2.85-26.89 4.74-39.89.58-10.28-3.29-21.32 1.44-25.69 11-9.04 19.83-11.04 40.95-5.94 62.77 5.55 20.48 35.94 22.68 53.69 18.34l-2.79 14.51c-49.19 14.01-99.61 21-149.91 20.84zm173.91-68.37c-7.71 23.66-41.04 28.31-58.96 17.54-2.17-1.24-3.73-3.28-4.27-5.6-4.49-19.18-2.75-37.71 5.17-55.06 1.84-4.12 6.87-5.98 11.11-4.56 17.3 5.53 35.18 2.43 50.53-1.31 3.92 15.83 2.73 31.91-3.58 48.98z" fill="#e6b740" opacity="1" data-original="#000000" class=""></path></g></svg>