<svg xmlns="http://www.w3.org/2000/svg" version="1.1" xmlns:xlink="http://www.w3.org/1999/xlink" width="512" height="512" x="0" y="0" viewBox="0 0 512 512" style="enable-background:new 0 0 512 512" xml:space="preserve" class=""><g><path d="M190.4 107.32c-40.01 0-72.56 32.55-72.56 72.57 0 40.01 32.55 72.56 72.56 72.56s72.56-32.55 72.56-72.56c.01-40.02-32.54-72.57-72.56-72.57zm0 135.13c-34.5 0-62.56-28.07-62.56-62.56 0-34.5 28.07-62.57 62.56-62.57 34.5 0 62.56 28.07 62.56 62.57.01 34.5-28.06 62.56-62.56 62.56zm21.46-46.1c0 10.11-7.03 18.61-16.46 20.87v4.01c0 2.76-2.24 5-5 5s-5-2.24-5-5v-4.01a21.457 21.457 0 0 1-12.96-9.12c-1.51-2.31-.87-5.41 1.44-6.92s5.41-.87 6.92 1.44c2.13 3.25 5.72 5.19 9.59 5.19 6.32 0 11.46-5.14 11.46-11.46s-5.14-11.46-11.46-11.46c-11.83 0-21.46-9.63-21.46-21.46 0-10.11 7.03-18.61 16.46-20.87v-4.02c0-2.76 2.24-5 5-5s5 2.24 5 5v4.01c5.26 1.26 9.91 4.47 12.96 9.12 1.51 2.31.87 5.41-1.44 6.92s-5.41.87-6.92-1.44a11.443 11.443 0 0 0-9.59-5.19c-6.32 0-11.46 5.14-11.46 11.46s5.14 11.46 11.46 11.46c11.84.01 21.46 9.63 21.46 21.47zm263.03 14.23c-5.36-5.37-12.47-8.33-20.03-8.33H351.95V94.34c0-25.52-20.77-46.29-46.29-46.29h-55.65c-3.04-6.26-9.45-10.59-16.86-10.59h-11.68C219.07 22.48 206.05 11 190.4 11s-28.66 11.48-31.07 26.46h-11.68c-7.41 0-13.81 4.33-16.86 10.59H75.15c-25.52 0-46.29 20.77-46.29 46.29v314.74c0 25.53 20.77 46.29 46.29 46.29h205.18l-.04 17.33c-.02 7.52 2.91 14.61 8.26 19.97 5.36 5.37 12.47 8.33 20.03 8.33H454.3c15.56 0 28.24-12.68 28.28-28.27l.56-242.19c.02-7.52-2.91-14.61-8.25-19.96zM341.95 94.34v107.91h-12.01V94.34c0-13.39-10.89-24.28-24.28-24.28H251.9V58.05h53.76c20.01 0 36.29 16.28 36.29 36.29zM138.9 56.22c0-4.83 3.93-8.75 8.76-8.75h16.28c2.76 0 5-2.24 5-5 0-11.83 9.63-21.46 21.46-21.46s21.46 9.63 21.46 21.46c0 2.76 2.24 5 5 5h16.28c4.83 0 8.76 3.93 8.76 8.75v15.67c0 4.83-3.93 8.76-8.76 8.76h-85.49c-4.83 0-8.76-3.93-8.76-8.76V56.22zM75.15 445.37c-20.01 0-36.29-16.28-36.29-36.29V94.34c0-20.01 16.28-36.29 36.29-36.29h53.75v12.01H75.15c-13.39 0-24.28 10.89-24.28 24.28v314.74c0 13.39 10.89 24.28 24.28 24.28h205.23l-.03 12.01zm205.7-214.85-.45 192.85H75.15c-7.88 0-14.28-6.41-14.28-14.28V94.34c0-7.88 6.41-14.28 14.28-14.28h55.65c3.04 6.26 9.45 10.59 16.86 10.59h85.49c7.41 0 13.81-4.33 16.86-10.59h55.65c7.87 0 14.28 6.41 14.28 14.28v107.91h-10.81c-15.55 0-28.24 12.68-28.28 28.27zm191.73 242.19c-.02 10.09-8.22 18.29-18.28 18.29H308.57c-4.88 0-9.48-1.91-12.95-5.39-3.45-3.46-5.35-8.03-5.33-12.88l.56-242.19c.02-10.09 8.22-18.29 18.28-18.29h145.73c4.88 0 9.48 1.92 12.95 5.39 3.45 3.46 5.34 8.03 5.33 12.88zm-27.1-243.61H318.52c-5.97 0-10.82 4.85-10.82 10.82v55.44c0 5.97 4.85 10.82 10.82 10.82h126.95c5.97 0 10.82-4.85 10.82-10.82v-55.44c.01-5.97-4.85-10.82-10.81-10.82zm.82 66.26c0 .44-.38.82-.82.82H318.52c-.44 0-.82-.38-.82-.82v-55.44c0-.44.38-.82.82-.82h126.95c.44 0 .82.38.82.82v55.44zm-108.78 30.18h-18.99c-5.97 0-10.82 4.85-10.82 10.82v18.99c0 5.97 4.85 10.82 10.82 10.82h18.99c5.97 0 10.82-4.85 10.82-10.82v-18.99c0-5.96-4.86-10.82-10.82-10.82zm.82 29.81c0 .44-.38.82-.82.82h-18.99c-.44 0-.82-.38-.82-.82v-18.99c0-.44.38-.82.82-.82h18.99c.44 0 .82.38.82.82zm107.14-29.81h-18.99c-5.97 0-10.82 4.85-10.82 10.82v18.99c0 5.97 4.85 10.82 10.82 10.82h18.99c5.97 0 10.82-4.85 10.82-10.82v-18.99c0-5.96-4.86-10.82-10.82-10.82zm.82 29.81c0 .44-.38.82-.82.82h-18.99c-.44 0-.82-.38-.82-.82v-18.99c0-.44.38-.82.82-.82h18.99c.44 0 .82.38.82.82zm-54.8-29.81h-19c-5.97 0-10.82 4.85-10.82 10.82v18.99c0 5.97 4.85 10.82 10.82 10.82h18.99c5.97 0 10.82-4.85 10.82-10.82v-18.99c.01-5.96-4.85-10.82-10.81-10.82zm.82 29.81c0 .44-.38.82-.82.82h-19c-.44 0-.82-.38-.82-.82v-18.99c0-.44.38-.82.82-.82h18.99c.44 0 .82.38.82.82v18.99zm-54.8 24.17h-18.99c-5.97 0-10.82 4.85-10.82 10.82v18.99c0 5.97 4.85 10.82 10.82 10.82h18.99c5.97 0 10.82-4.85 10.82-10.82v-18.99c0-5.97-4.86-10.82-10.82-10.82zm.82 29.81c0 .44-.38.82-.82.82h-18.99c-.44 0-.82-.38-.82-.82v-18.99c0-.44.38-.82.82-.82h18.99c.44 0 .82.38.82.82zm-.82 24.17h-18.99c-5.97 0-10.82 4.85-10.82 10.82v18.99c0 5.97 4.85 10.82 10.82 10.82h18.99c5.97 0 10.82-4.85 10.82-10.82v-18.99c0-5.97-4.86-10.82-10.82-10.82zm.82 29.81c0 .44-.38.82-.82.82h-18.99c-.44 0-.82-.38-.82-.82v-18.99c0-.44.38-.82.82-.82h18.99c.44 0 .82.38.82.82zm53.16-83.79h-19c-5.97 0-10.82 4.85-10.82 10.82v18.99c0 5.97 4.85 10.82 10.82 10.82h18.99c5.97 0 10.82-4.85 10.82-10.82v-18.99c.01-5.97-4.85-10.82-10.81-10.82zm.82 29.81c0 .44-.38.82-.82.82h-19c-.44 0-.82-.38-.82-.82v-18.99c0-.44.38-.82.82-.82h18.99c.44 0 .82.38.82.82v18.99zm53.16-29.81h-18.99c-5.97 0-10.82 4.85-10.82 10.82v72.97c0 5.97 4.85 10.82 10.82 10.82h18.99c5.97 0 10.82-4.85 10.82-10.82v-72.97c0-5.97-4.86-10.82-10.82-10.82zm.82 83.79c0 .44-.38.82-.82.82h-18.99c-.44 0-.82-.38-.82-.82v-72.97c0-.44.38-.82.82-.82h18.99c.44 0 .82.38.82.82zm-54.8-29.81h-19c-5.97 0-10.82 4.85-10.82 10.82v18.99c0 5.97 4.85 10.82 10.82 10.82h18.99c5.97 0 10.82-4.85 10.82-10.82v-18.99c.01-5.97-4.85-10.82-10.81-10.82zm.82 29.81c0 .44-.38.82-.82.82h-19c-.44 0-.82-.38-.82-.82v-18.99c0-.44.38-.82.82-.82h18.99c.44 0 .82.38.82.82v18.99zm-213.2-69.53c0 2.76-2.24 5-5 5H93.29c-2.76 0-5-2.24-5-5s2.24-5 5-5h80.82c2.77 0 5.01 2.24 5.01 5zm80.82-78.51c0 2.76-2.24 5-5 5H93.29c-2.76 0-5-2.24-5-5s2.24-5 5-5h161.65c2.76 0 5 2.23 5 5zM183.07 40.31c0-4.05 3.28-7.34 7.34-7.34 4.05 0 7.34 3.28 7.34 7.34s-3.28 7.34-7.34 7.34-7.34-3.28-7.34-7.34zm76.87 314.21c0 2.76-2.24 5-5 5H93.29c-2.76 0-5-2.24-5-5s2.24-5 5-5h161.65c2.76 0 5 2.24 5 5zm0-78.51c0 2.76-2.24 5-5 5H93.29c-2.76 0-5-2.24-5-5s2.24-5 5-5h161.65c2.76 0 5 2.24 5 5z" fill="#e6b740" opacity="1" data-original="#000000" class=""></path></g></svg>