<svg width="101" height="100" viewBox="0 0 101 100" fill="none" xmlns="http://www.w3.org/2000/svg">
<path d="M50.7198 71.4H53.075C53.1104 70.2365 53.2698 69.1031 53.5385 68.0135H50.7198V71.4Z" fill="#9FA5B2"/>
<path d="M50.7198 55.9177H56.3323V59.3042H50.7198V55.9177Z" fill="#9FA5B2"/>
<path d="M50.7198 49.8698H56.3323V53.2562H50.7198V49.8698Z" fill="#9FA5B2"/>
<path d="M56.3323 61.9656H50.7198V65.3521H54.4469C54.9719 64.0625 55.601 62.9333 56.3323 61.9656Z" fill="#9FA5B2"/>
<path d="M42.4448 68.0135H48.0573V71.399H42.4448V68.0135Z" fill="#9FA5B2"/>
<path d="M42.4448 61.9656H48.0573V65.3521H42.4448V61.9656Z" fill="#9FA5B2"/>
<path d="M61.3354 20.3583L65.3781 16.0156L81.6802 31.1729L77.6385 35.5156L61.3354 20.3583Z" fill="#9FA5B2"/>
<path d="M58.9948 59.3042H59.0625C60.4281 57.9313 62.3625 56.8469 64.6073 55.9177H58.9948V59.3042Z" fill="#9FA5B2"/>
<path d="M42.4448 37.775H64.6073V42.0094H42.4448V37.775Z" fill="#9FA5B2"/>
<path d="M58.9948 49.8698H64.6073V53.2562H58.9948V49.8698Z" fill="#9FA5B2"/>
<path d="M69.3344 55.6427C69.5969 55.6427 69.8583 55.65 70.1188 55.6625V34.3302C70.1188 33.3844 69.3479 32.6135 68.401 32.6135H38.651C37.7042 32.6135 36.9333 33.3844 36.9333 34.3302V74.8437C36.9333 75.7906 37.7042 76.5604 38.651 76.5604H53.749C53.5063 75.7521 53.325 74.9167 53.2115 74.0614H41.1135C40.3781 74.0614 39.7823 73.4656 39.7823 72.7302V48.5396C39.7823 47.8042 40.3781 47.2083 41.1135 47.2083H65.9385C66.674 47.2083 67.2698 47.8042 67.2698 48.5396V55.7729C67.9458 55.6875 68.6354 55.6427 69.3344 55.6427ZM65.9385 44.6708H41.1135C40.3781 44.6708 39.7823 44.075 39.7823 43.3406V36.4437C39.7823 35.7094 40.3781 35.1135 41.1135 35.1135H65.9385C66.674 35.1135 67.2698 35.7094 67.2698 36.4437V43.3406C67.2698 44.075 66.674 44.6708 65.9385 44.6708Z" fill="black"/>
<path d="M69.3344 58.3042C61.8333 58.3042 55.7302 64.4031 55.7302 71.901C55.7302 79.3979 61.8333 85.4979 69.3344 85.4979C76.8354 85.4979 82.9385 79.3979 82.9385 71.901C82.9385 64.4031 76.8354 58.3042 69.3344 58.3042ZM76.0469 66.6719C75.5302 67.1958 74.6865 67.201 74.1635 66.6844C74.1521 66.6729 72.7802 65.3719 70.6656 64.9438V70.8948C73.2188 71.674 75.9333 72.8323 75.9333 76.1125C75.9333 78.7854 73.6688 81.0229 70.6656 81.5417V82.1594C70.6656 82.8938 70.0698 83.4896 69.3344 83.4896C68.599 83.4896 68.0031 82.8938 68.0031 82.1594V81.5583C64.7854 81.0958 62.7313 79.1073 62.6344 79.0115C62.1115 78.4948 62.1052 77.6521 62.6219 77.1292C63.1375 76.6083 63.9771 76.601 64.501 77.1125C64.5365 77.1469 65.9042 78.4323 68.0031 78.8583V72.8854C65.4542 72.1083 62.7354 70.9573 62.7354 67.6896C62.7354 65.0167 65 62.7792 68.0031 62.2604V61.6427C68.0031 60.9083 68.599 60.3125 69.3344 60.3125C70.0698 60.3125 70.6656 60.9083 70.6656 61.6427V62.2438C73.8833 62.7063 75.9375 64.6948 76.0344 64.7906C76.5573 65.3073 76.5635 66.149 76.0469 66.6719Z" fill="url(#paint0_linear_148_1019)"/>
<path d="M70.6656 78.8167C72.1677 78.4073 73.2708 77.3344 73.2708 76.1125C73.2708 74.9167 72.426 74.3083 70.6656 73.6969V78.8167Z" fill="#9FA5B2"/>
<path d="M65.3979 67.6896C65.3979 68.8719 66.2427 69.474 68.0031 70.0833V64.9854C66.501 65.3948 65.3979 66.4677 65.3979 67.6896Z" fill="#9FA5B2"/>
<mask id="mask0_148_1019" style="mask-type:luminance" maskUnits="userSpaceOnUse" x="12" y="16" width="45" height="73">
<path d="M12.1812 16.5333H56.5V88.9344H12.1812V16.5333Z" fill="white"/>
</mask>
<g mask="url(#mask0_148_1019)">
<path d="M38.651 79.2219C36.3844 79.2219 34.5135 77.4916 34.2927 75.2823H19.1052C18.3698 75.2823 17.774 74.6864 17.774 73.9521C17.774 73.2166 18.3698 72.6208 19.1052 72.6208H34.2708V63.0052H19.1052C18.3698 63.0052 17.774 62.4094 17.774 61.675C17.774 60.9396 18.3698 60.3437 19.1052 60.3437H34.2708V50.7281H19.1052C18.3698 50.7281 17.774 50.1323 17.774 49.3979C17.774 48.6625 18.3698 48.0666 19.1052 48.0666H34.2708V38.451H19.1052C18.3698 38.451 17.774 37.8552 17.774 37.1208C17.774 36.3864 18.3698 35.7906 19.1052 35.7906H34.2708V34.3302C34.2708 31.9166 36.2354 29.9521 38.651 29.9521H56.3323V16.7094H12.2281V88.9385H56.3323V81.6604C55.7573 80.8969 55.2479 80.0812 54.8125 79.2219H38.651ZM19.1052 23.5135H49.4542C50.1896 23.5135 50.7865 24.1094 50.7865 24.8437C50.7865 25.5791 50.1896 26.175 49.4542 26.175H19.1052C18.3698 26.175 17.774 25.5791 17.774 24.8437C17.774 24.1094 18.3698 23.5135 19.1052 23.5135Z" fill="black"/>
</g>
<path d="M86.7375 35.874L89.2313 32.9302C90.5385 31.5271 90.4594 29.3219 89.0531 28.0136L81.4573 20.9521C80.9188 20.4521 80.076 20.4823 79.576 21.0208C79.075 21.5583 79.1052 22.4011 79.6438 22.9011L87.2396 29.9615C87.5698 30.2698 87.5885 30.7875 87.2813 31.1177L84.7885 34.0615L83.6292 32.9844L79.5875 37.3271L84.4625 41.8604C85.0438 42.4 85.8031 42.6813 86.5917 42.6521C87.3833 42.624 88.1167 42.2886 88.6573 41.7083C89.1969 41.1281 89.4781 40.3729 89.45 39.5813C89.4208 38.7896 89.0854 38.0563 88.5052 37.5167L86.7375 35.874Z" fill="black"/>
<path d="M42.4448 55.9177H48.0573V59.3042H42.4448V55.9177Z" fill="#9FA5B2"/>
<path d="M42.4448 49.8698H48.0573V53.2562H42.4448V49.8698Z" fill="#9FA5B2"/>
<mask id="mask1_148_1019" style="mask-type:luminance" maskUnits="userSpaceOnUse" x="57" y="12" width="7" height="7">
<path d="M57.3 12.7344H63.1667V18.1333H57.3V12.7344Z" fill="white"/>
</mask>
<g mask="url(#mask1_148_1019)">
<path d="M62.9604 14.7042L57.4906 12.7344L59.851 18.0448L62.9604 14.7042Z" fill="black"/>
</g>
<defs>
<linearGradient id="paint0_linear_148_1019" x1="69.3344" y1="58.3042" x2="69.3344" y2="85.4979" gradientUnits="userSpaceOnUse">
<stop stop-color="#39393A"/>
<stop offset="1" stop-color="#29246B" stop-opacity="0"/>
</linearGradient>
</defs>
</svg>
