<svg width="30" height="42" viewBox="0 0 30 42" fill="none" xmlns="http://www.w3.org/2000/svg">
<path d="M15 0.333427C6.71569 0.333427 0 6.50188 0 14.1111C0 16.5584 0.7155 18.8472 1.9335 20.8381C2.13581 21.1688 2.34788 21.4943 2.57812 21.8077L15 41.6666L27.4219 21.8077C27.6131 21.5477 27.7781 21.2721 27.9487 21L28.0669 20.8381C29.2838 18.8472 30 16.5584 30 14.1111C30 6.50188 23.2838 0.333427 15 0.333427ZM15 7.22228C19.1419 7.22228 22.5 10.3066 22.5 14.1111C22.5 17.9155 19.1419 21 15 21C10.8579 21 7.5 17.9155 7.5 14.1111C7.5 10.3066 10.8579 7.22228 15 7.22228Z" fill="#9FA5B2"/>
<path d="M15 5.50006C9.82237 5.50006 5.625 9.35541 5.625 14.1111C5.625 18.8662 9.82237 22.7222 15 22.7222C20.1769 22.7222 24.375 18.8662 24.375 14.1111C24.375 9.35541 20.1769 5.50006 15 5.50006ZM15 8.94449C18.1069 8.94449 20.625 11.2576 20.625 14.1111C20.625 16.9647 18.1069 19.2778 15 19.2778C11.8931 19.2778 9.375 16.9647 9.375 14.1111C9.375 11.2576 11.8931 8.94449 15 8.94449Z" fill="#F7F4ED"/>
</svg>
