<svg width="101" height="100" viewBox="0 0 101 100" fill="none" xmlns="http://www.w3.org/2000/svg">
<path d="M59.9854 42.0781C58.6573 41.401 54.4458 44.1479 55.0562 46.9313C55.6656 49.7146 59.2344 48.4448 59.2344 48.4448L61.424 50.6281L61.0667 51.274L61.4531 51.6667L61.976 51.1885L62.6573 51.8052L62.3573 52.2844L62.7437 52.676L63.1542 52.2719L63.8177 52.8323L63.5562 53.1635L65.2677 54.751L66.9917 54.7823L66.801 53.0208C66.801 53.0208 60.6896 47.1948 60.7458 47.1406C60.8021 47.0854 61.3146 42.7542 59.9854 42.0781ZM58.9312 45.5073C58.9177 45.5573 58.899 45.6063 58.8771 45.6521C58.8417 45.7365 58.801 45.8167 58.7552 45.8948L58.7833 45.8417C58.724 45.9552 58.6469 46.0552 58.5521 46.1417C58.5479 46.1458 58.5437 46.15 58.5396 46.1531C58.4698 46.2115 58.3958 46.2635 58.3177 46.3083C58.2333 46.3521 58.1448 46.3865 58.0531 46.4104C57.8708 46.4563 57.6885 46.4552 57.5062 46.4083C57.3802 46.3833 57.2646 46.3333 57.1594 46.2583L57.1729 46.2677L57.1542 46.2542C57.1219 46.2323 57.0885 46.2083 57.0562 46.1844C57.0437 46.176 57.0312 46.1677 57.0208 46.1594C57.0062 46.149 56.9927 46.1385 56.9781 46.1292L57.0052 46.1479C56.9094 46.075 56.8271 45.9875 56.7583 45.8885C56.6958 45.7979 56.6469 45.7021 56.6125 45.5979C56.6104 45.5938 56.6083 45.5896 56.6073 45.5844C56.5948 45.5469 56.5542 45.3448 56.5469 45.3042C56.5458 45.2958 56.5448 45.2885 56.5437 45.2802C56.5437 45.275 56.5437 45.2708 56.5427 45.2656C56.5406 45.2302 56.5458 45.0208 56.55 44.9833C56.5521 44.974 56.5531 44.9635 56.5552 44.9542C56.5635 44.9052 56.5844 44.8458 56.5948 44.8073C56.6031 44.7771 56.6198 44.7115 56.6354 44.6656C56.6375 44.6583 56.6396 44.651 56.6427 44.6427C56.6458 44.6354 56.6479 44.6302 56.651 44.624C56.6719 44.5802 56.7104 44.5198 56.725 44.4948C56.7385 44.4708 56.7719 44.4073 56.7979 44.3667C56.8083 44.3521 56.8187 44.3385 56.8312 44.326C56.8969 44.249 56.9687 44.1781 57.0458 44.1135C57.0875 44.0885 57.1302 44.0635 57.1719 44.0385C57.2115 44.0146 57.251 43.9917 57.2906 43.9688C57.2937 43.9677 57.2958 43.9656 57.299 43.9646C57.3469 43.9458 57.399 43.9354 57.4479 43.9219C57.5823 43.8729 57.7208 43.8583 57.8625 43.8781C58.0729 43.9 58.2635 43.9708 58.4354 44.0906C58.5385 44.1583 58.6271 44.2396 58.7031 44.3365C58.7302 44.3771 58.7573 44.4188 58.7833 44.4615L58.8573 44.576C58.8604 44.5802 58.8625 44.5844 58.8646 44.5896C58.8708 44.601 58.876 44.6125 58.8792 44.625C58.9594 44.8073 58.9958 44.9969 58.9865 45.1958C58.9812 45.3021 58.9635 45.4063 58.9312 45.5073Z" fill="#4C4E55"/>
<path d="M60.9833 40.1115C60.9208 39.4823 60.7865 38.8688 60.5781 38.2708C60.3823 37.6896 60.099 37.1552 59.7271 36.6677C59.3563 36.1802 58.9167 35.7646 58.4083 35.4208C56.3969 34.1063 53.699 34.1708 51.4708 34.824C50.2667 35.1635 49.1875 35.7375 48.2333 36.5448C47.776 36.9396 47.3771 37.3865 47.0365 37.8854C46.6958 38.3844 46.426 38.9188 46.226 39.4885C46.0198 40.0615 45.9135 40.6521 45.9073 41.2604C45.901 41.8688 45.9938 42.4615 46.1865 43.0385C46.3875 43.6156 46.6823 44.1385 47.0719 44.6094C47.449 45.0906 47.9104 45.4698 48.4573 45.7438C48.7729 45.8896 49.101 45.9958 49.4427 46.0625C49.4688 46.0677 49.4938 46.0625 49.5167 46.049C49.7135 46.1021 49.9135 46.1438 50.1104 46.1802C50.9948 46.3365 51.8865 46.4167 52.7844 46.4208C53.6552 46.4396 54.5177 46.3688 55.3729 46.2094C55.9406 46.1031 56.4917 45.9417 57.026 45.726C57.575 45.4896 58.0958 45.2031 58.5896 44.8656C58.5927 44.8646 58.5927 44.8615 58.5958 44.8604C58.6104 44.851 58.626 44.8427 58.6406 44.8333C59.6167 44.225 60.4604 43.3073 60.8177 42.2C61.0188 41.5156 61.0729 40.8198 60.9833 40.1115ZM60.449 41.174C60.3813 42.3302 59.7688 43.3219 58.8792 44.0375C57.951 44.7844 56.801 45.1823 55.6531 45.4427C55.3531 45.5115 55.051 45.5708 54.749 45.626C54.65 45.6396 54.5865 45.6938 54.5573 45.7885C54.051 45.849 53.5427 45.8823 53.0333 45.8875C52.1979 45.8917 51.3667 45.8396 50.5385 45.7302C49.6948 45.625 48.8625 45.4219 48.1802 44.8906C47.549 44.399 47.1198 43.7031 46.7646 42.9917C46.4656 42.1302 46.4135 41.2552 46.6073 40.3646C46.7344 39.8063 46.9344 39.2771 47.2083 38.775C47.4833 38.274 47.8208 37.8188 48.2219 37.4115C49.0375 36.5948 49.9896 35.9948 51.0792 35.6115C52.1406 35.224 53.2375 35.0219 54.3677 35.0031C55.474 34.9604 56.5302 35.1698 57.5375 35.6292C58.0219 35.8646 58.4531 36.1729 58.8333 36.5531C59.2135 36.9344 59.5208 37.3667 59.7552 37.851C60.2698 38.899 60.5021 40.0073 60.449 41.174Z" fill="#5C7396"/>
<path d="M55.9906 44.0615C55.0948 42.8708 50.1042 43.4885 49.4271 46.2562C48.751 49.024 52.5146 49.45 52.5146 49.45L53.5208 52.374L52.9167 52.7969L53.0917 53.3187L53.7708 53.1198L54.1115 53.9729L53.6313 54.2719L53.8063 54.7927L54.3531 54.6104L54.7021 55.4052L54.3208 55.5875L55.1604 57.7656L56.6948 58.551L57.299 56.8854C57.299 56.8854 54.3708 48.9687 54.4458 48.9437C54.5208 48.9187 56.8865 45.2521 55.9906 44.0615ZM53.5344 46.6792C53.5 46.7177 53.4625 46.7531 53.4219 46.7854C53.3531 46.8448 53.2813 46.9 53.2063 46.95L53.2542 46.9146C53.151 46.9906 53.0385 47.0469 52.9146 47.0823C52.9094 47.0844 52.9042 47.0865 52.9 47.0875C52.8115 47.1094 52.7219 47.1229 52.6313 47.1292C52.5365 47.1312 52.4427 47.124 52.349 47.1052C52.1646 47.0656 52.0021 46.9844 51.8583 46.8625C51.7563 46.7844 51.674 46.6885 51.6135 46.576L51.6208 46.5896C51.6167 46.5823 51.6135 46.5771 51.6104 46.5698C51.5906 46.5354 51.5719 46.5 51.5521 46.4646C51.5448 46.451 51.5385 46.4375 51.5323 46.426C51.524 46.4104 51.5156 46.3958 51.5073 46.3802L51.5229 46.4094C51.4688 46.301 51.4333 46.1865 51.4156 46.0667C51.399 45.9594 51.3979 45.851 51.4115 45.7427C51.4115 45.7375 51.4125 45.7323 51.4135 45.7281C51.4188 45.6885 51.4708 45.4896 51.4823 45.45C51.4854 45.4417 51.4875 45.4344 51.4896 45.426C51.4917 45.4219 51.4938 45.4177 51.4958 45.4125C51.5094 45.3802 51.6073 45.1937 51.6271 45.1625C51.6323 45.1542 51.6375 45.1458 51.6438 45.1385C51.6729 45.0979 51.7177 45.0542 51.7448 45.024C51.7646 45.001 51.8083 44.949 51.8417 44.9146C51.8479 44.9094 51.8531 44.9031 51.8594 44.8979C51.8656 44.8927 51.8698 44.8885 51.875 44.8844C51.9125 44.8542 51.974 44.8167 51.9969 44.801C52.0208 44.7844 52.0792 44.7427 52.1198 44.7177C52.1354 44.7094 52.151 44.7021 52.1677 44.6958C52.2604 44.6552 52.3552 44.6229 52.4542 44.599C52.5021 44.5948 52.551 44.5906 52.6 44.5875C52.6458 44.5833 52.6917 44.5792 52.7375 44.5771C52.7406 44.5771 52.7438 44.5771 52.7469 44.5771C52.7979 44.5812 52.849 44.5948 52.9 44.6031C53.0427 44.6187 53.1729 44.6667 53.2917 44.7469C53.4708 44.8583 53.6104 45.0052 53.7125 45.1896C53.775 45.2948 53.8188 45.4073 53.8448 45.5271C53.8521 45.576 53.8573 45.625 53.8625 45.674L53.8781 45.8104C53.8781 45.8146 53.8792 45.8198 53.8792 45.825C53.8792 45.8385 53.8781 45.851 53.876 45.8635C53.8688 46.0625 53.8167 46.249 53.7208 46.4229C53.6698 46.5167 53.6083 46.6021 53.5344 46.6792Z" fill="#4C4E55"/>
<path d="M50.3833 23.8615C50.3833 23.8615 56.4875 28.4333 57.3708 29.2833C58.2531 30.1323 57.0667 30.8927 55.575 30.8229C54.0833 30.7542 52.2115 30.449 51.7406 29.4625C51.2698 28.475 50.3833 23.8615 50.3833 23.8615Z" fill="#4C4E55"/>
<path d="M33.75 23.5396C33.75 23.5396 37.6719 21.5333 39.2146 21.0312C40.7583 20.5302 43.6083 21.1604 44.2458 21.7229C44.8823 22.2865 44.3188 22.9198 44.3188 22.9198L33.75 23.5396Z" fill="#4C4E55"/>
<path d="M41.6219 25.2573C41.6219 25.2573 44.2771 28.3823 44.4187 28.9271C44.5604 29.4719 43.7375 31.2177 43.9 31.9854C43.9792 32.3583 44.4125 32.6729 44.8365 32.8979C44.8885 32.926 44.9437 32.9469 45 32.9625C45.0573 32.9781 45.1156 32.9875 45.175 32.9906C45.2344 32.9927 45.2927 32.9885 45.351 32.9781C45.4094 32.9677 45.4656 32.951 45.5198 32.9281C45.575 32.9042 45.626 32.875 45.674 32.8406C45.7219 32.8063 45.7656 32.7667 45.8042 32.7219C45.8437 32.6781 45.8771 32.6292 45.9052 32.5771C45.9333 32.525 45.9562 32.4708 45.9719 32.4135C46.2625 31.3688 47.3833 29.251 47.3594 28.5458C47.325 27.4969 44.4427 24.3823 44.4427 24.3823L41.6219 25.2573Z" fill="#4C4E55"/>
<path d="M43.7365 24.0542C43.7365 24.0542 46.7406 28.9052 47.7875 30.9344C48.8344 32.9646 50.0906 33.2781 50.8229 33.2719C51.5552 33.2656 51.9167 32.9562 51.9167 32.9562C51.9167 32.9562 48.7094 24.3427 46.7979 23.6125C44.8865 22.8833 43.7365 24.0542 43.7365 24.0542Z" fill="#4C4E55"/>
<path d="M27.7396 23.5625L25.4563 33.6552C25.4563 33.6552 27.674 36.3146 34.8938 39.5208C42.1125 42.7271 44.7406 41.676 46.824 40.7687C48.6094 39.9906 51.4635 38.7646 53.175 39.0906C53.2302 39.1021 53.2854 39.1073 53.3417 39.1062C53.3979 39.1052 53.4531 39.099 53.5083 39.0865C53.5625 39.0729 53.6156 39.0542 53.6656 39.0302C53.7167 39.0062 53.7646 38.976 53.8083 38.9417C53.8521 38.9073 53.8927 38.8677 53.9281 38.825C53.9635 38.7812 53.9938 38.7344 54.0198 38.6844C54.0448 38.6344 54.0646 38.5823 54.0792 38.5281C54.0927 38.4729 54.101 38.4177 54.1031 38.3615C54.1177 37.5312 53.8229 36.4115 52.3094 35.8458C49.7271 34.8802 47.5646 36.5417 44.351 35.9073C41.1365 35.2719 40.3635 32.2115 40.0313 29.6937C39.6979 27.175 44.1135 25.726 45.1271 25.5354C46.1417 25.3437 50.9531 32.7667 51.7979 33.5615C52.4052 34.1333 53.5167 34.8948 54.4427 34.9365C54.5042 34.9375 54.5646 34.9312 54.624 34.9177C54.6844 34.9052 54.7417 34.8844 54.7969 34.8573C54.8521 34.8302 54.9031 34.7969 54.95 34.7573C54.9969 34.7187 55.0385 34.674 55.075 34.624C55.1115 34.575 55.1417 34.5219 55.1646 34.4656C55.1885 34.4083 55.2052 34.35 55.2146 34.2896C55.224 34.2292 55.226 34.1677 55.2208 34.1062C55.2156 34.0458 55.2031 33.9865 55.1833 33.9281C54.4823 31.7792 52.2125 25.1312 50.476 23.401C48.3958 21.3292 46.1406 20.4979 44.0344 21.2042C41.9281 21.9115 34.8323 23.4427 32.3063 23.0906C29.7802 22.7385 28.1385 22.3896 28.1385 22.3896L27.7396 23.5625Z" fill="black"/>
<path d="M30.0271 21.425L26.6594 35.8781L22.4469 34.974L25.15 20.5542L30.0271 21.425Z" fill="#F7F4ED"/>
<path d="M22.6896 36.2365C22.6896 36.2365 26.2917 21.4552 25.9854 20.5906C25.6781 19.725 19.2437 17.8865 17.2948 17.5156C15.3448 17.1458 14.8115 17.8115 14.551 18.3948C14.2906 18.9781 10.4958 33.074 11.2625 33.9865C12.0281 34.9 16.325 35.626 17.249 35.6677C18.1729 35.7083 22.6896 36.2365 22.6896 36.2365Z" fill="url(#paint0_linear_148_988)"/>
<path d="M53.4719 38.124C52.6865 37.7792 51.8677 37.6573 51.0167 37.7563C50.799 37.775 50.5948 37.8365 50.4031 37.9406C50.2115 38.0448 50.05 38.1833 49.9167 38.3563C49.8167 38.4875 49.7312 38.626 49.6583 38.774C49.5521 38.9563 49.4823 39.1521 49.451 39.3615C49.4427 39.4167 49.45 39.4698 49.475 39.5198C49.499 39.5698 49.5365 39.6083 49.5854 39.6354C49.6365 39.6604 49.6896 39.6677 49.7458 39.6573C49.8021 39.6469 49.849 39.6198 49.8865 39.5771C50.0844 39.3 50.1635 38.9583 50.3833 38.6906C50.5094 38.5531 50.6573 38.4438 50.826 38.3646C50.9958 38.2865 51.1729 38.2427 51.3604 38.2344C52.0208 38.1688 52.6531 38.2729 53.2583 38.5458C53.5365 38.6688 53.751 38.2469 53.4719 38.124Z" fill="#4C4E55"/>
<path d="M54.8844 33.8135C54.7792 33.7531 54.6802 33.826 54.576 33.7885C54.501 33.7615 54.4479 33.6771 54.401 33.6167C54.2521 33.4271 54.1167 33.2292 53.9938 33.0229C53.9281 32.9115 53.8625 32.799 53.801 32.6844C53.774 32.6312 53.7469 32.5792 53.7208 32.525C53.6917 32.4812 53.6688 32.4333 53.6521 32.3833C53.6396 32.3062 53.7302 32.1854 53.774 32.1167C53.8302 32.0312 53.8896 31.9479 53.9521 31.8656C54.05 31.7323 54.1615 31.6104 54.2833 31.4979C54.3729 31.4167 54.275 31.2448 54.1615 31.3125C53.8979 31.4625 53.6583 31.6458 53.4458 31.8635C53.3125 31.9792 53.2177 32.1208 53.1615 32.2885C53.1375 32.45 53.1667 32.601 53.2479 32.7417C53.4479 33.1708 53.7 33.5667 54.0031 33.9302C54.1271 34.1125 54.2958 34.2302 54.5094 34.2844C54.6531 34.3146 54.7865 34.2896 54.9104 34.2115C54.9417 34.1865 54.9656 34.1562 54.9813 34.1198C54.9979 34.0833 55.0042 34.0458 55.0021 34.0052C55 33.9656 54.9875 33.9292 54.9667 33.8958C54.9458 33.8615 54.9188 33.8344 54.8844 33.8135Z" fill="#4C4E55"/>
<path d="M47.3167 29.3302C47.2615 29.149 47.1844 28.9771 47.0854 28.8156C47.001 28.6542 46.924 28.4896 46.8417 28.3271C46.6948 28.0406 46.5542 27.75 46.4052 27.4646C46.0552 26.7969 45.4604 26.275 44.9 25.7854C44.7802 25.6802 44.5969 25.8865 44.7125 25.9969C44.95 26.2104 45.175 26.4365 45.3875 26.675C45.5052 26.8094 45.6115 26.9531 45.7042 27.1063C45.8104 27.2896 45.8885 27.4948 45.9823 27.6854C46.1271 27.9802 46.2594 28.2802 46.4104 28.5708C46.4958 28.7344 46.5885 28.8938 46.6781 29.0552C46.7625 29.2313 46.8719 29.3906 47.0063 29.5333C47.1552 29.6729 47.3563 29.5052 47.3167 29.3302Z" fill="black"/>
<mask id="mask0_148_988" style="mask-type:luminance" maskUnits="userSpaceOnUse" x="11" y="17" width="14" height="20">
<path d="M11.1667 17.1521H24.7667V36.2667H11.1667V17.1521Z" fill="white"/>
</mask>
<g mask="url(#mask0_148_988)">
<path d="M24.2094 19.9146C24.0344 20.4281 23.924 20.9698 23.7896 21.4958C23.6656 21.9781 23.5448 22.4604 23.425 22.9438C23.3323 23.3208 23.2406 23.7 23.15 24.0792C23.1167 24.0396 23.074 24.0156 23.0229 24.0073C21.9958 23.8583 20.9677 23.7302 19.9396 23.5917C20.0771 23.175 20.2146 22.7573 20.3521 22.3406C20.5521 21.7365 20.7625 21.1344 20.9656 20.5302C21.1917 19.9271 21.3802 19.3115 21.5313 18.6854C21.5635 18.5302 21.3406 18.425 21.2615 18.5781C21.0125 19.1031 20.7948 19.6406 20.6094 20.1906C20.4146 20.7115 20.2333 21.2396 20.05 21.7646C19.8448 22.35 19.6427 22.9365 19.4427 23.524C19.4094 23.5187 19.376 23.5146 19.3417 23.5104C18.1219 23.3385 16.9052 23.1437 15.6906 22.9396C15.8323 22.4094 15.976 21.8781 16.1219 21.3479C16.4844 20.0198 16.8469 18.6885 17.1719 17.35C17.2052 17.2156 16.9844 17.1531 16.9365 17.2844C16.5198 18.4406 16.1896 19.6271 15.8292 20.8021C15.6198 21.4854 15.4229 22.1729 15.2323 22.8625C15.0031 22.824 14.774 22.7844 14.5448 22.7458C14.1635 22.6802 13.7615 22.5635 13.3729 22.5896C13.2917 22.5979 13.2427 22.6427 13.2271 22.7219C13.2115 22.8021 13.2396 22.8615 13.3115 22.9C13.6281 23.0219 13.9552 23.1031 14.2917 23.1438C14.5656 23.1969 14.8385 23.2479 15.1115 23.2979C15.0365 23.576 14.9625 23.8552 14.8885 24.1344C14.5938 25.2552 14.3167 26.3802 14.0677 27.5125C13.9979 27.8302 13.9323 28.149 13.8688 28.4677C13.3552 28.3979 12.8406 28.3531 12.324 28.3344C12.1042 28.3292 12.0802 28.6771 12.2927 28.7156C12.7833 28.8052 13.2813 28.8625 13.7771 28.926C13.6573 29.5354 13.5417 30.1438 13.4188 30.7521C13.2969 31.3594 13.1656 31.9656 13.0146 32.5667C13.0063 32.5958 12.999 32.625 12.9906 32.6542C12.8531 32.6312 12.7156 32.6094 12.576 32.5865C12.1938 32.5083 11.8073 32.4604 11.4177 32.4427C11.3719 32.4417 11.3302 32.4563 11.2948 32.4854C11.2594 32.5146 11.2375 32.5521 11.2292 32.5979C11.2208 32.6427 11.2292 32.6854 11.2521 32.725C11.275 32.7656 11.3083 32.7927 11.3521 32.8083C11.6917 32.9146 12.0385 32.9896 12.3917 33.0333C12.55 33.0625 12.7083 33.0896 12.8677 33.1167C12.8365 33.2281 12.8063 33.3385 12.774 33.4479C12.6823 33.7625 12.5635 34.0719 12.4885 34.3906C12.4323 34.6271 12.7813 34.8292 12.9042 34.5813C13.0302 34.3062 13.1313 34.0219 13.2094 33.7292C13.2615 33.5552 13.3115 33.3792 13.3594 33.2031C13.9948 33.3135 14.6281 33.4292 15.2635 33.5396C15.625 33.6021 15.9875 33.6646 16.349 33.7281C16.2375 34.0271 16.1146 34.3219 15.975 34.6125C15.8271 34.9188 16.2969 35.175 16.4375 34.8667C16.5948 34.5208 16.7365 34.1708 16.8667 33.8177C17.6188 33.9479 18.3698 34.0792 19.1198 34.2094C19.8604 34.3375 20.6031 34.4615 21.349 34.5573C21.3583 34.5583 21.3688 34.5583 21.3792 34.5583C21.3083 34.9625 21.1823 35.349 21.0021 35.7167C20.974 35.7677 20.9656 35.8219 20.9781 35.8781C20.9896 35.9354 21.0188 35.9813 21.0646 36.0167C21.1271 36.0625 21.3323 36.1073 21.3719 35.9969C21.4365 35.7729 21.4885 35.5448 21.5281 35.3146C21.5635 35.1594 21.599 35.0042 21.6385 34.85C21.7042 34.5896 21.776 34.3292 21.8396 34.0677C21.9729 33.5208 22.0656 32.9667 22.1646 32.4135C22.2531 31.9115 22.3094 31.4031 22.3833 30.899C22.4594 30.3823 22.5365 29.8656 22.6219 29.351C22.9563 27.3385 23.3771 25.3438 23.8448 23.3594C23.9729 22.8167 24.1021 22.275 24.2323 21.7344C24.3063 21.424 24.3823 21.1135 24.4583 20.8042C24.5219 20.5469 24.5979 20.2833 24.6354 20.0208C24.6469 19.9635 24.6375 19.9094 24.6063 19.8594C24.575 19.8104 24.5302 19.7781 24.4729 19.7635C24.4167 19.75 24.3625 19.7573 24.3115 19.7865C24.2604 19.8156 24.226 19.8583 24.2094 19.9146ZM14.4458 28.099C14.7708 26.5156 15.1604 24.9458 15.574 23.3823C16.1 23.4771 16.626 23.5687 17.1521 23.6573C17.8615 23.7771 18.5729 23.8906 19.2844 23.999C19.176 24.3208 19.0667 24.6427 18.9615 24.9646C18.5135 26.3313 18.0896 27.7063 17.6885 29.0875C16.6771 28.8833 15.6594 28.7073 14.6365 28.5698L14.3594 28.5323C14.3875 28.3885 14.4156 28.2437 14.4458 28.099ZM16.5281 33.2167C15.5438 33.0615 14.5583 32.9094 13.576 32.7479L13.4823 32.7333C13.599 32.2708 13.7063 31.8073 13.8042 31.3406C13.9677 30.5604 14.1146 29.776 14.2667 28.9937L14.2906 28.9969C14.9167 29.0906 15.5417 29.1917 16.1646 29.3052C16.6271 29.3896 17.0885 29.4812 17.5479 29.5771C17.3927 30.125 17.2427 30.674 17.0969 31.225C16.9198 31.8948 16.7448 32.5625 16.5281 33.2167ZM21.751 31.7C21.6781 32.2896 21.6208 32.8802 21.5438 33.4677C21.5167 33.6677 21.4917 33.8687 21.4625 34.0698C21.4573 34.0677 21.4531 34.0656 21.4469 34.0646C19.9885 33.775 18.5198 33.5333 17.05 33.3C17.2188 32.7958 17.3677 32.2854 17.5042 31.7687C17.6885 31.074 17.8729 30.3792 18.0646 29.6865C18.6667 29.8187 19.2667 29.9604 19.8635 30.1135C20.2052 30.201 20.5458 30.2917 20.8854 30.3854C21.0427 30.4292 21.199 30.475 21.3573 30.5135C21.5375 30.5385 21.7177 30.551 21.8979 30.5521C21.8469 30.9344 21.7979 31.3167 21.751 31.7ZM22.7448 25.851C22.5333 26.8198 22.3385 27.7927 22.1677 28.7698C22.0823 29.2604 22.0083 29.7531 21.9396 30.2469C21.9188 30.2354 21.899 30.2219 21.8802 30.2073C21.8188 30.1583 21.7531 30.1156 21.6844 30.0781C21.5156 30.0031 21.3417 29.9469 21.1604 29.9104C20.8583 29.8271 20.5563 29.7479 20.2521 29.6708C19.6229 29.5115 18.9906 29.3656 18.3563 29.2271C18.3052 29.2167 18.2531 29.2063 18.2031 29.1958C18.2542 29.0146 18.3052 28.8344 18.3573 28.6531C18.8021 27.1177 19.2865 25.5938 19.7823 24.074C20.1469 24.1281 20.5125 24.1844 20.8771 24.2365C21.5552 24.3333 22.2323 24.4281 22.9135 24.4958C22.9625 24.501 23.0094 24.4958 23.0563 24.4802C22.949 24.9365 22.8448 25.3927 22.7448 25.851Z" fill="#484A50"/>
</g>
<path d="M75.4021 64.0094L76 62.1156C76 62.1156 85.9656 63.6104 87.1333 64.8375C88.3 66.0635 87.6719 70.7281 87.1333 72.6125C86.5938 74.4969 84.9781 81.1354 83.7219 81.9438C82.4646 82.751 77.2573 81.3156 76.1802 81.1354C75.1031 80.9563 71.1531 79.0719 71.1531 79.0719L75.4021 64.0094Z" fill="#4C4E55"/>
<path d="M39.9885 57.8115C39.9885 57.8115 37.874 55.6583 37.7542 54.8208C37.6344 53.9833 39.5094 53.624 40.9063 54.5417C42.3031 55.4583 43.9792 57.2927 45.1365 57.8115C46.2937 58.3292 53.7052 61.2802 53.7052 61.2802C53.7052 61.2802 53.5958 65.0292 49.8844 64.8292C46.174 64.6302 39.9885 57.8115 39.9885 57.8115Z" fill="#4C4E55"/>
<path d="M43.825 56.8177C43.825 56.8177 42.4677 54.1219 42.6094 53.2885C42.751 52.4552 44.6469 52.6833 45.6969 53.9833C46.7469 55.2823 47.7833 57.5396 48.7271 58.3854C49.6708 59.2323 55.8292 64.301 55.8292 64.301C55.8292 64.301 54.5813 67.8375 51.1083 66.5167C47.6344 65.1958 43.825 56.8177 43.825 56.8177Z" fill="#4C4E55"/>
<path d="M72.6479 63.6104C72.6479 63.6104 67.7219 60.3208 63.3167 60.4104C58.9115 60.5 56.4875 62.5635 53.7052 61.0385C50.9219 59.5135 45.974 59.3635 47.2906 60.6802C47.2906 60.6802 50.5625 63.1917 50.2031 63.1917C49.8427 63.1917 47.5094 65.2406 43.2906 59.9094C39.0719 54.5792 38.2635 55.5656 37.4542 55.5656C36.6458 55.5656 39.849 59.6031 41.525 64.3667C42.6938 67.6906 46.5219 71.625 50.7417 72.1625C54.9615 72.701 66.7229 70.6385 69.775 73.2406L72.6479 63.6104Z" fill="black"/>
<path d="M61.2802 65.8656C60.8688 65.9198 60.4563 65.9542 60.0406 65.9667C59.6052 65.9875 59.175 65.9667 58.7396 65.9552C56.6438 65.9073 54.6511 65.4302 52.7625 64.5219C51.9531 64.1208 51.1688 63.676 50.4104 63.1865C50.3802 63.1677 50.3469 63.1625 50.3125 63.1698C50.2771 63.1781 50.25 63.1969 50.2302 63.2271C50.1823 63.3021 50.226 63.351 50.2708 63.4062C50.4104 63.5604 50.5656 63.6958 50.7365 63.8146C50.9177 63.9573 51.1042 64.0927 51.2969 64.2198C51.6375 64.4437 51.9865 64.6542 52.3448 64.85C53.0063 65.2094 53.6938 65.5083 54.4083 65.7469C55.7656 66.2073 57.1604 66.4604 58.5927 66.5042C59.074 66.5083 59.5542 66.4844 60.0333 66.4323C60.4854 66.3927 60.924 66.3073 61.3698 66.224C61.6073 66.1802 61.5125 65.8302 61.2802 65.8656Z" fill="#4C4E55"/>
<path d="M49.8771 61.5271C49.8271 61.3594 49.7656 61.1958 49.6927 61.0365C49.6177 60.8292 49.5052 60.6448 49.3573 60.4813C49.1083 60.2365 48.7167 60.1865 48.3833 60.1771C48.2115 60.1729 48.0417 60.1844 47.8729 60.2115C47.6917 60.2385 47.4719 60.2729 47.3562 60.4281C47.3437 60.4469 47.3365 60.4677 47.3344 60.4896C47.3312 60.5115 47.3344 60.5323 47.3406 60.5531C47.3479 60.574 47.3594 60.5927 47.375 60.6083C47.3906 60.624 47.4094 60.6354 47.4302 60.6427C47.5906 60.7042 47.7844 60.6333 47.951 60.6219C48.1146 60.6094 48.2792 60.6125 48.4417 60.6333C48.6917 60.6656 48.9406 60.701 49.0917 60.9208C49.2312 61.1365 49.3427 61.3667 49.425 61.6104C49.524 61.8406 49.5344 62.076 49.4573 62.3146C49.4406 62.3729 49.4469 62.4292 49.476 62.4833C49.5052 62.5365 49.549 62.5719 49.6083 62.5896C49.6667 62.6073 49.7229 62.6021 49.7771 62.574C49.8302 62.5458 49.8667 62.5021 49.8854 62.4448C49.9833 62.1375 49.9802 61.8313 49.8771 61.5271Z" fill="#4C4E55"/>
<path d="M39.825 57.6354C39.726 57.451 39.6208 57.2698 39.5094 57.0937C39.4052 56.9052 39.2729 56.7385 39.1125 56.5937C38.7333 56.2865 38.226 56.376 37.8052 56.5302C37.6198 56.5969 37.7333 56.875 37.9135 56.8458C38.2656 56.7896 38.6781 56.724 38.9229 57.0396C39.1115 57.2958 39.2771 57.5656 39.4198 57.851C39.5823 58.1187 39.6823 58.4083 39.7188 58.7198C39.725 58.8333 39.7104 58.9437 39.675 59.051C39.6229 59.176 39.55 59.2875 39.4583 59.3865C39.425 59.4281 39.4104 59.476 39.4125 59.5302C39.4156 59.5833 39.4354 59.6292 39.4719 59.6687C39.5083 59.7073 39.5531 59.7302 39.6073 59.7365C39.6604 59.7417 39.7094 59.7302 39.7531 59.7C40.0698 59.5062 40.1917 59.0823 40.1823 58.7312C40.151 58.3375 40.0323 57.9719 39.825 57.6354Z" fill="#4C4E55"/>
<path d="M46.5302 59.7823C45.8104 58.7677 45.0865 57.7 44.0875 56.9375C44.0656 56.9208 44.0417 56.9135 44.0146 56.9146C43.9875 56.9156 43.9635 56.926 43.9438 56.9438C43.924 56.9625 43.9125 56.9854 43.9094 57.0125C43.9052 57.0396 43.9115 57.0635 43.926 57.0865C44.2427 57.6438 44.6615 58.124 45.05 58.6313C45.4094 59.101 45.7938 59.549 46.1458 60.025C46.3198 60.2583 46.701 60.0229 46.5302 59.7823Z" fill="black"/>
<path d="M73.5667 62.9729C73.5667 62.9729 73.3656 62.6135 72.6479 63.6104C71.9302 64.6073 68.5969 75.4135 68.6875 75.9719C68.7781 76.5302 69.8552 77.7667 71.6115 76.9292C73.3667 76.0917 75.4021 64.0094 75.4021 64.0094L73.5667 62.9729Z" fill="#E8EBEE"/>
<path d="M67.6177 37.1896C67.101 36.9 66.5531 36.5854 66.1917 36.1042C66.0302 35.8854 65.925 35.6427 65.876 35.374C65.8125 35.0604 65.7323 34.7281 65.4469 34.5396C65.4063 34.5104 65.3615 34.4927 65.3115 34.4865C65.2615 34.4813 65.2135 34.4875 65.1677 34.5073C65.1219 34.526 65.0823 34.5552 65.0521 34.5948C65.0208 34.6333 65.001 34.6781 64.9927 34.7271C64.9281 35.0146 64.8604 35.3125 64.7813 35.6104C64.5958 36.2292 64.3135 36.801 63.9344 37.326C63.5604 37.8208 63.1094 38.2313 62.5802 38.5563C62.5313 38.5885 62.4948 38.6313 62.4719 38.6854C62.4479 38.7396 62.4417 38.7948 62.451 38.8531C62.4604 38.9104 62.4854 38.9615 62.525 39.0042C62.5646 39.0479 62.6135 39.076 62.6698 39.0906C64.3167 39.4729 64.9208 41.2573 65.3521 42.6823C65.3698 42.7521 65.4094 42.8083 65.4688 42.85C65.5281 42.8906 65.5938 42.9083 65.6656 42.901C65.7375 42.8917 65.7979 42.8604 65.8469 42.8083C65.8958 42.7552 65.9229 42.6927 65.926 42.6208C66.1896 40.8677 66.5281 39.0146 67.7156 37.626C67.7427 37.5917 67.7615 37.5542 67.7708 37.5115C67.7813 37.4688 67.7813 37.4271 67.7719 37.3844C67.7615 37.3417 67.7438 37.3031 67.7167 37.2698C67.6896 37.2354 67.6563 37.2083 67.6177 37.1896Z" fill="#4C4E55"/>
<path d="M62.676 32.6563C62.451 32.549 62.2562 32.401 62.0927 32.2125C62.026 32.1229 61.9833 32.0229 61.9635 31.9135C61.9531 31.775 61.8948 31.6615 61.7875 31.5719C61.7708 31.5594 61.7531 31.5531 61.7323 31.55C61.7125 31.5479 61.6927 31.551 61.674 31.5583C61.6552 31.5667 61.6385 31.5781 61.626 31.5938C61.6135 31.6104 61.6052 31.6281 61.6021 31.6479C61.575 31.7656 61.5479 31.8875 61.5156 32.0104C61.4396 32.2635 61.324 32.4969 61.1687 32.7115C61.0156 32.9146 60.8312 33.0823 60.6146 33.2156C60.5698 33.2448 60.5531 33.2854 60.5615 33.3365C60.5698 33.3885 60.6 33.4219 60.651 33.4344C61.325 33.5906 61.5729 34.3208 61.749 34.9052C61.7562 34.9333 61.7719 34.9563 61.7969 34.9729C61.8208 34.9906 61.8479 34.9969 61.8771 34.9948C61.9062 34.9906 61.9312 34.9781 61.951 34.9563C61.9708 34.9344 61.9823 34.9094 61.9844 34.8802C62.0917 34.1625 62.2302 33.4042 62.7167 32.8354C62.7396 32.8063 62.7469 32.7729 62.7385 32.7365C62.7312 32.7 62.7094 32.6729 62.676 32.6563Z" fill="#4C4E55"/>
<path d="M80.5562 79.0865C80.5 78.724 80.3917 78.3896 80.0562 78.1938C79.6708 77.9677 79.1417 78.0188 78.7479 78.2C78.7187 78.2135 78.6896 78.2292 78.6604 78.2458C78.4542 78.325 78.2833 78.4521 78.149 78.6271C77.9354 78.9177 77.8187 79.2427 77.8 79.6021C77.7542 80.299 78.1573 81.3344 78.9969 81.3021C79.2177 81.2781 79.425 81.2125 79.6187 81.1031C79.775 81.0333 79.9208 80.9469 80.0562 80.8438C80.3312 80.6177 80.499 80.3292 80.5594 79.9792C80.6094 79.6813 80.6083 79.3844 80.5562 79.0865ZM79.8906 79.6969C79.8833 79.8792 79.8292 80.0458 79.726 80.1969C79.5885 80.3448 79.426 80.4563 79.2375 80.5292C79.1437 80.5865 79.0437 80.6229 78.9365 80.6406C78.875 80.6438 78.8208 80.624 78.776 80.5813C78.6271 80.4615 78.5208 80.3125 78.4573 80.1323C78.3792 79.9219 78.3552 79.7042 78.3844 79.4813C78.4531 79.475 78.5125 79.4469 78.5615 79.3979C78.6104 79.349 78.6375 79.2896 78.6448 79.2208C78.6865 78.7833 79.1979 78.6052 79.575 78.6969C79.7937 78.75 79.8417 78.9219 79.8677 79.1271C79.8958 79.3156 79.9031 79.5063 79.8906 79.6969Z" fill="#5C7396"/>
<defs>
<linearGradient id="paint0_linear_148_988" x1="18.5822" y1="17.4091" x2="25.5" y2="36" gradientUnits="userSpaceOnUse">
<stop stop-color="#35343F"/>
<stop offset="1" stop-color="#29246B" stop-opacity="0"/>
</linearGradient>
</defs>
</svg>
