<svg width="45" height="46" viewBox="0 0 45 46" fill="none" xmlns="http://www.w3.org/2000/svg">
<path d="M42.3787 25.7845L40.3564 23.8062L23.3208 40.8198L25.3651 42.864C27.0796 44.5786 28.8601 45.4359 30.6186 45.4359C32.3771 45.4359 34.1576 44.5786 35.8722 42.864L42.3787 36.3575C45.8737 32.8405 45.8737 29.3015 42.3787 25.7845Z" fill="#0D0909"/>
<path d="M19.6295 3.03375C16.1783 -0.417336 12.5514 -0.417336 9.10031 3.03375L2.57183 9.54025C-0.857276 12.9913 -0.857276 16.6183 2.57183 20.0693L4.59412 22.0916L21.6298 5.05604L19.6295 3.03375Z" fill="#0D0909"/>
<path opacity="0.4" d="M44.0728 5.25432C41.1933 12.4422 34.6208 21.8283 28.3561 27.9611C27.4549 22.2899 22.9267 17.8497 17.2116 17.0583C23.3663 10.7717 32.8183 4.11128 40.0282 1.20974C41.3032 0.726145 42.5781 1.09983 43.3694 1.89116C44.2047 2.72645 44.6004 3.9794 44.0728 5.25432Z" fill="#383C43"/>
<path d="M28.3554 27.9611C27.2564 29.0382 26.1573 30.0274 25.1022 30.8627L20.7718 34.3357C20.2223 34.7314 19.6728 35.0611 19.0573 35.3249C19.0573 34.9072 19.0133 34.4896 18.9694 34.05C18.7276 32.2255 17.8923 30.489 16.4196 29.0162C14.9029 27.5215 13.1004 26.6642 11.232 26.4224C10.7923 26.3784 10.3307 26.3565 9.91309 26.3784C10.1549 25.697 10.5286 25.0596 10.9902 24.532L14.4193 20.2017C15.2326 19.1685 16.1778 18.1133 17.2109 17.0582C22.926 17.8496 27.4542 22.2899 28.3554 27.9611Z" fill="#0D0909"/>
<path opacity="0.4" d="M19.058 35.3242C19.058 37.7422 18.1348 40.0502 16.3762 41.7867C15.0353 43.1496 13.2329 44.0728 11.0347 44.3366L5.64924 44.9301C2.70373 45.2598 0.175861 42.7319 0.505583 39.7644L1.09908 34.357C1.62664 29.5431 5.64924 26.4657 9.91363 26.3778C10.3313 26.3558 10.7929 26.3778 11.2325 26.4217C13.1009 26.6635 14.9034 27.5208 16.4201 29.0155C17.8929 30.4883 18.7283 32.2248 18.9701 34.0493C19.014 34.4889 19.058 34.9066 19.058 35.3242Z" fill="#383C43"/>
</svg>
