<svg width="51" height="54" viewBox="0 0 51 54" fill="none" xmlns="http://www.w3.org/2000/svg">
<path d="M16.3143 35.8566C15.0621 34.4262 13.7664 32.9392 12.7403 30.7523C11.736 28.5957 11.1795 26.3696 11.1968 24.0566C11.2186 21.7435 11.8055 19.3609 13.0838 16.9001C13.0925 16.8827 13.1012 16.8696 13.1099 16.8522C14.7838 14.0174 17.1273 12.1218 19.736 11.0609C21.923 10.1652 24.3012 9.8609 26.6317 10.0739C28.9534 10.287 31.2273 11.0174 33.2143 12.1913C35.7404 13.687 37.8187 15.9044 38.9621 18.7044C39.5795 20.2218 39.9969 21.9131 40.0491 23.7653C40.1013 25.6131 39.7839 27.6044 38.9317 29.7088C37.6274 32.9392 34.5795 36.4001 32.5839 39.5784C32.4752 39.5566 32.3621 39.5523 32.2491 39.5697L29.5578 39.9697L33.6578 25.7088C33.7752 25.3044 33.536 24.8827 33.1317 24.7653C32.7273 24.6522 32.3056 24.887 32.1882 25.2914L27.8969 40.2219L23.8273 40.8262L19.5273 27.1566C19.836 27.2175 20.1621 27.0827 20.3317 26.7957L23.3795 21.6088L24.9317 25.1696C25.1012 25.5566 25.5491 25.7305 25.9317 25.5653C26.123 25.4827 26.2621 25.3262 26.336 25.1479L27.7099 21.6783L29.3186 25.9218C29.4665 26.3175 29.9056 26.5131 30.3013 26.3653C30.6969 26.2175 30.8926 25.7783 30.7447 25.3827L28.4534 19.3392C28.3882 19.1261 28.2273 18.9435 28.0056 18.8566C27.6143 18.7001 27.1708 18.8957 27.0143 19.287L25.5925 22.8827L24.1751 19.6305C24.1143 19.487 24.0056 19.3609 23.8621 19.2783C23.5012 19.0653 23.0317 19.187 22.823 19.5479L19.1186 25.8523L18.8534 25.0131C18.7273 24.6131 18.3012 24.387 17.9012 24.5131C17.5012 24.6392 17.2751 25.0653 17.4012 25.4653L22.3012 41.0523L19.3534 41.4914C18.6404 39.3827 17.5534 37.2784 16.3143 35.8566ZM6.70118 8.0435C6.35771 7.72176 6.1751 7.29133 6.1577 6.85654C6.14031 6.42176 6.29249 5.97828 6.60988 5.6348C6.93162 5.29132 7.36206 5.10871 7.79684 5.09132C8.23162 5.07393 8.6751 5.2261 9.01858 5.54349L11.749 8.08698C12.0925 8.40872 12.2751 8.83916 12.2925 9.27394C12.3099 9.71307 12.1577 10.1522 11.8403 10.4957C11.5186 10.8392 11.0882 11.0218 10.6534 11.0392C10.2142 11.0566 9.77511 10.9044 9.43163 10.587L6.70118 8.0435ZM2.23595 26.8131C1.77508 26.8218 1.35334 26.6436 1.0403 26.3523C0.722906 26.0522 0.518557 25.6349 0.501166 25.1609C0.483775 24.6914 0.662036 24.2566 0.962037 23.9392C1.26204 23.6218 1.67943 23.4175 2.15334 23.4044L5.87944 23.2783C6.34901 23.2609 6.78379 23.4392 7.10119 23.7392C7.41858 24.0392 7.62293 24.4566 7.63597 24.9305V24.9566H7.64032L7.63597 25.0175C7.62727 25.4566 7.45336 25.8523 7.1751 26.1523C6.8751 26.4696 6.45771 26.6696 5.98379 26.687H5.9577V26.6914H5.91857L2.23595 26.8131ZM48.6361 21.5305L48.6926 21.5262C49.1361 21.5001 49.5491 21.6435 49.8709 21.9044C50.21 22.1783 50.4404 22.587 50.4926 23.0522V23.0696C50.497 23.0696 50.497 23.1175 50.497 23.1262C50.5231 23.5696 50.3796 23.9827 50.1187 24.3044C49.8448 24.6436 49.4361 24.874 48.9709 24.9262L45.2622 25.3175C44.7926 25.3653 44.3491 25.2175 44.0143 24.9436C43.6752 24.6696 43.4404 24.2609 43.3926 23.7957C43.3448 23.3305 43.4926 22.8827 43.7665 22.5479C44.0404 22.2088 44.4491 21.974 44.9143 21.9262C46.1535 21.7914 47.397 21.6479 48.6361 21.5305ZM41.2882 6.68698C41.5535 6.29567 41.9448 6.05219 42.3709 5.96524C42.7969 5.88263 43.2535 5.96089 43.6491 6.22176L43.6535 6.22611C44.0448 6.48698 44.2926 6.88263 44.3752 7.30872C44.4578 7.73481 44.3796 8.19133 44.1187 8.58698L42.0448 11.687C41.7839 12.0783 41.3882 12.3261 40.9578 12.4131C40.5317 12.4957 40.0752 12.4174 39.6795 12.1566C39.2882 11.8957 39.0404 11.4957 38.9535 11.0696C38.8708 10.6435 38.9491 10.187 39.21 9.79133L41.2882 6.68698ZM25.1838 1.66957C25.1969 1.19566 25.3969 0.773915 25.7143 0.473914C26.023 0.178261 26.4491 0 26.9099 0.00434784V0C26.9491 0 26.9882 0.00434784 27.0273 0.00869568C27.4578 0.0434784 27.8447 0.239131 28.123 0.530436C28.4186 0.839133 28.5969 1.26087 28.5926 1.72609H28.5969C28.5969 1.75653 28.5969 1.78696 28.5926 1.81305L28.5013 5.45219H28.5056C28.5056 5.49132 28.5012 5.53045 28.4969 5.56958C28.4621 6.00437 28.2665 6.38698 27.9752 6.66524C27.6621 6.96089 27.2404 7.13915 26.7795 7.1348V7.13915C26.7404 7.13915 26.7012 7.1348 26.6621 7.13046C26.2273 7.09567 25.8447 6.90002 25.5665 6.60872C25.2708 6.29567 25.0925 5.87393 25.0969 5.41306H25.0925C25.0925 5.38262 25.0925 5.35219 25.0969 5.3261L25.1838 1.66957ZM31.5534 41.674L31.2795 42.9567L31.21 43.8697L20.1969 45.5088C20.1577 44.8523 20.0534 44.1436 19.8882 43.4088L31.5534 41.674ZM31.1882 45.8697L31.1969 46.4219L31.21 46.6132C31.2404 46.9741 31.2447 47.3393 31.223 47.7001L31.0578 48.4958L20.8273 50.0175L20.6491 49.6088L20.2491 47.9741L20.2404 47.5001L31.1882 45.8697ZM30.3839 50.5915C29.8534 51.5002 29.123 52.2089 28.2882 52.6915C27.5447 53.1262 26.7143 53.3741 25.8839 53.4263C25.0404 53.4784 24.1882 53.3176 23.4099 52.9436C22.8795 52.6828 22.3838 52.3219 21.9447 51.8523L30.3839 50.5915Z" fill="url(#paint0_linear_116_1457)"/>
<defs>
<linearGradient id="paint0_linear_116_1457" x1="25.5" y1="0" x2="53.5" y2="59" gradientUnits="userSpaceOnUse">
<stop/>
<stop offset="1" stop-color="#29282F" stop-opacity="0"/>
</linearGradient>
</defs>
</svg>
