<svg width="55" height="45" viewBox="0 0 55 45" fill="none" xmlns="http://www.w3.org/2000/svg">
<path d="M11.0008 8.68748C13.278 8.68748 15.1256 6.83991 15.1256 4.56267C15.1256 2.28544 13.278 0.437866 11.0008 0.437866C8.72354 0.437866 6.87597 2.28544 6.87597 4.56267C6.87597 6.83991 8.72354 8.68748 11.0008 8.68748ZM43.9992 8.68748C46.2765 8.68748 48.124 6.83991 48.124 4.56267C48.124 2.28544 46.2765 0.437866 43.9992 0.437866C41.722 0.437866 39.8744 2.28544 39.8744 4.56267C39.8744 6.83991 41.722 8.68748 43.9992 8.68748ZM54.8011 40.6633L51.02 31.2106L47.4881 35.198L47.3163 36.7619L49.6966 42.7085C50.1263 43.7827 51.1575 44.4358 52.2488 44.4358C52.5926 44.4358 52.9363 44.3757 53.2715 44.2382C54.6808 43.671 55.3682 42.0726 54.8011 40.6633ZM51.8621 22.6345L50.2724 15.7426C49.8771 14.0239 48.674 12.5803 47.0499 11.8842C45.4601 11.1967 43.6985 11.3085 42.229 12.1678C40.2783 13.3193 38.8174 15.1325 38.0956 17.2722L37.1246 20.1854L35.7496 21.0619V12.8123C35.7496 12.0561 35.1309 11.4374 34.3747 11.4374H20.6253C19.8691 11.4374 19.2504 12.0561 19.2504 12.8123V21.0619L17.8669 20.1854L16.8958 17.2722C16.1826 15.1239 14.7131 13.3193 12.7624 12.1678C11.2844 11.3085 9.53131 11.1967 7.94154 11.8842C6.3174 12.5803 5.11433 14.0239 4.71904 15.7426L3.13786 22.6345C2.74257 24.3532 3.19801 26.1749 4.3753 27.5069L10.15 34.0293L11.018 41.9867C11.1726 43.3874 12.3585 44.4358 13.7506 44.4358C13.8538 44.4358 13.9483 44.4272 14.0514 44.4186C15.5638 44.2553 16.6466 42.8976 16.4833 41.3852L15.6154 33.4105C15.4865 32.2934 15.0225 31.2536 14.2748 30.4029L10.5539 26.1921L12.0663 20.151L12.6507 21.904C13.003 22.9782 13.6733 23.9149 14.7561 24.7055L19.1473 27.4983C19.5426 27.7475 20.1871 27.8936 20.6253 27.928H34.3747C34.8129 27.8936 35.4574 27.7475 35.8527 27.4983L40.2439 24.7055C41.3267 23.9149 41.997 22.9868 42.3493 21.904L42.9337 20.151L44.4461 26.1921L40.7252 30.4029C39.9775 31.2536 39.5135 32.2934 39.3846 33.4105L38.5167 41.3852C38.3534 42.8976 39.4448 44.2553 40.9486 44.4186C41.0517 44.4272 41.1462 44.4358 41.2494 44.4358C42.6329 44.4358 43.8274 43.396 43.982 41.9867L44.85 34.0293L50.6247 27.5069C51.7934 26.1749 52.2574 24.3532 51.8621 22.6345ZM3.98001 31.2106L0.198934 40.6633C-0.368227 42.0726 0.319241 43.671 1.72855 44.2382C3.17223 44.8053 4.74482 44.0921 5.30338 42.7085L7.68374 36.7619L7.51187 35.198L3.98001 31.2106Z" fill="url(#paint0_linear_133_784)"/>
<defs>
<linearGradient id="paint0_linear_133_784" x1="27.5" y1="0.437866" x2="55" y2="50.5" gradientUnits="userSpaceOnUse">
<stop/>
<stop offset="1" stop-color="#383740" stop-opacity="0"/>
</linearGradient>
</defs>
</svg>
