<svg width="45" height="46" viewBox="0 0 45 46" fill="none" xmlns="http://www.w3.org/2000/svg">
<path d="M19.7261 6.43307L9.77318 1.51278C4.40355 -1.11587 0 1.55771 0 7.44409V40.7851C0 43.3464 2.13437 45.4358 4.74055 45.4358H21.4111C22.6468 45.4358 23.6578 44.4248 23.6578 43.1891V12.6565C23.6578 10.2974 21.8829 7.48902 19.7261 6.43307ZM15.727 26.9005H7.93088C7.00973 26.9005 6.24585 26.1366 6.24585 25.2154C6.24585 24.2943 7.00973 23.5304 7.93088 23.5304H15.727C16.6481 23.5304 17.412 24.2943 17.412 25.2154C17.412 26.1366 16.6706 26.9005 15.727 26.9005ZM15.727 17.9138H7.93088C7.00973 17.9138 6.24585 17.1499 6.24585 16.2287C6.24585 15.3076 7.00973 14.5437 7.93088 14.5437H15.727C16.6481 14.5437 17.412 15.3076 17.412 16.2287C17.412 17.1499 16.6706 17.9138 15.727 17.9138Z" fill="url(#paint0_linear_133_781)"/>
<path d="M45 36.5361V39.8163C45 42.9168 42.4837 45.4331 39.3833 45.4331H29.2057C27.9925 45.4331 27.0264 44.467 27.0264 43.2538V38.4009C29.4303 38.693 31.9691 37.9965 33.789 36.5361C35.3167 37.7718 37.2714 38.5132 39.4057 38.5132C41.4952 38.5132 43.4498 37.7718 45 36.5361Z" fill="#44474F"/>
<path d="M45 29.8217V29.8442C44.8203 32.7874 42.4163 35.1464 39.4057 35.1464C36.2828 35.1464 33.789 32.6077 33.789 29.5297C33.789 32.9671 30.6211 35.7306 27.0264 35.0341V22.9693C27.0264 21.5314 28.3519 20.453 29.7674 20.7675L33.789 21.6662L34.8674 21.9133L39.4507 22.9468C40.5516 23.1715 41.5626 23.5534 42.4388 24.1151C42.4388 24.1376 42.4613 24.1376 42.4613 24.1376C42.6859 24.2948 42.9106 24.4746 43.1128 24.6768C44.1463 25.7103 44.8203 27.2156 44.9776 29.4173C44.9776 29.5521 45 29.6869 45 29.8217Z" fill="black"/>
<defs>
<linearGradient id="paint0_linear_133_781" x1="11.8289" y1="0.500977" x2="24" y2="72.5" gradientUnits="userSpaceOnUse">
<stop/>
<stop offset="1" stop-color="#2B2A38" stop-opacity="0"/>
</linearGradient>
</defs>
</svg>
