<svg xmlns="http://www.w3.org/2000/svg" version="1.1" xmlns:xlink="http://www.w3.org/1999/xlink" width="512" height="512" x="0" y="0" viewBox="0 0 511.998 511.998" style="enable-background:new 0 0 512 512" xml:space="preserve" class=""><g><path d="m365.013 407.545-8.2-8.2c-13.669-13.669-35.831-13.669-49.5 0l-37.172 37.172a20 20 0 0 1-14.142 5.858M54.093 457.905v-31.062" style="stroke-width:15;stroke-linecap:round;stroke-linejoin:round;stroke-miterlimit:10;" fill="none" stroke="#e6b740" stroke-width="15" stroke-linecap="round" stroke-linejoin="round" stroke-miterlimit="10" data-original="#000000" opacity="1" class=""></path><path d="m171.099 337.13-12.943 12.943a49.999 49.999 0 0 1-35.355 14.645h-6.583c-17.965 0-34.149 7.625-45.491 19.816-6.565 7.055-15.636 11.247-25.273 11.247H7.5v93.188l327.505-.003a35.003 35.003 0 0 0 24.749-10.251l71.169-71.169-8.2-8.2c-13.67-13.67-35.83-13.67-49.49 0l-38.647 38.638a15.001 15.001 0 0 1-10.605 4.392h-89.576c-13.807 0-25-11.193-25-25v-9.982a49.997 49.997 0 0 1 14.645-35.355l9.317-9.318c15.621-15.621 15.621-40.948 0-56.569l-15.645-15.645-21.197 21.197M221.948 197.319l21.965-21.964M323.658 233.135l-20.514-20.514m-30.5-55.705c-1.602-13.331-7.519-26.242-17.749-36.473-24.476-24.476-64.293-24.259-88.497.649-23.142 23.815-23.3 62.213-.342 86.206 14.464 15.117 34.626 21.306 53.756 18.57 4.746-.679 9.542.821 12.932 4.211l11.169 11.169h21.964v21.965h21.964v21.964h21.965v21.965l10.982 10.982h43.929v-43.929l-16.346-16.346m-137.405-93.477c-6.065 6.065-15.899 6.065-21.965 0-6.065-6.065-6.065-15.899 0-21.965 6.065-6.065 15.899-6.065 21.965 0 6.065 6.066 6.065 15.9 0 21.965z" style="stroke-width:15;stroke-linecap:round;stroke-linejoin:round;stroke-miterlimit:10;" fill="none" stroke="#e6b740" stroke-width="15" stroke-linecap="round" stroke-linejoin="round" stroke-miterlimit="10" data-original="#000000" opacity="1" class=""></path><path d="m111.272 74.255-30.198 30.198 8.2 8.2c13.67 13.67 35.83 13.67 49.49 0l38.647-38.638a15.001 15.001 0 0 1 10.605-4.392h89.576c13.807 0 25 11.193 25 25v9.982a49.997 49.997 0 0 1-14.645 35.355l-9.317 9.317c-15.621 15.621-15.621 40.948 0 56.569l15.645 15.645 59.566-59.566a50 50 0 0 1 35.355-14.645h6.583c17.965 0 34.149-7.625 45.491-19.816 6.565-7.055 15.636-11.247 25.273-11.247h37.954V23.03l-327.505.003a35.003 35.003 0 0 0-24.749 10.251l-16.02 16.02M457.905 54.093v31.062" style="stroke-width:15;stroke-linecap:round;stroke-linejoin:round;stroke-miterlimit:10;" fill="none" stroke="#e6b740" stroke-width="15" stroke-linecap="round" stroke-linejoin="round" stroke-miterlimit="10" data-original="#000000" opacity="1" class=""></path><path d="m146.985 104.453 8.2 8.2a34.88 34.88 0 0 0 11.848 7.796M214.962 102.375l26.895-26.895a20 20 0 0 1 14.142-5.858" style="stroke-width:15;stroke-linecap:round;stroke-linejoin:round;stroke-miterlimit:10;" fill="none" stroke="#e6b740" stroke-width="15" stroke-linecap="round" stroke-linejoin="round" stroke-miterlimit="10" data-original="#000000" opacity="1" class=""></path></g></svg>