<?xml version="1.0" encoding="UTF-8"?>
<svg xmlns="http://www.w3.org/2000/svg" xmlns:xlink="http://www.w3.org/1999/xlink" version="1.1" id="Capa_1" x="0px" y="0px" viewBox="0 0 511.998 511.998" style="enable-background:new 0 0 511.998 511.998;" xml:space="preserve" width="512" height="512">
<g>
	<path style="fill:none;stroke:#000000;stroke-width:15;stroke-linecap:round;stroke-linejoin:round;stroke-miterlimit:10;" d="&#10;&#9;&#9;M365.013,407.545l-8.2-8.2c-13.669-13.669-35.831-13.669-49.5,0l-37.172,37.172c-3.751,3.751-8.838,5.858-14.142,5.858"/>
	
		<line style="fill:none;stroke:#000000;stroke-width:15;stroke-linecap:round;stroke-linejoin:round;stroke-miterlimit:10;" x1="54.093" y1="457.905" x2="54.093" y2="426.843"/>
	<path style="fill:none;stroke:#000000;stroke-width:15;stroke-linecap:round;stroke-linejoin:round;stroke-miterlimit:10;" d="&#10;&#9;&#9;M171.099,337.13l-12.943,12.943c-9.377,9.377-22.094,14.645-35.355,14.645h-6.583c-17.965,0-34.149,7.625-45.491,19.816&#10;&#9;&#9;c-6.565,7.055-15.636,11.247-25.273,11.247H7.5v93.188l327.505-0.003c9.283,0,18.185-3.688,24.749-10.251l71.169-71.169l-8.2-8.2&#10;&#9;&#9;c-13.67-13.67-35.83-13.67-49.49,0l-38.647,38.638c-2.813,2.812-6.628,4.392-10.605,4.392h-89.576c-13.807,0-25-11.193-25-25&#10;&#9;&#9;v-9.982c0-13.261,5.268-25.979,14.645-35.355l9.317-9.318c15.621-15.621,15.621-40.948,0-56.569l-15.645-15.645l-21.197,21.197"/>
	
		<line style="fill:none;stroke:#000000;stroke-width:15;stroke-linecap:round;stroke-linejoin:round;stroke-miterlimit:10;" x1="221.948" y1="197.319" x2="243.913" y2="175.355"/>
	<path style="fill:none;stroke:#000000;stroke-width:15;stroke-linecap:round;stroke-linejoin:round;stroke-miterlimit:10;" d="&#10;&#9;&#9;M323.658,233.135l-20.514-20.514 M272.644,156.916c-1.602-13.331-7.519-26.242-17.749-36.473&#10;&#9;&#9;c-24.476-24.476-64.293-24.259-88.497,0.649c-23.142,23.815-23.3,62.213-0.342,86.206c14.464,15.117,34.626,21.306,53.756,18.57&#10;&#9;&#9;c4.746-0.679,9.542,0.821,12.932,4.211l11.169,11.169h21.964v21.965h21.964v21.964h21.965v21.965l10.982,10.982h43.929v-43.929&#10;&#9;&#9;l-16.346-16.346 M210.966,164.372c-6.065,6.065-15.899,6.065-21.965,0c-6.065-6.065-6.065-15.899,0-21.965&#10;&#9;&#9;c6.065-6.065,15.899-6.065,21.965,0C217.031,148.473,217.031,158.307,210.966,164.372z"/>
	<path style="fill:none;stroke:#000000;stroke-width:15;stroke-linecap:round;stroke-linejoin:round;stroke-miterlimit:10;" d="&#10;&#9;&#9;M111.272,74.255l-30.198,30.198l8.2,8.2c13.67,13.67,35.83,13.67,49.49,0l38.647-38.638c2.813-2.812,6.628-4.392,10.605-4.392&#10;&#9;&#9;h89.576c13.807,0,25,11.193,25,25v9.982c0,13.261-5.268,25.979-14.645,35.355l-9.317,9.317c-15.621,15.621-15.621,40.948,0,56.569&#10;&#9;&#9;l15.645,15.645l59.566-59.566c9.377-9.377,22.095-14.645,35.355-14.645h6.583c17.965,0,34.149-7.625,45.491-19.816&#10;&#9;&#9;c6.565-7.055,15.636-11.247,25.273-11.247h37.954V23.03l-327.505,0.003c-9.283,0-18.185,3.688-24.749,10.251l-16.02,16.02"/>
	
		<line style="fill:none;stroke:#000000;stroke-width:15;stroke-linecap:round;stroke-linejoin:round;stroke-miterlimit:10;" x1="457.905" y1="54.093" x2="457.905" y2="85.155"/>
	<path style="fill:none;stroke:#000000;stroke-width:15;stroke-linecap:round;stroke-linejoin:round;stroke-miterlimit:10;" d="&#10;&#9;&#9;M146.985,104.453l8.2,8.2c3.49,3.49,7.533,6.088,11.848,7.796"/>
	<path style="fill:none;stroke:#000000;stroke-width:15;stroke-linecap:round;stroke-linejoin:round;stroke-miterlimit:10;" d="&#10;&#9;&#9;M214.962,102.375l26.895-26.895c3.751-3.751,8.838-5.858,14.142-5.858"/>
</g>















</svg>
