<svg width="101" height="100" viewBox="0 0 101 100" fill="none" xmlns="http://www.w3.org/2000/svg">
<path d="M65.2344 33.2438C65.151 33.2438 65.0698 33.2521 64.9875 33.2677C64.9062 33.2844 64.8281 33.3084 64.751 33.3396C64.6739 33.3719 64.6021 33.4104 64.5323 33.4563C64.4635 33.5021 64.4 33.5552 64.3417 33.6136C64.2823 33.6719 64.2302 33.7354 64.1844 33.8042C64.1385 33.8729 64.0989 33.9459 64.0677 34.0229C64.0354 34.099 64.0114 34.1781 63.9958 34.2594C63.9792 34.3406 63.9719 34.4229 63.9719 34.5052C63.9719 34.5886 63.9792 34.6698 63.9958 34.7511C64.0114 34.8323 64.0354 34.9115 64.0677 34.9886C64.0989 35.0646 64.1385 35.1375 64.1844 35.2063C64.2302 35.275 64.2823 35.3386 64.3417 35.3969C64.4 35.4563 64.4635 35.5084 64.5323 35.5542C64.6021 35.6 64.6739 35.6396 64.751 35.6709C64.8281 35.7021 64.9062 35.7261 64.9875 35.7427C65.0698 35.7584 65.151 35.7667 65.2344 35.7667H68.2208L65.1521 46.7865C65.1292 46.8667 65.1135 46.9479 65.1062 47.0313C65.0989 47.1146 65.1 47.1979 65.1083 47.2802C65.1177 47.3636 65.1354 47.4448 65.1604 47.524C65.1854 47.6042 65.2187 47.6802 65.2594 47.7531C65.3 47.8261 65.3469 47.8948 65.401 47.9584C65.4552 48.0219 65.5156 48.0802 65.5812 48.1313C65.6469 48.1834 65.7167 48.2281 65.7906 48.2667C65.8656 48.3042 65.9427 48.3344 66.0239 48.3563C66.1354 48.3896 66.2489 48.4063 66.3646 48.4073C66.5021 48.4063 66.6364 48.3844 66.7667 48.3396C66.8979 48.2948 67.0177 48.2313 67.1271 48.1469C67.2364 48.0636 67.3292 47.9646 67.4062 47.85C67.4833 47.7365 67.5406 47.6125 67.5771 47.4802L70.8354 35.8115H76.625L79.8896 47.499C79.926 47.6313 79.9833 47.7552 80.0604 47.8698C80.1375 47.9834 80.2302 48.0823 80.3396 48.1667C80.4489 48.25 80.5698 48.3146 80.7 48.3584C80.8302 48.4031 80.9646 48.4261 81.1021 48.4261C81.2187 48.425 81.3323 48.4084 81.4437 48.3761C81.5239 48.3531 81.601 48.3229 81.676 48.2854C81.75 48.2469 81.8208 48.2021 81.8864 48.1511C81.9521 48.099 82.0114 48.0406 82.0656 47.9771C82.1198 47.9136 82.1667 47.8459 82.2073 47.7719C82.2479 47.699 82.2812 47.6229 82.3062 47.5438C82.3323 47.4636 82.3489 47.3823 82.3583 47.299C82.3677 47.2167 82.3687 47.1334 82.3614 47.05C82.3542 46.9667 82.3385 46.8854 82.3146 46.8052L79.2396 35.8115H79.7073C79.7896 35.8115 79.8719 35.8031 79.9531 35.7865C80.0344 35.7709 80.1135 35.7469 80.1906 35.7146C80.2667 35.6834 80.3396 35.6448 80.4083 35.5979C80.4771 35.5521 80.5417 35.5 80.6 35.4417C80.6583 35.3834 80.7104 35.3188 80.7573 35.25C80.8031 35.1813 80.8417 35.1084 80.8739 35.0323C80.9052 34.9552 80.9292 34.8771 80.9458 34.7959C80.9614 34.7146 80.9698 34.6323 80.9698 34.55C80.9698 34.4667 80.9614 34.3844 80.9458 34.3031C80.9292 34.2219 80.9052 34.1438 80.8739 34.0667C80.8417 33.9906 80.8031 33.9177 80.7573 33.849C80.7104 33.7802 80.6583 33.7156 80.6 33.6573C80.5417 33.599 80.4771 33.5469 80.4083 33.5011C80.3396 33.4542 80.2667 33.4156 80.1906 33.3844C80.1135 33.3521 80.0344 33.3281 79.9531 33.3125C79.8719 33.2959 79.7896 33.2875 79.7073 33.2875H78.526L76.2781 25.2521C76.4958 25.125 76.7021 24.9834 76.8989 24.8261C77.0958 24.6688 77.2792 24.4979 77.45 24.3136C77.6219 24.1292 77.7781 23.9323 77.9198 23.725C78.0625 23.5177 78.1875 23.3 78.2979 23.074C78.4073 22.8479 78.5 22.6146 78.576 22.375C78.651 22.1344 78.7083 21.8906 78.7469 21.6417C78.7864 21.3938 78.8073 21.1438 78.8094 20.8917C78.8114 20.6406 78.7948 20.3906 78.7594 20.1406C78.725 19.8917 78.6719 19.6469 78.6 19.4052C78.5292 19.1646 78.4396 18.9302 78.3344 18.7021C78.2281 18.474 78.1052 18.2542 77.9667 18.0448C77.8281 17.8344 77.675 17.6365 77.5073 17.449C77.3385 17.2615 77.1583 17.0875 76.9646 16.9271C76.7708 16.7667 76.5656 16.6209 76.35 16.4906C76.1354 16.3604 75.9114 16.2469 75.6792 16.149C75.4469 16.0521 75.2083 15.9729 74.9646 15.9104V14.3656C74.9646 14.2823 74.9562 14.2 74.9406 14.1188C74.9239 14.0375 74.9 13.9594 74.8687 13.8823C74.8364 13.8063 74.7979 13.7334 74.7521 13.6646C74.7062 13.5959 74.6531 13.5323 74.5948 13.4729C74.5364 13.4146 74.4729 13.3625 74.4031 13.3167C74.3344 13.2709 74.2614 13.2313 74.1854 13.2C74.1083 13.1677 74.0292 13.1438 73.9479 13.1281C73.8667 13.1115 73.7844 13.1042 73.7021 13.1042C73.6187 13.1042 73.5364 13.1115 73.4552 13.1281C73.3739 13.1438 73.2948 13.1677 73.2187 13.2C73.1417 13.2313 73.0687 13.2709 73 13.3167C72.9312 13.3625 72.8677 13.4146 72.8094 13.4729C72.75 13.5323 72.6979 13.5959 72.6521 13.6646C72.6062 13.7334 72.5667 13.8063 72.5354 13.8823C72.5031 13.9594 72.4792 14.0375 72.4635 14.1188C72.4469 14.2 72.4385 14.2823 72.4385 14.3656V15.9104C72.1989 15.9761 71.9646 16.0584 71.7364 16.1584C71.5083 16.2584 71.2885 16.374 71.0781 16.5063C70.8667 16.6386 70.6667 16.7844 70.476 16.9459C70.2864 17.1073 70.1104 17.2813 69.9458 17.4688C69.7823 17.6552 69.6323 17.8531 69.4969 18.0625C69.3625 18.2719 69.2427 18.4896 69.1396 18.7156C69.0364 18.9417 68.95 19.175 68.8812 19.4136C68.8125 19.6521 68.7614 19.8959 68.7271 20.1417C68.6937 20.3886 68.6792 20.6365 68.6812 20.8844C68.6844 21.1334 68.7052 21.3802 68.7448 21.6261C68.7833 21.8719 68.8406 22.1136 68.9146 22.3511C68.9885 22.5886 69.0802 22.8188 69.1885 23.0427C69.2969 23.2667 69.4208 23.4823 69.5604 23.6875C69.701 23.8938 69.8542 24.0886 70.0229 24.2719C70.1917 24.4552 70.3719 24.625 70.5656 24.7823C70.7583 24.9386 70.9625 25.0813 71.176 25.2084L68.9344 33.2438H65.2344ZM71.4979 33.0104L73.5562 25.7188H73.8281L75.8927 32.9854L71.4979 33.0104ZM71.176 20.7042C71.176 20.5386 71.1927 20.375 71.225 20.2125C71.2573 20.05 71.3052 19.8917 71.3687 19.7386C71.4323 19.5854 71.5094 19.4406 71.6021 19.3031C71.6937 19.1646 71.7989 19.0375 71.9156 18.9198C72.0333 18.8031 72.1604 18.699 72.2989 18.6063C72.4364 18.5146 72.5823 18.4365 72.7354 18.3729C72.8885 18.3104 73.0469 18.2625 73.2094 18.2302C73.3719 18.1979 73.5364 18.1813 73.7021 18.1813C73.8677 18.1813 74.0323 18.1979 74.1948 18.2302C74.3573 18.2625 74.5156 18.3104 74.6687 18.3729C74.8219 18.4365 74.9677 18.5146 75.1052 18.6063C75.2427 18.699 75.3708 18.8031 75.4875 18.9198C75.6052 19.0375 75.7094 19.1646 75.8021 19.3031C75.8937 19.4406 75.9719 19.5854 76.0354 19.7386C76.0989 19.8917 76.1469 20.05 76.1792 20.2125C76.2114 20.375 76.2281 20.5386 76.2281 20.7042C76.2281 20.8698 76.2114 21.0344 76.1792 21.1969C76.1469 21.3594 76.0989 21.5167 76.0354 21.6698C75.9719 21.8229 75.8937 21.9688 75.8021 22.1063C75.7094 22.2438 75.6052 22.3709 75.4875 22.4886C75.3708 22.6052 75.2427 22.7104 75.1052 22.8021C74.9677 22.8938 74.8219 22.9719 74.6687 23.0354C74.5156 23.099 74.3573 23.1469 74.1948 23.1792C74.0323 23.2115 73.8677 23.2271 73.7021 23.2271C73.5364 23.2271 73.3719 23.2115 73.2094 23.1792C73.0469 23.1469 72.8885 23.099 72.7354 23.0354C72.5823 22.9719 72.4364 22.8938 72.2989 22.8021C72.1604 22.7104 72.0333 22.6052 71.9156 22.4886C71.7989 22.3709 71.6937 22.2438 71.6021 22.1063C71.5094 21.9688 71.4323 21.8229 71.3687 21.6698C71.3052 21.5167 71.2573 21.3594 71.225 21.1969C71.1927 21.0344 71.176 20.8698 71.176 20.7042Z" fill="black"/>
<path d="M41.2719 28.5448C41.1761 28.4854 41.075 28.4386 40.9688 28.4063L40.8677 28.3615C35.1021 26.224 30.4865 30.1781 28.8698 32.575L9.43439 61.7031C8.90106 62.6792 8.48022 63.7011 8.17189 64.7688C8.12606 65.024 8.09376 65.2813 8.07397 65.5396C8.05314 65.7979 8.04585 66.0563 8.05106 66.3156C8.05627 66.575 8.07502 66.8323 8.10522 67.0896C8.13543 67.3479 8.17918 67.6031 8.23439 67.8563C8.2896 68.1094 8.35731 68.3584 8.43752 68.6052C8.51772 68.8521 8.60939 69.0938 8.71356 69.3313C8.81772 69.5688 8.93231 69.8 9.05939 70.0271C9.18543 70.2532 9.32293 70.4729 9.47085 70.6854C9.61877 70.8979 9.7771 71.1031 9.94481 71.3C10.1136 71.4979 10.2906 71.6865 10.4771 71.8667C10.6636 72.0469 10.8583 72.2167 11.0615 72.3781C11.2656 72.5386 11.4761 72.6896 11.6938 72.8302C11.9125 72.9698 12.1365 73.1 12.3677 73.2177C12.5979 73.3365 12.8344 73.4427 13.075 73.5386C13.3167 73.6334 13.5615 73.7167 13.8115 73.7886C14.0604 73.8594 14.3125 73.9188 14.5677 73.9656L50.749 79.3334L55.0813 77.4406L15.0167 71.4802C14.8417 71.449 14.6698 71.4084 14.5 71.3604C14.3292 71.3115 14.1615 71.2552 13.9969 71.1896C13.8323 71.125 13.6708 71.0521 13.5136 70.9709C13.3563 70.8906 13.2031 70.8021 13.0542 70.7063C12.9052 70.6104 12.7615 70.5084 12.6229 70.3979C12.4833 70.2886 12.3511 70.1719 12.2229 70.049C12.0958 69.9261 11.975 69.7979 11.8604 69.6625C11.7458 69.5281 11.6375 69.3886 11.5365 69.2427C11.4354 69.0979 11.3417 68.9479 11.2552 68.7938C11.1688 68.6386 11.0906 68.4802 11.0198 68.3188C10.949 68.1563 10.8865 67.9907 10.8323 67.8229C10.7771 67.6542 10.7313 67.4844 10.6938 67.3115C10.6552 67.1386 10.6261 66.9646 10.6063 66.7886C10.5854 66.6125 10.5729 66.4365 10.5698 66.2594C10.5667 66.0834 10.5719 65.9063 10.5854 65.7302C10.599 65.5532 10.6219 65.3781 10.6531 65.2042C10.7406 64.8292 10.8698 64.4688 11.0396 64.1229C11.2094 63.7771 11.4167 63.4542 11.6594 63.1552C11.9031 62.8563 12.1771 62.5886 12.4813 62.3521C12.7854 62.1156 13.1136 61.9167 13.4625 61.7542C13.9167 61.5313 14.3906 61.3656 14.8844 61.2573C15.3781 61.1479 15.8771 61.099 16.3834 61.1104C16.8886 61.1209 17.3854 61.1917 17.874 61.3219C18.3625 61.4521 18.8281 61.6386 19.2719 61.8802C19.4104 61.95 19.5563 61.9927 19.7104 62.0094C19.8636 62.025 20.0156 62.0136 20.1656 61.974C20.3146 61.9344 20.4521 61.8698 20.5781 61.7792C20.7042 61.6896 20.8094 61.5802 20.8948 61.4511L34.875 40.4406L63.1063 44.0104L63.8011 41.5573L36.4469 38.1011L41.6438 30.2979C41.6896 30.2281 41.7281 30.1552 41.7594 30.0781C41.7906 30 41.8136 29.9209 41.8292 29.8386C41.8448 29.7573 41.8521 29.674 41.8511 29.5906C41.85 29.5073 41.8406 29.425 41.824 29.3438C41.8063 29.2625 41.7813 29.1834 41.7479 29.1063C41.7156 29.0302 41.675 28.9573 41.6271 28.8886C41.5802 28.8209 41.5261 28.7573 41.4667 28.699C41.4063 28.6417 41.3417 28.5896 41.2719 28.5448Z" fill="black"/>
<mask id="mask0_148_959" style="mask-type:luminance" maskUnits="userSpaceOnUse" x="71" y="44" width="18" height="27">
<path d="M71.9667 44H88.9604V70.1333H71.9667V44Z" fill="white"/>
</mask>
<g mask="url(#mask0_148_959)">
<path d="M76.1073 68.15L88.6854 46.4396C88.7396 46.349 88.7802 46.2531 88.8094 46.1521C88.8396 46.0521 88.8552 45.949 88.8594 45.8448C88.8635 45.7396 88.8542 45.6354 88.8312 45.5333C88.8094 45.4312 88.775 45.3323 88.7281 45.2385C88.6812 45.1448 88.624 45.0583 88.5552 44.9781C88.4875 44.899 88.4104 44.8292 88.324 44.7687C88.2385 44.7083 88.1469 44.6594 88.049 44.6219C87.95 44.5844 87.849 44.5594 87.7448 44.5469L84.3167 44.1177L84.7771 45.7396C84.8677 46.0656 84.9146 46.3969 84.9167 46.7354L85.5479 46.8115L72.174 69.8719L76.1073 68.15Z" fill="black"/>
</g>
<path d="M75.4135 83.6292L77.2125 78.6396L70.0646 81.7927L75.4135 83.6292Z" fill="black"/>
<mask id="mask1_148_959" style="mask-type:luminance" maskUnits="userSpaceOnUse" x="49" y="65" width="40" height="29">
<path d="M49.8333 65.8667H88.7666V93.8406H49.8333V65.8667Z" fill="white"/>
</mask>
<g mask="url(#mask1_148_959)">
<path d="M86.7604 66.2136L50.6229 82.1469C50.5073 82.1979 50.401 82.2646 50.3052 82.3479C50.2094 82.4302 50.1281 82.5261 50.0615 82.6333C49.9948 82.7406 49.9448 82.8552 49.9125 82.9781C49.8802 83.1 49.8667 83.225 49.8719 83.3511C49.8771 83.4771 49.9021 83.6 49.9448 83.7198C49.9875 83.8386 50.0469 83.949 50.1229 84.05C50.199 84.1511 50.2875 84.2386 50.3906 84.3136C50.4927 84.3875 50.6042 84.4458 50.724 84.4865C50.724 84.4865 78.0208 93.8406 78.1594 93.8406C78.2906 93.8417 78.4177 93.8219 78.5417 93.7833C78.6667 93.7448 78.7823 93.6875 78.8885 93.6136C78.9958 93.5386 79.0885 93.45 79.1677 93.3469C79.2469 93.2438 79.3094 93.1302 79.3531 93.0083C79.3531 93.0083 88.1938 68.6354 88.4646 67.7781C88.5063 67.6615 88.5313 67.5417 88.5375 67.4188C88.5438 67.2948 88.5323 67.174 88.5031 67.0542C88.474 66.9333 88.4281 66.8208 88.3656 66.7136C88.3031 66.6073 88.2271 66.5125 88.1365 66.4281C88.0448 66.3448 87.9438 66.2761 87.8313 66.2229C87.7198 66.1698 87.6031 66.1333 87.4802 66.1136C87.3583 66.0948 87.2354 66.0938 87.1125 66.1104C86.9906 66.1281 86.8729 66.1615 86.7604 66.2136ZM80.6031 76.7156L77.3708 85.6406C77.326 85.7625 77.2646 85.875 77.1865 85.9781C77.1073 86.0813 77.0146 86.1698 76.9083 86.2448C76.8021 86.3188 76.6875 86.3761 76.5635 86.4146C76.4396 86.4542 76.3135 86.4729 76.1833 86.4729C76.0406 86.4719 75.9021 86.449 75.7667 86.4042L66.1938 83.1177C66.0771 83.074 65.9688 83.0136 65.8687 82.9375C65.7698 82.8615 65.6833 82.7719 65.6104 82.6708C65.5375 82.5688 65.4812 82.4583 65.4406 82.3396C65.401 82.2208 65.3792 82.099 65.375 81.974C65.3719 81.849 65.3865 81.7261 65.4187 81.6052C65.4521 81.4844 65.5021 81.3708 65.5687 81.2656C65.6354 81.1594 65.7156 81.0656 65.8104 80.9833C65.9052 80.9011 66.0104 80.8344 66.125 80.7844L78.9302 75.1073C79.0437 75.0563 79.1615 75.0229 79.2844 75.0073C79.4073 74.9917 79.5302 74.9938 79.6531 75.0136C79.775 75.0333 79.8917 75.0708 80.0031 75.1261C80.1146 75.1802 80.2156 75.25 80.3062 75.3344C80.3979 75.4219 80.474 75.5198 80.5354 75.6302C80.5969 75.7396 80.6406 75.8563 80.6667 75.9792C80.6938 76.1031 80.701 76.2271 80.6906 76.3521C80.6792 76.4781 80.651 76.599 80.6031 76.7156Z" fill="url(#paint0_linear_148_959)"/>
</g>
<path d="M63.1063 47.9531L51.0708 46.2625C50.8458 46.2302 50.6271 46.2573 50.4156 46.3427C50.2042 46.4281 50.0292 46.5614 49.8906 46.7417L47.8136 49.4292L38.1708 48.0479C37.9417 48.0146 37.7208 48.0417 37.5063 48.1302C37.2927 48.2177 37.1167 48.3542 36.9771 48.5396C36.9771 48.5396 33.6438 52.9552 33.5615 53.1948C33.5427 53.275 33.5323 53.3573 33.5292 53.4396C33.5271 53.5229 33.5323 53.6052 33.5458 53.6875C33.5604 53.7687 33.5813 53.8489 33.6104 53.926C33.6406 54.0031 33.6771 54.0771 33.7208 54.1479C33.7646 54.2177 33.8156 54.2833 33.8719 54.3437C33.9292 54.4042 33.9917 54.4583 34.0594 54.5062C34.1261 54.5542 34.1979 54.5958 34.274 54.6292C34.35 54.6635 34.4281 54.6896 34.5083 54.7083C34.5083 54.7083 37.9875 55.5094 38.0823 55.5094C38.2365 55.5073 38.3854 55.4771 38.5292 55.4198C38.6729 55.3625 38.8011 55.2823 38.9146 55.1781C39.0292 55.0739 39.1208 54.9531 39.1896 54.8156C39.2594 54.6771 39.3021 54.5323 39.3177 54.3781C39.3333 54.225 39.3219 54.0739 39.2823 53.925C39.2427 53.776 39.1781 53.6385 39.0886 53.5135C38.9979 53.3875 38.8886 53.2823 38.7604 53.1969C38.6313 53.1114 38.4917 53.0521 38.3417 53.0177L36.9708 52.6969L38.525 50.6469L45.4708 51.6427L32.5136 68.8062L25.5677 67.8094L27.6698 65.0281C27.6698 65.0281 30.3281 65.6583 30.4229 65.6583C30.5792 65.6594 30.7302 65.6333 30.8761 65.5781C31.0219 65.5239 31.1531 65.4458 31.2698 65.3427C31.3865 65.2396 31.4802 65.1187 31.5521 64.9812C31.625 64.8437 31.6698 64.6969 31.6875 64.5427C31.7052 64.3885 31.6958 64.2354 31.6573 64.0854C31.6188 63.9344 31.5542 63.7958 31.4646 63.6687C31.375 63.5417 31.2646 63.4354 31.1354 63.3489C31.0063 63.2614 30.8656 63.201 30.7136 63.1667L27.1521 62.3781C26.9542 62.3781 26.7667 62.4208 26.5886 62.5083C26.4104 62.5969 26.2625 62.7187 26.1417 62.8771L22.2333 67.9792C22.2011 68.0229 22.1708 68.0687 22.1438 68.1167C22.1177 68.1635 22.0938 68.2125 22.0729 68.2635C22.0531 68.3146 22.0354 68.3656 22.0219 68.4187C22.0083 68.4719 21.9979 68.525 21.9906 68.5792C21.9844 68.6333 21.9813 68.6875 21.9813 68.7427C21.9813 68.7969 21.9854 68.851 21.9927 68.9052C22 68.9594 22.0104 69.0125 22.025 69.0656C22.0396 69.1177 22.0563 69.1698 22.0781 69.2198C22.099 69.2708 22.1229 69.3187 22.15 69.3667C22.1771 69.4135 22.2073 69.4594 22.2406 69.5021C22.274 69.5458 22.3094 69.5864 22.3479 69.626C22.3865 69.6646 22.4271 69.7 22.4708 69.7333C22.5136 69.7667 22.5594 69.7979 22.6063 69.825C22.6531 69.8531 22.7021 69.8771 22.7521 69.8979C22.8031 69.9198 22.8542 69.9375 22.9073 69.9521C22.9594 69.9667 23.0125 69.9781 23.0667 69.9854C23.0667 69.9854 55.7125 74.5958 55.7688 74.5958C55.9656 74.5969 56.1521 74.5542 56.3281 74.4677C56.5052 74.3812 56.6531 74.2594 56.7729 74.1042L71.8073 54.6646C71.8406 54.6208 71.8719 54.575 71.899 54.5281C71.9271 54.4802 71.9511 54.4312 71.9719 54.3802C71.9938 54.3292 72.0115 54.2771 72.0261 54.225C72.0396 54.1719 72.0511 54.1177 72.0583 54.0635C72.0656 54.0083 72.0688 53.9542 72.0698 53.8989C72.0698 53.8437 72.0656 53.7896 72.0594 53.7354C72.0521 53.6802 72.0417 53.6271 72.0271 53.5739C72.0136 53.5208 71.9958 53.4687 71.975 53.4177C71.9542 53.3667 71.9302 53.3177 71.9031 53.2698C71.8761 53.2219 71.8458 53.176 71.8125 53.1323C71.7792 53.0885 71.7427 53.0469 71.7042 53.0083C71.6656 52.9687 71.624 52.9323 71.5813 52.8989C71.5375 52.8656 71.4917 52.8344 71.4448 52.8062C71.3969 52.7792 71.3479 52.7542 71.2969 52.7333C71.2469 52.7114 71.1948 52.6937 71.1417 52.6792C71.0886 52.6646 71.0354 52.6531 70.9802 52.6458L62.7719 51.4917L63.9521 49.9656C63.9865 49.9219 64.0167 49.876 64.0438 49.8281C64.0719 49.7812 64.0958 49.7323 64.1177 49.6812C64.1386 49.6302 64.1563 49.5781 64.1708 49.525C64.1844 49.4719 64.1958 49.4187 64.2031 49.3646C64.2104 49.3094 64.2146 49.2552 64.2146 49.2C64.2146 49.1448 64.2115 49.0906 64.2042 49.0354C64.1969 48.9812 64.1865 48.9271 64.1729 48.8739C64.1583 48.8208 64.1406 48.7687 64.1198 48.7187C64.099 48.6677 64.075 48.6177 64.0479 48.5708C64.0208 48.5229 63.9906 48.4771 63.9573 48.4333C63.924 48.3896 63.8875 48.3479 63.849 48.3094C63.8104 48.2698 63.7698 48.2333 63.7261 48.2C63.6823 48.1656 63.6365 48.1354 63.5896 48.1073C63.5417 48.0802 63.4927 48.0552 63.4427 48.0344C63.3917 48.0125 63.3396 47.9948 63.2865 47.9802C63.2333 47.9656 63.1802 47.9542 63.125 47.9469L63.1063 47.9531ZM51.45 48.8614L60.6 50.1229L59.2417 51.9021L50.0927 50.6396L51.45 48.8614ZM48.2927 52.9167L57.4427 54.1781L56.0844 55.9323L46.9354 54.6708L48.2927 52.9167ZM45.1354 56.9729L54.2854 58.2344L52.9281 59.9875L43.7781 58.726L45.1354 56.9729ZM41.9781 61.0292L51.1281 62.2906L49.7708 64.0437L40.6208 62.7823L41.9781 61.0292ZM35.6958 69.2406L38.9292 65.0531L48.0781 66.3146L44.8448 70.5469L35.6958 69.2406ZM68.4615 54.8469L66.4406 57.4583C66.3833 57.4583 62.8917 56.6135 62.8917 56.6135C62.8083 56.5875 62.724 56.5708 62.6375 56.5625C62.55 56.5552 62.4636 56.5552 62.3771 56.5656C62.2906 56.575 62.2063 56.5937 62.124 56.6208C62.0417 56.6479 61.9625 56.6833 61.8875 56.7271C61.8115 56.7708 61.7417 56.8219 61.6771 56.8792C61.6125 56.9375 61.5542 57.001 61.5021 57.0708C61.4511 57.1417 61.4073 57.2156 61.3708 57.2948C61.3344 57.374 61.3073 57.4562 61.2875 57.5406C61.2688 57.625 61.2583 57.7114 61.2573 57.7979C61.2552 57.8854 61.2636 57.9708 61.2792 58.0562C61.2958 58.1417 61.3208 58.2239 61.3542 58.3042C61.3875 58.3844 61.4292 58.4604 61.4781 58.5323C61.5271 58.6042 61.5833 58.6698 61.6458 58.7302C61.7094 58.7906 61.7771 58.8427 61.8511 58.8896C61.925 58.9354 62.0031 58.9729 62.0844 59.0031C62.1656 59.0333 62.25 59.0542 62.3365 59.0667L64.7802 59.6406L63.8198 60.8521L60.3469 60.0323C60.2656 60.0094 60.1823 59.9958 60.0969 59.9896C60.0125 59.9844 59.9281 59.9865 59.8438 59.9979C59.7604 60.0094 59.6781 60.0281 59.5979 60.0562C59.5177 60.0844 59.4406 60.1198 59.3677 60.1625C59.2948 60.2062 59.2271 60.2562 59.1636 60.3135C59.1011 60.3698 59.0448 60.4323 58.9938 60.501C58.9438 60.5687 58.9011 60.6417 58.8656 60.7187C58.8292 60.7958 58.8021 60.875 58.7823 60.9583C58.7625 61.0406 58.7521 61.124 58.749 61.2083C58.7469 61.2937 58.7521 61.3781 58.7667 61.4614C58.7813 61.5448 58.8031 61.626 58.8344 61.7052C58.8646 61.7844 58.9031 61.8594 58.949 61.9302C58.9948 62.0021 59.0479 62.0677 59.1073 62.1281C59.1667 62.1896 59.2313 62.2437 59.3011 62.2917C59.3708 62.3385 59.4458 62.3792 59.524 62.4114C59.6021 62.4448 59.6833 62.4687 59.7656 62.4854L62.1344 63.0406L61.199 64.2521L57.8021 63.4573C57.7208 63.4344 57.6375 63.4208 57.5531 63.4146C57.4677 63.4094 57.3833 63.4114 57.299 63.4229C57.2156 63.4344 57.1333 63.4531 57.0531 63.4812C56.9729 63.5094 56.8958 63.5448 56.8229 63.5875C56.75 63.6312 56.6823 63.6812 56.6188 63.7385C56.5563 63.7948 56.5 63.8573 56.449 63.926C56.399 63.9937 56.3563 64.0667 56.3208 64.1437C56.2854 64.2208 56.2573 64.3 56.2375 64.3833C56.2188 64.4656 56.2073 64.5489 56.2042 64.6333C56.2021 64.7187 56.2073 64.8031 56.2219 64.8864C56.2365 64.9698 56.2594 65.051 56.2896 65.1302C56.3208 65.2094 56.3583 65.2844 56.4042 65.3552C56.4511 65.4271 56.5031 65.4927 56.5625 65.5531C56.6219 65.6146 56.6865 65.6687 56.7563 65.7167C56.8271 65.7635 56.9011 65.8042 56.9792 65.8364C57.0573 65.8698 57.1386 65.8937 57.2219 65.9104L59.5073 66.4469L58.5479 67.6521L55.2261 66.876C55.1448 66.8531 55.0615 66.8396 54.9761 66.8333C54.8917 66.8281 54.8073 66.8302 54.7229 66.8417C54.6386 66.8531 54.5573 66.8719 54.4771 66.9C54.3969 66.9281 54.3198 66.9635 54.2469 67.0062C54.174 67.05 54.1063 67.1 54.0427 67.1573C53.9802 67.2135 53.924 67.276 53.8729 67.3448C53.8229 67.4125 53.7802 67.4854 53.7448 67.5625C53.7083 67.6396 53.6813 67.7187 53.6615 67.8021C53.6417 67.8844 53.6313 67.9677 53.6281 68.0521C53.6261 68.1375 53.6313 68.2219 53.6458 68.3052C53.6604 68.3885 53.6823 68.4698 53.7136 68.549C53.7438 68.6281 53.7823 68.7031 53.8281 68.7739C53.874 68.8458 53.9271 68.9114 53.9865 68.9719C54.0458 69.0333 54.1104 69.0875 54.1802 69.1354C54.25 69.1823 54.325 69.2229 54.4031 69.2552C54.4813 69.2885 54.5615 69.3125 54.6448 69.3292L56.8552 69.8469L55.1886 72.0042L48.0656 71.001L61.3261 53.8448L68.4615 54.8469Z" fill="#59595F"/>
<path d="M35.0646 58.8844C35.1469 58.9011 35.2313 58.9094 35.3156 58.9094C35.4 58.9094 35.4834 58.9011 35.5667 58.8844C35.649 58.8677 35.7292 58.8427 35.8073 58.8104C35.8854 58.7771 35.9584 58.7365 36.0281 58.6896C36.0979 58.6417 36.1625 58.5875 36.2219 58.5271C36.2802 58.4667 36.3323 58.4011 36.3781 58.3292C36.424 58.2583 36.4625 58.1833 36.4927 58.1052C36.5229 58.0261 36.5459 57.9458 36.5604 57.8625C36.575 57.7792 36.5802 57.6958 36.5781 57.6115C36.5761 57.5271 36.5646 57.4438 36.5459 57.3615C36.5261 57.2792 36.499 57.2 36.4646 57.1229C36.4292 57.0458 36.3865 56.974 36.3365 56.9052C36.2875 56.8375 36.2313 56.775 36.1688 56.7177C36.1063 56.6604 36.0396 56.6104 35.9667 56.5667C35.8938 56.5229 35.8188 56.4875 35.7386 56.4594C35.6594 56.4313 35.5771 56.4104 35.4938 56.399L32.425 55.8688C32.3031 55.85 32.1802 55.85 32.0584 55.8667C31.9354 55.8844 31.8188 55.9188 31.7063 55.9698C31.5938 56.0219 31.4917 56.0886 31.399 56.1698C31.3063 56.2511 31.2271 56.3448 31.1625 56.449L28.7375 59.3823C28.5927 59.5563 28.5021 59.7542 28.4646 59.9771C28.4261 60.2 28.4469 60.4167 28.5261 60.6281C28.6042 60.8396 28.7313 61.0177 28.9052 61.1615C29.0802 61.3052 29.2781 61.3948 29.5011 61.4323L33.3531 62H33.5427C33.625 62.0063 33.7084 62.0042 33.7906 61.9938C33.8729 61.9833 33.9531 61.9646 34.0323 61.9386C34.1115 61.9125 34.1865 61.8781 34.2584 61.8375C34.3313 61.7969 34.399 61.749 34.4615 61.6948C34.524 61.6406 34.5813 61.5802 34.6323 61.5146C34.6834 61.449 34.7271 61.3792 34.7646 61.3052C34.8011 61.2313 34.8313 61.1542 34.8531 61.074C34.875 60.9938 34.8896 60.9125 34.8948 60.8302C34.9011 60.7469 34.899 60.6646 34.8886 60.5823C34.8781 60.5 34.8604 60.4198 34.8344 60.3406C34.8084 60.2615 34.775 60.1865 34.7334 60.1146C34.6927 60.0417 34.6448 59.975 34.5906 59.9115C34.5365 59.849 34.4761 59.7917 34.4115 59.7406C34.3459 59.6896 34.2761 59.6458 34.2011 59.6083C34.1271 59.5708 34.05 59.5417 33.9698 59.5198C33.8896 59.4969 33.8084 59.4833 33.7261 59.4771L32.0906 59.2375L32.7219 58.4552L35.0646 58.8844Z" fill="black"/>
<path d="M71.4354 42.5031L70.7406 44.9573L76.8719 45.7323L76.1198 43.0958L71.4354 42.5031Z" fill="#59595F"/>
<defs>
<linearGradient id="paint0_linear_148_959" x1="69.205" y1="66.0987" x2="69.205" y2="93.8407" gradientUnits="userSpaceOnUse">
<stop/>
<stop offset="1" stop-color="#29246B" stop-opacity="0"/>
</linearGradient>
</defs>
</svg>
