<svg width="121" height="103" viewBox="0 0 121 103" fill="none" xmlns="http://www.w3.org/2000/svg">
<path opacity="0.18" d="M28.7133 6.32261C20.7154 11.9597 14.2201 20.3972 12.9825 30.1115C12.6813 32.5416 12.6813 35.0108 12.2176 37.4138C10.4651 46.288 2.32263 52.9067 0.774843 61.805C-0.631414 69.8119 3.59338 77.6623 8.10725 84.4256C10.0887 87.3916 12.2116 90.3577 15.1084 92.4355C17.8667 94.4139 21.1641 95.4708 24.4012 96.4977C38.0211 100.816 52.8786 105.128 66.2787 100.168C69.847 98.8465 73.2046 96.8922 76.9385 96.1454C82.0095 95.1336 87.222 96.4465 92.3893 96.6482C99.8512 96.9253 107.545 94.6608 113.08 89.6531C118.614 84.6454 121.656 76.7529 120.09 69.4566C119.274 65.6805 117.322 62.2477 116.175 58.5528C115.123 55.1164 114.789 51.5002 115.194 47.9291C115.534 44.96 116.383 42.009 116.097 39.0399C115.672 34.785 112.956 31.1053 109.909 28.106C106.861 25.1068 103.374 22.5322 100.718 19.1837C97.942 15.6876 96.4184 11.2912 93.4914 7.91256C83.1899 -4.01503 71.8736 3.56129 63.8576 3.35954C60.2261 3.26017 36.2113 1.04087 28.7133 6.32261Z" fill="black"/>
<path d="M84.7317 22.192H37.2231C29.9937 22.192 24.1332 28.0525 24.1332 35.2819V67.7523C24.1332 74.9816 29.9937 80.8422 37.2231 80.8422H84.7317C91.9611 80.8422 97.8216 74.9816 97.8216 67.7523V35.2819C97.8216 28.0525 91.9611 22.192 84.7317 22.192Z" fill="url(#paint0_linear_143_1352)"/>
<path d="M35.1845 81.327C35.1863 81.5801 35.2817 81.8236 35.4525 82.0105C35.6311 82.1268 35.8419 82.1837 36.0548 82.1731C39.5297 82.3739 43.0078 82.409 46.4888 82.2785C46.8789 82.2987 47.2652 82.1932 47.5909 81.9774C47.809 81.768 47.9688 81.5055 48.0546 81.2156C48.4069 80.288 48.675 79.3305 48.8556 78.3549C48.9369 77.9243 48.9851 77.4334 48.7111 77.0932C48.437 76.7529 47.9131 76.6926 47.4584 76.6746C44.0135 76.5461 40.5676 76.4989 37.1207 76.5331C36.2836 76.5331 34.9406 76.5993 34.7117 77.5719C34.4829 78.5446 35.061 80.3182 35.1845 81.327Z" fill="#59595F"/>
<path d="M71.2894 80.8662C71.8035 81.1842 72.3876 81.3714 72.9908 81.4113C76.388 81.8847 79.8249 82.0068 83.2471 81.7756C83.6536 81.7485 84.1053 81.6913 84.3583 81.3721C84.6594 80.9867 84.5149 80.4236 84.3372 79.9629C83.9367 78.921 83.3676 77.8158 82.3317 77.4063C81.8171 77.2386 81.2763 77.1661 80.7357 77.1925C78.3267 77.1624 75.5624 76.6716 73.1805 76.9215C71.3195 77.1172 69.4947 79.3275 71.2894 80.8662Z" fill="#59595F"/>
<path d="M70.8859 21.3939C71.0672 21.5263 71.2927 21.5835 71.5152 21.5535L76.541 21.5053C78.5435 21.4843 80.5641 21.4632 82.5244 21.0507C82.8888 20.9754 83.3043 20.8338 83.4127 20.4785C83.4569 20.2554 83.4273 20.0239 83.3284 19.819C82.8184 18.4471 82.0701 17.1759 81.1181 16.064C81.0238 15.922 80.8911 15.8095 80.7355 15.7397C80.5799 15.6699 80.4077 15.6456 80.2388 15.6695C77.7696 15.6695 75.5865 16.9945 73.3521 17.8587C72.4246 18.2171 69.3983 19.9515 70.8859 21.3939Z" fill="#59595F"/>
<path d="M35.5639 21.3277C35.496 21.5062 35.496 21.7033 35.5639 21.8818C35.6903 22.1197 36.0095 22.1829 36.2775 22.1829C40.9249 22.484 45.5773 22.5774 50.2347 22.463C50.5213 22.4827 50.8076 22.42 51.0598 22.2823C51.4211 22.0414 51.5054 21.5536 51.5265 21.1199C51.6045 19.5627 51.2941 18.0105 50.6232 16.6031C50.4681 16.2252 50.228 15.8883 49.9215 15.6184C49.4066 15.2119 48.702 15.1727 48.0455 15.1486L42.821 14.974C41.7911 14.9378 40.3247 14.5976 39.3099 14.9047C36.8828 15.6545 36.5124 19.4156 35.5639 21.3277Z" fill="#59595F"/>
<path d="M36.4824 7.09048C35.9707 7.64475 35.5986 8.31308 35.397 9.04C35.1953 9.76691 35.17 10.5314 35.3231 11.2701C35.551 12.2035 35.9957 13.0701 36.621 13.7996C38.1266 15.6304 40.3248 16.7927 42.6435 17.2866C44.9621 17.7804 47.3621 17.6359 49.6808 17.1752C50.9756 16.9162 52.2795 16.5458 53.3635 15.79C53.9179 15.4444 54.3416 14.9243 54.568 14.3115C54.7758 13.643 54.6102 12.9142 54.3813 12.2518C53.6436 10.1168 52.1651 8.1655 50.1054 7.24405C49.0784 6.82793 47.9958 6.56515 46.8924 6.46414C44.92 6.21119 42.7127 6.46414 40.8066 5.9462C39.1896 5.49753 37.69 5.80769 36.4824 7.09048Z" fill="black"/>
<path d="M83.2051 20.1563H35.6965C28.4671 20.1563 22.6066 26.0169 22.6066 33.2462V65.7166C22.6066 72.946 28.4671 78.8065 35.6965 78.8065H83.2051C90.4344 78.8065 96.295 72.946 96.295 65.7166V33.2462C96.295 26.0169 90.4344 20.1563 83.2051 20.1563Z" fill="black"/>
<path d="M83.2051 20.1563H35.6965C28.4671 20.1563 22.6066 26.0169 22.6066 33.2462V65.7166C22.6066 72.946 28.4671 78.8065 35.6965 78.8065H83.2051C90.4344 78.8065 96.295 72.946 96.295 65.7166V33.2462C96.295 26.0169 90.4344 20.1563 83.2051 20.1563Z" fill="url(#paint1_linear_143_1352)"/>
<path d="M72.2321 27.302L69.0371 43.7495L81.0671 46.1946C81.0671 46.1946 83.982 30.1205 83.982 29.8405C83.982 29.5604 72.2321 27.302 72.2321 27.302Z" fill="white"/>
<path d="M81.5098 23.4356C81.121 23.366 80.7237 23.3579 80.3324 23.4115C80.0914 23.4795 79.8575 23.5702 79.6338 23.6825C78.366 24.2306 76.9236 24.2185 75.5565 24.1944C75.6559 23.7578 76.0925 23.4988 76.484 23.2911C77.5891 22.6888 78.7635 21.8426 78.9532 20.5809C78.8183 20.4715 78.6624 20.391 78.495 20.3444C78.3277 20.2978 78.1526 20.286 77.9806 20.3099H71.684C71.4922 20.2902 71.2991 20.3324 71.133 20.4304C71.0051 20.5415 70.9199 20.6938 70.8921 20.861C70.7791 21.5387 70.9013 22.2346 71.2384 22.8333C71.5395 23.4356 71.9129 24.0077 72.1418 24.6401C72.3706 25.2725 72.4579 25.9229 72.8253 26.4619C73.1566 26.9437 73.7016 27.302 73.8491 27.8652C73.4276 28.2747 72.7229 28.0248 72.2291 27.7086C71.1124 26.9805 70.1689 26.0164 69.465 24.8844C68.7611 23.7523 68.3139 22.4796 68.1549 21.1561C68.1249 21.0425 68.1238 20.9232 68.1517 20.8091C68.1795 20.695 68.2355 20.5896 68.3145 20.5026C68.4196 20.4366 68.5398 20.3982 68.6638 20.3912C71.6654 19.9839 74.6896 19.7657 77.7186 19.7378C79.9762 19.6785 82.2342 19.8388 84.4608 20.2166C85.0631 20.331 87.1709 20.5177 86.8999 21.2645C86.659 21.9661 85.2588 22.6527 84.6385 22.9267C83.656 23.3601 82.579 23.5353 81.5098 23.4356Z" fill="url(#paint2_linear_143_1352)"/>
<path d="M72.3946 77.7466C72.5715 77.6809 72.7601 77.6522 72.9486 77.6623C73.3039 77.6899 73.6599 77.6201 73.9785 77.4605C74.1218 77.3363 74.2873 77.2402 74.4663 77.1775C74.5661 77.1628 74.6676 77.1628 74.7674 77.1775C75.1455 77.2158 75.5266 77.1425 75.8635 76.9667C76.0231 76.8854 76.1887 76.7438 76.1646 76.5662C76.1542 76.4917 76.1229 76.4218 76.0743 76.3644C75.7913 75.997 75.2583 75.9549 74.7945 75.9459L73.054 75.9067C72.6008 75.8696 72.1445 75.9103 71.705 76.0272C71.233 76.1813 70.8343 76.5037 70.5849 76.9331C70.3355 77.3624 70.2529 77.8685 70.3529 78.3549C70.3614 78.429 70.393 78.4985 70.4433 78.5536C70.4985 78.5979 70.5655 78.6251 70.636 78.6319C70.9371 78.6951 71.5394 78.933 71.7803 78.647C72.0212 78.3609 71.985 77.9393 72.3946 77.7466Z" fill="url(#paint3_linear_143_1352)"/>
<path d="M79.5253 74.2806C79.26 74.0095 78.9307 73.8096 78.5677 73.6995C78.1625 73.6257 77.7473 73.6257 77.3421 73.6995C75.7843 73.8679 74.21 73.8019 72.6717 73.5037C72.5583 73.4962 72.4514 73.4481 72.3705 73.3682C72.3132 73.2701 72.294 73.1544 72.3163 73.043C72.3976 72.0945 72.7349 70.9984 73.6413 70.7033C73.9071 70.632 74.1824 70.6025 74.4573 70.6159C76.225 70.6159 78.0859 70.7635 79.5765 71.7301C80.9105 72.6004 81.7626 74.0187 82.5727 75.3888C83.2412 76.521 83.9368 77.7707 83.7471 79.0746C82.8437 79.0294 81.6211 79.1739 80.7659 78.8879C80.8864 78.0236 81.0008 77.2527 80.7659 76.3825C80.531 75.5122 79.9017 75.0335 79.5253 74.2806Z" fill="url(#paint4_linear_143_1352)"/>
<path d="M46.4798 76.9486C46.254 76.8131 45.989 76.6866 45.8776 76.4427C45.6577 75.9187 46.3473 75.3707 46.2058 74.8196C45.7949 74.6697 45.3927 74.4968 45.0013 74.3017C44.8936 74.257 44.7977 74.188 44.7212 74.0999C44.5466 73.8711 44.67 73.5519 44.7724 73.2839C44.8748 73.0159 44.92 72.6515 44.6761 72.501C44.5324 72.436 44.3705 72.4232 44.2184 72.4648L41.6738 72.8533C41.3905 72.8781 41.1146 72.9568 40.8608 73.0851C40.7352 73.1514 40.6304 73.2512 40.5581 73.3735C40.4858 73.4958 40.4488 73.6357 40.4513 73.7777L41.0686 74.4071C40.7343 74.9702 39.9213 75.0455 39.4847 75.5363C39.1354 75.9338 39.1052 76.5089 39.045 77.0419C38.9848 77.5749 38.8312 78.1591 38.3615 78.406C38.1133 78.5148 37.8432 78.5642 37.5725 78.5506L35.0009 78.6379C34.8012 78.6645 34.5982 78.6254 34.4227 78.5265C34.0795 78.2765 34.2451 77.7345 34.4468 77.3581C34.7368 76.8666 34.9856 76.3519 35.1906 75.8194C35.838 73.9554 35.2508 71.8114 35.9916 69.9835C36.101 69.6723 36.29 69.3951 36.5397 69.1795C36.9498 68.9245 37.4272 68.7986 37.9098 68.8182C39.9574 68.7018 42.0071 68.6124 44.0588 68.5502C44.9626 68.5009 45.869 68.5251 46.7689 68.6225C47.7114 68.7489 48.7051 69.0832 49.2291 69.8751C49.3986 70.1519 49.5341 70.4482 49.6326 70.7574L50.5179 73.1664L51.4725 75.7772C51.7344 76.4879 51.9814 77.325 51.5688 77.9604C51.1984 78.5325 50.4336 78.6921 49.7621 78.6981C49.2321 78.6981 48.0878 78.9149 47.7596 78.6138C47.5729 78.4391 47.4585 77.9393 47.2989 77.7104C47.0777 77.4059 46.7995 77.1471 46.4798 76.9486Z" fill="url(#paint5_linear_143_1352)"/>
<path d="M49.9427 21.5174L51.5869 25.5103C51.9414 26.2696 52.1897 27.0742 52.3246 27.9012C52.424 28.7564 52.2794 29.6207 52.3397 30.4759C52.439 31.852 53.0594 33.1288 53.6676 34.3664C54.4235 34.0412 54.7095 33.1258 54.8179 32.3097C55.0679 30.4187 54.839 28.4975 54.556 26.6124C54.4249 25.4187 54.1311 24.2485 53.6827 23.1344C53.4017 22.5431 53.0724 21.9761 52.698 21.4391C52.4434 21.0006 52.0935 20.625 51.6742 20.34C51.2014 20.066 50.0391 19.819 49.5151 20.0389C48.8858 20.334 49.7711 21.1048 49.9427 21.5174Z" fill="url(#paint6_linear_143_1352)"/>
<path d="M37.434 25.0255C37.4277 24.6937 37.3442 24.3679 37.1901 24.074C37.0069 23.6381 36.8471 23.1928 36.7113 22.74C36.6835 22.6594 36.6673 22.5752 36.6631 22.49C36.6698 22.3691 36.6962 22.2501 36.7414 22.1377C36.8746 21.7081 36.8912 21.2509 36.7896 20.8128C36.775 20.6926 36.7318 20.5777 36.6637 20.4777C36.5956 20.3776 36.5045 20.2953 36.3981 20.2376C36.3012 20.2049 36.1993 20.1896 36.097 20.1925L34.8714 20.1533C34.8147 20.1462 34.7572 20.1589 34.7088 20.1894C34.669 20.2339 34.6484 20.2924 34.6516 20.352C34.5749 21.3558 34.6001 22.3647 34.7269 23.3633C34.8443 24.2667 35.3292 25.0797 35.832 25.8476C36.4102 26.748 37.3738 25.8446 37.434 25.0255Z" fill="url(#paint7_linear_143_1352)"/>
<path d="M35.6873 64.1688H51.65V72.4949H35.6873V64.1688Z" fill="black"/>
<path d="M35.6873 64.1688H51.65V72.4949H35.6873V64.1688Z" fill="url(#paint8_linear_143_1352)"/>
<path d="M41.6164 69.6313H45.4046V71.9198H41.6164V69.6313Z" fill="url(#paint9_linear_143_1352)"/>
<path d="M51.6498 64.1688L35.6179 64.0966L34.308 59.3749H53.6222L51.6498 64.1688Z" fill="black"/>
<path d="M51.6498 64.1688L35.6179 64.0966L34.308 59.3749H53.6222L51.6498 64.1688Z" fill="black"/>
<path d="M50.8882 63.8286L36.3318 63.7714L35.2839 59.9952H52.4661L50.8882 63.8286Z" fill="url(#paint10_linear_143_1352)"/>
<path d="M88.5317 18.7019C88.3204 19.4013 87.9001 20.0192 87.3272 20.4725C86.4542 21.1999 85.4881 21.8075 84.4545 22.2793C83.4668 22.7611 82.3887 23.2098 81.3077 23.0381C80.2267 22.8665 79.1998 21.8336 79.4799 20.7556C79.7268 19.7829 80.8108 19.3282 81.7202 18.9007C82.3232 18.6178 82.9023 18.2865 83.4517 17.9099C83.7042 17.7686 83.9126 17.5601 84.054 17.3077C84.2497 16.865 84.0359 16.3531 83.798 15.9316C83.272 14.9908 82.6184 14.1275 81.8557 13.366C81.4131 14.1097 81.5275 15.0703 81.1662 15.8593C80.6633 16.9584 79.3594 17.4613 78.1549 17.5366C77.5286 17.5757 76.8631 17.5366 76.3241 17.8618C76.0958 18.0182 75.8794 18.1913 75.6766 18.3797C74.9977 18.9017 74.1534 19.1616 73.2984 19.1118C72.4435 19.062 71.6351 18.7059 71.0212 18.1087C70.419 18.9037 69.7806 19.792 69.8167 20.7917C69.862 21.2294 69.979 21.6567 70.163 22.0564C70.4701 22.813 70.8231 23.5502 71.22 24.2637C71.5737 24.812 71.8494 25.4069 72.0391 26.0313C72.1277 26.3433 72.1358 26.6727 72.0626 26.9886C71.9894 27.3046 71.8373 27.5968 71.6205 27.8381C71.5123 27.9498 71.3744 28.0282 71.223 28.0639C70.8948 28.1241 70.5876 27.8953 70.3196 27.6815C69.2743 26.8668 68.3139 25.9487 67.4529 24.9412C66.5898 23.9188 66.0565 22.6591 65.9232 21.3277C65.869 20.4906 66.0316 19.6535 66.0346 18.8163C66.0346 17.8708 65.8449 16.9283 65.9021 15.9858C65.9924 14.4801 66.7392 13.0528 67.745 11.9206C68.6012 10.9993 69.5764 10.1962 70.6448 9.53263C70.7623 9.45735 71.0694 9.23151 71.5151 8.93038C71.1417 9.56576 71.232 10.436 71.497 11.3033C71.6273 11.7524 71.8489 12.1697 72.1479 12.5293C72.4468 12.8889 72.8168 13.183 73.2345 13.3931C73.4071 13.4582 73.5686 13.5496 73.7133 13.6641C73.8217 13.7604 73.9 13.8929 74.0144 13.9893C74.3908 14.2904 75.0443 14.1399 75.3635 14.5133C75.4749 14.6397 75.5321 14.8144 75.6827 14.9017C75.8332 14.989 76.0531 14.9017 76.2397 14.9017C76.545 14.9365 76.8417 15.0252 77.116 15.1637C77.474 15.254 77.8497 15.2457 78.2034 15.1396C78.557 15.0336 78.8753 14.8338 79.1245 14.5614C79.6159 14.0078 79.9561 13.3367 80.1122 12.6131C80.4134 11.4869 80.4977 10.2252 79.9195 9.21344C79.4988 8.46185 78.832 7.87806 78.0315 7.56026C75.5682 6.63882 72.8882 8.0511 71.5181 8.93038C71.6601 8.69388 71.8575 8.49546 72.0933 8.35222C73.1479 7.75936 74.2572 7.26928 75.4056 6.88875C77.366 6.21122 79.1607 6.78637 81.2204 7.03329C81.7979 7.07631 82.3606 7.23721 82.8735 7.50606C83.3776 7.84294 83.8104 8.27576 84.1473 8.77982C85.8513 11.0592 87.2137 13.575 88.1914 16.2477C88.4775 17.0397 88.7335 17.8889 88.5317 18.7019Z" fill="black"/>
<path d="M38.4424 91.4899C39.6771 92.044 41.0893 91.9748 42.4414 91.8784C43.7212 91.7881 45.0702 91.6556 46.1181 90.9118C47.6719 89.8097 48.1116 87.6777 47.9881 85.7926C47.8537 83.5323 47.066 81.3596 45.7206 79.5383C45.5115 79.226 45.2359 78.9638 44.9136 78.7704C44.4917 78.5927 44.0328 78.5204 43.5766 78.5596C42.0329 78.5717 40.4901 78.6329 38.9483 78.7433C38.6096 78.7391 38.2759 78.8254 37.9817 78.9932C37.7133 79.2148 37.5172 79.5116 37.4186 79.8454C36.9926 80.9543 36.788 82.1359 36.8164 83.3234C36.8585 85.0368 37.2741 86.6358 36.7411 88.298C36.3135 89.635 37.1596 90.9118 38.4424 91.4899Z" fill="black"/>
<path d="M38.4424 91.4899C39.6771 92.044 41.0893 91.9748 42.4414 91.8784C43.7212 91.7881 45.0702 91.6556 46.1181 90.9118C47.6719 89.8097 48.1116 87.6777 47.9881 85.7926C47.8537 83.5323 47.066 81.3596 45.7206 79.5383C45.5115 79.226 45.2359 78.9638 44.9136 78.7704C44.4917 78.5927 44.0328 78.5204 43.5766 78.5596C42.0329 78.5717 40.4901 78.6329 38.9483 78.7433C38.6096 78.7391 38.2759 78.8254 37.9817 78.9932C37.7133 79.2148 37.5172 79.5116 37.4186 79.8454C36.9926 80.9543 36.788 82.1359 36.8164 83.3234C36.8585 85.0368 37.2741 86.6358 36.7411 88.298C36.3135 89.635 37.1596 90.9118 38.4424 91.4899Z" fill="url(#paint11_linear_143_1352)"/>
<path d="M43.4293 13.3991C44.2234 13.6359 45.075 13.5911 45.8399 13.2723C46.6048 12.9535 47.2361 12.3802 47.627 11.6495C47.8676 11.1992 47.9722 10.6887 47.9281 10.18C47.8501 9.71614 47.6484 9.28189 47.3441 8.92309C47.0399 8.56429 46.6445 8.29424 46.1996 8.14142C45.2993 7.85222 44.3287 7.8681 43.4383 8.18658C42.7909 8.39436 41.758 8.73764 41.2702 9.23149C40.9149 9.59284 41.0173 10.2071 41.1076 10.6769C41.225 11.2931 41.5008 11.8682 41.9079 12.3455C42.315 12.8228 42.8393 13.1859 43.4293 13.3991Z" fill="url(#paint12_linear_143_1352)"/>
<path d="M39.7254 8.40944C39.6967 8.84868 39.753 9.28932 39.891 9.70729C40.0531 10.0691 40.2914 10.3916 40.5896 10.6528C41.3394 11.3605 42.4175 11.8784 43.3961 11.5562C43.7187 11.4315 44.018 11.2533 44.2814 11.0292C44.3268 10.9827 44.3859 10.9521 44.4501 10.9419C44.5166 10.9446 44.5807 10.9678 44.6337 11.0082C45.1817 11.3248 45.8136 11.4657 46.4442 11.4118C47.0747 11.358 47.6736 11.112 48.1599 10.707C48.4973 10.405 48.7692 10.037 48.9587 9.62576C49.1483 9.21452 49.2515 8.76879 49.262 8.31609C49.2747 7.40418 48.9763 6.51518 48.4159 5.79567C48.1221 5.42107 47.7923 5.07614 47.4312 4.76582C47.0295 4.39333 46.5835 4.07171 46.1032 3.80824C45.5302 3.52045 44.8997 3.36533 44.2585 3.35438C43.6174 3.34344 42.9819 3.47694 42.3994 3.745C41.533 4.15737 40.8171 4.8301 40.3517 5.66919C40.1392 6.0021 39.9577 6.3539 39.8097 6.72012C39.6501 7.21397 39.7314 7.88247 39.7254 8.40944Z" fill="#59595F"/>
<path d="M43.3389 3.75703C43.5122 3.9203 43.7393 4.01455 43.9773 4.02202C44.3398 4.06767 44.705 4.0878 45.0703 4.08224C45.1881 4.08557 45.3055 4.06719 45.4166 4.02804C45.5961 3.92427 45.7392 3.76756 45.8262 3.57936C45.8694 3.51584 45.8992 3.44409 45.9135 3.36858C45.9202 3.2941 45.9067 3.2192 45.8744 3.15176C45.8012 3.01255 45.6958 2.89289 45.5669 2.80278C45.438 2.71267 45.2894 2.65474 45.1336 2.63383C44.8226 2.59674 44.5077 2.60791 44.2001 2.66695C43.9502 2.70008 43.369 2.60372 43.2064 2.80246C43.0438 3.0012 43.2064 3.59743 43.3389 3.75703Z" fill="black"/>
<path d="M43.1732 2.84762C43.487 2.92587 43.8109 2.95632 44.1338 2.93796H44.9107C45.1037 2.94661 45.2969 2.92425 45.4828 2.87171C45.7285 2.78022 45.9392 2.61377 46.0851 2.39593C46.3107 2.08834 46.4519 1.72707 46.4946 1.34802C46.5169 1.21265 46.5002 1.07374 46.4464 0.947519C46.3883 0.852719 46.3115 0.770754 46.2206 0.706619C45.9247 0.432159 45.5793 0.21653 45.2028 0.0712437C44.695 -0.0523526 44.1613 -0.0144569 43.6761 0.179649C43.2127 0.300919 42.7989 0.564158 42.4927 0.932463C42.3843 1.09698 42.3157 1.28437 42.292 1.47991C42.2683 1.67545 42.2904 1.87381 42.3563 2.05941C42.4223 2.24501 42.5303 2.41278 42.6721 2.54955C42.8138 2.68631 42.9854 2.78834 43.1732 2.84762Z" fill="#59595F"/>
<path d="M36.9278 14.6126C36.3255 15.3805 35.6239 16.1182 35.3981 17.0788C35.2981 17.6129 35.2779 18.1589 35.3378 18.6989L35.5667 22.3485C35.6055 22.5848 35.5719 22.8273 35.4703 23.0441C35.2806 23.3452 34.8681 23.4235 34.5067 23.4597C33.9612 23.5565 33.4007 23.5267 32.8686 23.3724C31.7484 22.9538 31.3449 21.6017 31.1311 20.4243C30.83 18.6959 30.5861 16.8921 31.0679 15.2028C31.5075 13.649 32.5073 12.3241 33.4769 11.0382C34.2688 10.0024 35.0939 8.93037 36.2322 8.29801C36.3995 8.19337 36.5895 8.13038 36.7863 8.11432C36.9971 8.1273 37.1999 8.20045 37.3704 8.32511C40.0234 10.0024 38.3732 12.7667 36.9278 14.6126Z" fill="black"/>
<path d="M54.4444 15.7268L55.3237 21.8306C55.4953 23.0351 55.6669 24.2065 55.7994 25.3989C55.9159 26.487 56.0022 27.5771 56.0584 28.6691C56.0825 29.1389 56.0735 29.6749 55.7211 29.9851C55.3116 30.3434 54.6311 30.1778 54.2577 29.7833C53.9177 29.3546 53.6881 28.849 53.5892 28.3108C52.8953 25.8222 51.9927 23.3966 50.8911 21.0597C50.3611 19.9335 49.7799 18.8133 49.521 17.5968C49.1024 15.6515 49.7468 13.7152 51.5987 12.7787C53.815 11.6917 54.2035 14.0043 54.4444 15.7268Z" fill="black"/>
<path d="M56.3114 28.8709C56.113 28.5969 55.8308 28.395 55.5074 28.2957C55.1827 28.2495 54.8528 28.3328 54.589 28.5276C54.2639 28.7456 53.9984 29.0412 53.8164 29.3877C53.6345 29.7342 53.5419 30.1207 53.5471 30.512C53.5471 30.9336 53.6856 31.3431 53.7338 31.7617C53.797 32.2947 53.7338 32.8427 53.8843 33.3607C54.0112 33.7708 54.2602 34.1325 54.5982 34.3972C54.9361 34.662 55.3468 34.8172 55.7754 34.8422C55.95 34.8565 56.1253 34.8254 56.2843 34.7519C56.6788 34.5471 56.7721 34.0322 56.7812 33.5865C56.7958 32.9494 56.7362 32.3127 56.6035 31.6894C56.9289 31.8824 57.2856 32.0169 57.6574 32.0869C57.6936 30.8523 57.0973 29.7893 56.3114 28.8709Z" fill="url(#paint13_linear_143_1352)"/>
<path d="M34.8381 25.953C35.1071 26.1803 35.4311 26.333 35.7776 26.3956C35.9513 26.4242 36.1296 26.3968 36.2867 26.3172C36.4437 26.2376 36.5713 26.11 36.6509 25.953C36.701 25.7986 36.7214 25.6361 36.7111 25.4742V24.1402C36.7549 23.6624 36.6497 23.1827 36.41 22.7671C36.2663 22.5887 36.0819 22.4475 35.8723 22.3553C35.6627 22.2631 35.434 22.2225 35.2055 22.2371C34.5099 22.2732 33.0976 22.9417 33.0494 23.7427C33.0012 24.5437 34.272 25.5434 34.8381 25.953Z" fill="url(#paint14_linear_143_1352)"/>
<path d="M74.7162 16.5458C75.475 16.5277 76.1827 16.1784 76.8572 15.8321C77.1494 15.7014 77.4179 15.5233 77.6522 15.3052C77.8297 15.1017 77.9576 14.8598 78.0261 14.5986C78.0945 14.3374 78.1015 14.0639 78.0466 13.7995C77.9298 13.2659 77.661 12.7775 77.2728 12.3933C76.7138 11.787 75.9644 11.3901 75.1487 11.2685C74.3331 11.1469 73.5005 11.3079 72.789 11.7248C71.5845 12.4113 71.7893 14.456 72.509 15.4256C72.7633 15.7722 73.0956 16.0542 73.4791 16.2488C73.8625 16.4434 74.2862 16.5451 74.7162 16.5458Z" fill="url(#paint15_linear_143_1352)"/>
<path d="M80.1151 12.6221C79.9589 13.3457 79.6188 14.0167 79.1274 14.5704C78.8782 14.8428 78.5599 15.0426 78.2063 15.1486C77.8526 15.2546 77.4769 15.2629 77.1189 15.1727C76.8446 15.0342 76.5479 14.9455 76.2426 14.9107C76.056 14.9107 75.8512 14.998 75.6856 14.9107C75.5199 14.8233 75.4778 14.6487 75.3664 14.5222C75.0472 14.1488 74.3937 14.3144 74.0173 13.9983C73.9059 13.9019 73.8276 13.7694 73.7162 13.673C73.5715 13.5586 73.41 13.4671 73.2374 13.402C72.8196 13.1919 72.4497 12.8979 72.1508 12.5383C71.8518 12.1787 71.6302 11.7613 71.4999 11.3122C71.2349 10.4329 71.1446 9.57473 71.518 8.93936C72.8881 8.06007 75.5681 6.64779 78.0313 7.56923C78.8319 7.88704 79.4986 8.47082 79.9194 9.22241C80.5006 10.2342 80.4162 11.4959 80.1151 12.6221Z" fill="#59595F"/>
<path d="M73.2228 27.573C73.7829 28.1753 74.3821 28.8528 74.3279 29.6628C74.288 29.8843 74.2779 30.1102 74.2978 30.3344C74.346 30.5542 74.5748 30.7589 74.7826 30.6716C74.9904 30.5843 75.0506 30.244 75.2825 30.2079C75.4661 30.1778 75.6107 30.3916 75.5836 30.5753C75.5427 30.7569 75.4446 30.9205 75.3035 31.042C75.0807 31.2769 74.8488 31.5027 74.6049 31.7165C74.4801 31.8465 74.3217 31.9393 74.1472 31.9845C73.9618 31.9951 73.7771 31.9534 73.6142 31.8641C72.9126 31.563 72.1086 31.1564 71.9731 30.4066C71.9454 30.1798 71.9313 29.9516 71.9309 29.7231C71.8647 28.7866 70.1784 27.1244 70.6692 26.2963C71.3678 25.1399 72.8193 27.1515 73.2228 27.573Z" fill="url(#paint16_linear_143_1352)"/>
<path d="M71.8463 28.0127C71.8257 28.0925 71.8248 28.1762 71.8437 28.2564C71.8626 28.3367 71.9007 28.4112 71.9547 28.4734C72.0659 28.5941 72.1961 28.6958 72.3401 28.7745L74.4992 30.1447C74.8184 30.3494 75.0412 29.964 74.8696 29.69C74.7461 29.4942 74.3848 29.428 74.1921 29.3226C73.4061 28.898 72.6382 28.4373 71.8463 28.0127Z" fill="#59595F"/>
<path d="M76.6074 20.8609C76.4087 20.8609 76.1708 20.879 76.0684 21.0506C76.034 21.1224 76.0237 21.2033 76.0388 21.2814C76.054 21.3595 76.094 21.4306 76.1527 21.4843C76.2721 21.5898 76.4217 21.6552 76.5803 21.671C76.6586 21.671 76.7489 21.695 76.7911 21.7613C76.807 21.7951 76.8142 21.8324 76.8122 21.8697C76.7891 22.0092 76.722 22.1376 76.6207 22.2362C76.5193 22.3348 76.3891 22.3984 76.2491 22.4177C75.975 22.481 75.686 22.4479 75.4089 22.49C75.1179 22.5498 74.8369 22.6512 74.5748 22.7911C74.3088 22.8835 74.0873 23.0728 73.9545 23.3211C73.9151 23.4785 73.9289 23.6445 73.9937 23.7932C74.0585 23.9419 74.1707 24.0649 74.3128 24.1432C74.6024 24.2913 74.9242 24.3648 75.2493 24.357C75.9539 24.3823 76.6593 24.345 77.3572 24.2456C77.6622 24.2128 77.9612 24.1378 78.2455 24.0227C78.4564 23.9282 78.658 23.8143 78.8478 23.6825L79.968 22.9537C81.0099 22.2762 80.3384 21.3939 79.4079 20.9964C78.5948 20.6652 77.4506 20.8669 76.6074 20.8609Z" fill="url(#paint17_linear_143_1352)"/>
<path d="M37.3405 23.1405H47.4222V36.4623H37.3405V23.1405Z" fill="white"/>
<path d="M82.606 72.8302L72.5491 73.537L71.6152 60.248L81.672 59.5412L82.606 72.8302Z" fill="white"/>
<path d="M35.332 92.8992C34.6304 92.5981 33.9107 92.2518 33.4289 91.6586C33.1246 91.2378 32.8869 90.7726 32.7242 90.2794L30.6164 84.814C30.3564 84.1831 30.143 83.5339 29.978 82.8718C29.8479 82.1962 29.7704 81.5116 29.7461 80.8241C29.6708 80.2079 29.7035 79.5832 29.8425 78.9782C30.0563 78.2374 30.5712 77.6292 31.0831 77.057C31.6854 76.4006 32.2876 75.7622 32.8899 75.1298C33.3429 74.6152 33.8671 74.1681 34.4467 73.8019C34.9774 73.4967 35.5752 73.3271 36.1872 73.308C36.3265 73.298 36.4665 73.3143 36.5997 73.3562C36.7251 73.4107 36.841 73.4849 36.943 73.576C37.4367 73.9819 37.9091 74.4131 38.3583 74.8678C38.6082 75.1208 38.8702 75.455 38.7739 75.7983C38.6504 76.253 38.0572 76.3253 37.6145 76.4789C36.4793 76.8763 35.9945 78.1893 35.1453 79.0445C34.8442 79.3456 34.4768 79.6136 34.3021 80.008C34.1275 80.4025 34.2811 80.9807 34.7056 81.0499C34.7647 80.7062 34.9018 80.3806 35.1064 80.0981C35.3111 79.8157 35.5778 79.584 35.8861 79.4209C36.2652 79.2407 36.6728 79.1276 37.0906 79.0866C37.6095 79.0174 38.1331 78.9902 38.6564 79.0053C38.7491 78.9997 38.8413 79.0217 38.9214 79.0685C39.006 79.1414 39.0624 79.2415 39.081 79.3516C39.5474 80.8783 39.8453 82.4516 39.9693 84.0431C40.0205 85.1721 40.0084 86.3031 39.9332 87.4308L39.7495 91.0594C39.7104 91.9055 39.9603 93.6009 38.8461 93.7695C37.6898 93.9652 36.3618 93.3509 35.332 92.8992Z" fill="black"/>
<path d="M45.3052 86.2323C45.3008 85.5757 45.2464 84.9204 45.1426 84.272C44.7963 82.4171 43.6369 80.803 43.1642 78.9782C43.1393 78.9225 43.1292 78.8614 43.135 78.8007C43.1408 78.74 43.1623 78.6818 43.1973 78.6319C43.2705 78.5767 43.3622 78.5518 43.4533 78.5626C44.6357 78.5626 45.8191 78.5948 47.0035 78.659C47.1154 78.6596 47.2263 78.679 47.3318 78.7162C47.7112 78.8668 47.7774 79.3576 47.8467 79.7611C48.0461 80.6384 48.3846 81.4781 48.8494 82.2484C49.2981 81.589 49.7528 80.8482 49.6625 80.0592C49.5762 79.6243 49.3964 79.2133 49.1355 78.8547C48.4631 77.7984 47.6907 76.8091 46.8289 75.9007C46.7084 75.7984 46.624 75.6601 46.588 75.5062C46.5923 75.4005 46.6196 75.297 46.6679 75.2028C46.7163 75.1087 46.7846 75.0262 46.868 74.9612C47.6143 74.1962 48.4035 73.4744 49.2319 72.7991C49.2709 72.7585 49.3176 72.7261 49.3693 72.7039C49.421 72.6817 49.4767 72.67 49.533 72.6696C49.6359 72.6986 49.7235 72.7667 49.7769 72.8593C50.9814 74.4312 52.1327 76.0452 53.2308 77.7014C53.9445 78.7764 54.6521 79.9358 54.7063 81.2216C54.6989 82.0192 54.5584 82.8099 54.2908 83.5613C53.6564 85.6813 52.9437 87.7741 52.1528 89.8398C51.8853 90.6745 51.4691 91.4539 50.9242 92.1404C49.8703 93.3238 48.1237 93.7243 46.597 93.5135C44.9197 93.2847 45.4558 90.8998 45.4166 89.6441L45.3052 86.2323Z" fill="black"/>
<path d="M40.9751 71.703C41.117 71.7355 41.2472 71.8063 41.3515 71.9078C41.5894 72.1758 41.4238 72.6064 41.1949 72.8834C40.8795 73.2678 40.4711 73.5652 40.0085 73.7476C39.6773 73.8771 39.2858 73.9765 39.1292 74.2957C39.4472 74.3798 39.778 74.4043 40.1049 74.368C40.1621 74.5306 40.0115 74.6932 39.861 74.7805C39.5644 74.9337 39.2339 75.0096 38.9002 75.0012C38.5665 74.9928 38.2403 74.9003 37.9518 74.7323C37.5212 74.5005 36.8678 74.0006 36.7895 73.4796C36.7112 72.9587 37.3014 72.495 37.6928 72.23C38.1678 71.9067 38.708 71.6918 39.2753 71.6008C39.8425 71.5097 40.4229 71.5446 40.9751 71.703Z" fill="url(#paint18_linear_143_1352)"/>
<path d="M47.0307 70.7785C46.7015 70.3421 46.2715 69.9918 45.7776 69.7574C45.2837 69.523 44.7404 69.4116 44.1941 69.4325C43.7545 69.4536 43.2245 69.6674 43.2034 70.107C43.2161 70.3207 43.2974 70.5245 43.4353 70.6882C43.7697 71.1765 44.1433 71.6368 44.5525 72.0643C44.7994 72.3233 45.0855 72.6666 44.9409 73.0039C44.7964 73.3411 44.2815 73.4164 44.1791 73.7687C44.1671 73.8039 44.1671 73.842 44.1791 73.8771C44.1919 73.9014 44.2099 73.9226 44.2317 73.9392C44.2536 73.9558 44.2788 73.9675 44.3056 73.9735C44.9409 74.1963 45.6636 73.8741 46.305 74.0759C46.5068 74.1391 46.6905 74.2535 46.9073 74.3198C47.6089 74.5456 48.7893 73.9584 48.4701 73.1002C48.3226 72.7088 47.9612 72.3625 47.7564 71.9921C47.5413 71.5722 47.2989 71.1668 47.0307 70.7785Z" fill="url(#paint19_linear_143_1352)"/>
<path d="M66.2484 82.7121C65.5498 80.9054 65.6462 78.8698 65.9082 76.9426C65.9345 76.5656 66.0369 76.1978 66.2093 75.8615C66.513 75.425 66.949 75.0977 67.4529 74.928C69.4223 74.1301 71.6326 74.2686 73.7465 74.4824C73.8725 74.483 73.9958 74.5195 74.1018 74.5878C74.1977 74.6828 74.2628 74.8045 74.2885 74.9371C74.5053 75.6688 74.6529 76.6143 74.0295 77.0449C73.3189 77.5478 72.1595 76.9245 71.5302 77.5237C71.3966 77.6743 71.2998 77.8539 71.2475 78.0483C71.1953 78.2427 71.1889 78.4466 71.2291 78.6439C71.2833 79.0384 71.4248 79.4208 71.4609 79.8183C71.479 80.2454 71.3972 80.6708 71.2221 81.0608C71.047 81.4507 70.7834 81.7945 70.4522 82.0647C69.7815 82.5986 68.9872 82.9548 68.1425 83.1006C67.5891 83.2523 67.003 83.2355 66.4592 83.0524C65.9323 82.8326 65.5167 82.2574 65.6522 81.7034" fill="black"/>
<path d="M77.0019 74.8226C77.3013 74.9394 77.5613 75.1389 77.7517 75.3978C77.8458 75.5296 77.8965 75.6875 77.8965 75.8495C77.8965 76.0115 77.8458 76.1694 77.7517 76.3012C77.6169 76.4483 77.4421 76.5529 77.2488 76.6023C76.6863 76.7824 76.0933 76.8469 75.5053 76.792C75.5504 76.9877 75.5324 77.2798 75.3306 77.2889C75.2718 77.2847 75.2149 77.2661 75.165 77.2347C74.5627 76.9185 72.0965 75.994 73.295 74.9762C74.2044 74.1752 76.0021 74.3679 77.0019 74.8226Z" fill="url(#paint20_linear_143_1352)"/>
<path d="M82.2867 78.1802C82.122 77.3996 81.8547 76.6442 81.4917 75.9338C80.8684 74.8317 79.8205 74.0458 78.9863 73.0912C78.9052 73.0193 78.8416 72.9299 78.8004 72.8297C78.7592 72.7295 78.7414 72.6212 78.7485 72.513C78.7859 72.3993 78.8499 72.2961 78.9352 72.2119L79.5976 71.4501C79.7218 71.2687 79.9047 71.1357 80.1156 71.0736C80.2599 71.0593 80.4055 71.08 80.5401 71.1339C83.0877 71.9439 85.1534 73.9614 86.3549 76.3494C87.5564 78.7373 87.9418 81.4685 87.8274 84.1485C87.8291 84.8037 87.7075 85.4534 87.469 86.0637C87.3466 86.3668 87.1548 86.6369 86.909 86.8523C86.6632 87.0678 86.3703 87.2226 86.0538 87.3043C85.9597 87.3291 85.8617 87.3347 85.7654 87.3208C85.6692 87.3068 85.5768 87.2735 85.4937 87.223C85.3744 87.12 85.2832 86.9884 85.2287 86.8406C83.9832 84.0506 82.9984 81.1515 82.2867 78.1802Z" fill="black"/>
<path d="M84.5871 88.7798C85.0592 88.1917 85.3839 87.4992 85.5343 86.7601C85.6846 86.0211 85.6561 85.2568 85.4513 84.5309C85.1587 83.6169 84.6553 82.7845 83.9818 82.1009C82.3618 80.3814 80.0672 79.3757 77.7335 79.0444C75.3997 78.7132 73.0028 79.0264 70.7232 79.6467C69.4465 79.993 68.1727 80.4537 67.1429 81.2848C66.6144 81.6692 66.2279 82.2176 66.0438 82.8446C65.8842 83.5282 66.098 84.2419 66.375 84.8863C67.2603 86.964 68.8713 88.8009 70.9912 89.5808C72.0454 89.9237 73.1442 90.1103 74.2524 90.1349C76.2369 90.2493 78.42 89.8338 80.3563 90.2252C81.9974 90.5565 83.4729 90.1409 84.5871 88.7798Z" fill="black"/>
<path d="M79.1969 70.1703C78.3358 69.8586 77.4103 69.7675 76.5049 69.9053C76.2513 69.9243 76.0058 70.0027 75.7882 70.1341C75.6822 70.2028 75.5977 70.3 75.5444 70.4145C75.4912 70.529 75.4713 70.6562 75.4871 70.7815C75.5238 70.8964 75.5843 71.0021 75.6647 71.0919C75.7452 71.1817 75.8437 71.2535 75.9538 71.3025C76.1721 71.4 76.375 71.5289 76.5561 71.6849C76.6467 71.7649 76.7061 71.8744 76.7237 71.994C76.7414 72.1136 76.7161 72.2356 76.6524 72.3384C76.535 72.4859 76.2911 72.5552 76.276 72.7479C76.261 72.9406 76.541 73.049 76.7518 73.049C77.4745 73.049 78.1852 72.8563 78.9079 72.8683C79.3746 72.8683 79.8414 72.9737 80.3111 72.9496C80.4525 72.9488 80.5918 72.9148 80.7176 72.8503C81.2386 72.5492 81.2175 71.7662 80.8953 71.3627C80.444 70.8227 79.8581 70.4114 79.1969 70.1703Z" fill="url(#paint21_linear_143_1352)"/>
<path d="M39.4754 87.479C39.8608 86.706 40.5198 86.1039 41.3244 85.7896C41.9693 85.5939 42.6578 85.5939 43.3028 85.7896C43.9414 85.9903 44.5555 86.262 45.1336 86.5997C45.3456 86.7014 45.5398 86.8366 45.7087 87.0002C45.8413 87.1581 45.9517 87.3334 46.037 87.5211L46.4465 88.3221C46.7152 88.7941 46.9178 89.3007 47.0488 89.8277C47.1245 90.2816 47.1357 90.7439 47.0819 91.2009C47.0383 92.0047 46.857 92.7951 46.5459 93.5376C46.2269 94.2835 45.651 94.8904 44.9228 95.248C44.2032 95.5214 43.4242 95.6003 42.6644 95.4768C42.1565 95.4369 41.6572 95.3223 41.1828 95.1366C40.2284 94.6936 39.4887 93.89 39.1261 92.9022C38.7953 92.0254 38.6554 91.0881 38.7156 90.1529C38.7758 89.2177 39.0349 88.3061 39.4754 87.479Z" fill="url(#paint22_linear_143_1352)"/>
<path d="M39.2074 90.2252C39.1442 90.349 39.1143 90.4871 39.1206 90.626C39.127 90.7648 39.1693 90.8997 39.2436 91.0172C39.3238 91.1136 39.3878 91.2225 39.4333 91.3394C39.4634 91.4598 39.3851 91.6194 39.2586 91.6074C39.1321 91.5953 39.102 91.4839 39.0177 91.4267C38.9477 91.3901 38.8668 91.38 38.7899 91.3983C38.713 91.4165 38.6453 91.4619 38.5991 91.5261C38.5095 91.6577 38.4603 91.8126 38.4576 91.9718C38.4138 92.7062 38.56 93.4396 38.8823 94.1011C39.2046 94.7626 39.692 95.3298 40.2975 95.7479C40.9105 96.1572 41.6005 96.4372 42.3253 96.5708C43.0502 96.7044 43.7947 96.6887 44.5133 96.5248C45.1827 96.414 45.8042 96.1069 46.2989 95.6425C47.127 94.7873 47.1842 93.4683 47.1842 92.2789C47.1842 91.8664 47.1692 91.4147 46.8831 91.1105C46.7415 90.9773 46.5698 90.8803 46.3826 90.8279C46.1954 90.7755 45.9983 90.7691 45.8081 90.8094C45.4273 90.8864 45.0536 90.9952 44.6909 91.1346C43.8606 91.3569 43.0026 91.4584 42.1434 91.4358C41.7052 91.4624 41.2655 91.4217 40.8395 91.3153C40.177 91.1015 39.8398 90.4932 39.2074 90.2252Z" fill="#59595F"/>
<path d="M77.2156 82.9741C76.4072 82.7932 75.5611 82.8969 74.8204 83.2678C74.0797 83.6387 73.4898 84.2541 73.1504 85.0097C72.9435 85.4765 72.8766 85.9932 72.9577 86.4973C73.0674 86.9548 73.2989 87.3741 73.6276 87.7107C73.9563 88.0473 74.3699 88.2888 74.8246 88.4094C75.7421 88.6368 76.7091 88.5532 77.5739 88.1716C78.2063 87.9186 79.212 87.5061 79.6637 86.967C79.995 86.5786 79.8474 85.9763 79.724 85.5126C79.5613 84.9086 79.2447 84.3571 78.805 83.9121C78.3653 83.4671 77.8176 83.1439 77.2156 82.9741Z" fill="url(#paint23_linear_143_1352)"/>
<path d="M72.9395 90.5504C74.2909 91.4353 75.9153 91.8051 77.5166 91.5923C78.3099 91.4758 79.0641 91.1719 79.7166 90.7059C80.369 90.2398 80.9011 89.625 81.2686 88.9123C81.5524 88.2559 81.7546 87.5672 81.8709 86.8617C82.0485 86.1925 82.1076 85.4975 82.0455 84.808C82.0101 84.4643 81.8868 84.1355 81.6874 83.8534C81.4881 83.5712 81.2194 83.3451 80.9073 83.197C80.2629 82.947 79.4016 83.2963 79.2661 83.9739C79.1306 84.6514 79.6636 85.4464 79.1939 85.9312C78.8566 86.2805 78.2905 86.142 77.8117 86.0486C76.9883 85.9012 76.1407 85.9734 75.3541 86.2578C74.5675 86.5422 73.8697 87.0288 73.331 87.6687C73.1393 87.3356 72.9858 86.9821 72.8732 86.6147C72.8233 86.1916 72.877 85.7627 73.0298 85.3651C71.8976 85.1151 70.389 85.6963 70.398 87.0182C70.401 88.4365 71.8313 89.8488 72.9395 90.5504Z" fill="#59595F"/>
<path d="M36.7291 64.9126H50.3791V68.9808H36.7291V64.9126Z" fill="url(#paint24_linear_143_1352)"/>
<defs>
<linearGradient id="paint0_linear_143_1352" x1="133.695" y1="40.8648" x2="-26.0374" y2="64.2652" gradientUnits="userSpaceOnUse">
<stop stop-opacity="0"/>
<stop offset="0.99"/>
</linearGradient>
<linearGradient id="paint1_linear_143_1352" x1="91.9377" y1="53.9155" x2="-21.7583" y2="38.3985" gradientUnits="userSpaceOnUse">
<stop offset="0.02" stop-color="white" stop-opacity="0"/>
<stop offset="0.32" stop-color="white" stop-opacity="0.39"/>
<stop offset="0.68" stop-color="white" stop-opacity="0.68"/>
<stop offset="1" stop-color="white"/>
</linearGradient>
<linearGradient id="paint2_linear_143_1352" x1="77.8059" y1="16.1484" x2="76.7309" y2="35.7637" gradientUnits="userSpaceOnUse">
<stop stop-opacity="0"/>
<stop offset="0.99"/>
</linearGradient>
<linearGradient id="paint3_linear_143_1352" x1="73.4997" y1="73.6874" x2="72.8222" y2="83.4078" gradientUnits="userSpaceOnUse">
<stop stop-opacity="0"/>
<stop offset="0.99"/>
</linearGradient>
<linearGradient id="paint4_linear_143_1352" x1="73.9304" y1="72.3263" x2="94.958" y2="82.2755" gradientUnits="userSpaceOnUse">
<stop stop-opacity="0"/>
<stop offset="0.99"/>
</linearGradient>
<linearGradient id="paint5_linear_143_1352" x1="43.0139" y1="68.773" x2="43.059" y2="95.4798" gradientUnits="userSpaceOnUse">
<stop stop-opacity="0"/>
<stop offset="0.99"/>
</linearGradient>
<linearGradient id="paint6_linear_143_1352" x1="48.5365" y1="28.3529" x2="59.8407" y2="24.1161" gradientUnits="userSpaceOnUse">
<stop stop-opacity="0"/>
<stop offset="0.99"/>
</linearGradient>
<linearGradient id="paint7_linear_143_1352" x1="33.2725" y1="19.9184" x2="42.767" y2="30.2922" gradientUnits="userSpaceOnUse">
<stop stop-opacity="0"/>
<stop offset="0.99"/>
</linearGradient>
<linearGradient id="paint8_linear_143_1352" x1="43.3208" y1="75.1569" x2="44.0857" y2="60.1518" gradientUnits="userSpaceOnUse">
<stop stop-opacity="0"/>
<stop offset="0.99"/>
</linearGradient>
<linearGradient id="paint9_linear_143_1352" x1="40.5384" y1="70.7514" x2="46.6663" y2="70.8026" gradientUnits="userSpaceOnUse">
<stop offset="0.02" stop-color="white" stop-opacity="0"/>
<stop offset="0.32" stop-color="white" stop-opacity="0.39"/>
<stop offset="0.68" stop-color="white" stop-opacity="0.68"/>
<stop offset="1" stop-color="white"/>
</linearGradient>
<linearGradient id="paint10_linear_143_1352" x1="35.2839" y1="61.9104" x2="52.4661" y2="61.9104" gradientUnits="userSpaceOnUse">
<stop offset="0.02" stop-color="white" stop-opacity="0"/>
<stop offset="0.32" stop-color="white" stop-opacity="0.39"/>
<stop offset="0.68" stop-color="white" stop-opacity="0.68"/>
<stop offset="1" stop-color="white"/>
</linearGradient>
<linearGradient id="paint11_linear_143_1352" x1="41.0351" y1="79.0836" x2="41.8843" y2="84.5671" gradientUnits="userSpaceOnUse">
<stop offset="0.02" stop-color="white" stop-opacity="0"/>
<stop offset="0.32" stop-color="white" stop-opacity="0.39"/>
<stop offset="0.68" stop-color="white" stop-opacity="0.68"/>
<stop offset="1" stop-color="white"/>
</linearGradient>
<linearGradient id="paint12_linear_143_1352" x1="41.0173" y1="10.7462" x2="47.9371" y2="10.7462" gradientUnits="userSpaceOnUse">
<stop stop-color="#E5C5D5"/>
<stop offset="0.42" stop-color="#EAD4D1"/>
<stop offset="1" stop-color="#F0E9CB"/>
</linearGradient>
<linearGradient id="paint13_linear_143_1352" x1="53.5501" y1="31.5599" x2="57.6605" y2="31.5599" gradientUnits="userSpaceOnUse">
<stop stop-color="#E5C5D5"/>
<stop offset="0.42" stop-color="#EAD4D1"/>
<stop offset="1" stop-color="#F0E9CB"/>
</linearGradient>
<linearGradient id="paint14_linear_143_1352" x1="33.0223" y1="24.3209" x2="36.7111" y2="24.3209" gradientUnits="userSpaceOnUse">
<stop stop-color="#E5C5D5"/>
<stop offset="0.42" stop-color="#EAD4D1"/>
<stop offset="1" stop-color="#F0E9CB"/>
</linearGradient>
<linearGradient id="paint15_linear_143_1352" x1="71.9308" y1="13.8839" x2="78.0798" y2="13.8839" gradientUnits="userSpaceOnUse">
<stop stop-color="#E5C5D5"/>
<stop offset="0.42" stop-color="#EAD4D1"/>
<stop offset="1" stop-color="#F0E9CB"/>
</linearGradient>
<linearGradient id="paint16_linear_143_1352" x1="70.5849" y1="28.9672" x2="75.5926" y2="28.9672" gradientUnits="userSpaceOnUse">
<stop stop-color="#E5C5D5"/>
<stop offset="0.42" stop-color="#EAD4D1"/>
<stop offset="1" stop-color="#F0E9CB"/>
</linearGradient>
<linearGradient id="paint17_linear_143_1352" x1="73.9244" y1="22.5894" x2="80.4769" y2="22.5894" gradientUnits="userSpaceOnUse">
<stop stop-color="#E5C5D5"/>
<stop offset="0.42" stop-color="#EAD4D1"/>
<stop offset="1" stop-color="#F0E9CB"/>
</linearGradient>
<linearGradient id="paint18_linear_143_1352" x1="36.7804" y1="73.2749" x2="41.469" y2="73.2749" gradientUnits="userSpaceOnUse">
<stop stop-color="#E5C5D5"/>
<stop offset="0.42" stop-color="#EAD4D1"/>
<stop offset="1" stop-color="#F0E9CB"/>
</linearGradient>
<linearGradient id="paint19_linear_143_1352" x1="43.2034" y1="71.8987" x2="48.5063" y2="71.8987" gradientUnits="userSpaceOnUse">
<stop stop-color="#E5C5D5"/>
<stop offset="0.42" stop-color="#EAD4D1"/>
<stop offset="1" stop-color="#F0E9CB"/>
</linearGradient>
<linearGradient id="paint20_linear_143_1352" x1="72.9638" y1="75.8435" x2="77.8902" y2="75.8435" gradientUnits="userSpaceOnUse">
<stop stop-color="#E5C5D5"/>
<stop offset="0.42" stop-color="#EAD4D1"/>
<stop offset="1" stop-color="#F0E9CB"/>
</linearGradient>
<linearGradient id="paint21_linear_143_1352" x1="75.475" y1="71.447" x2="81.1302" y2="71.447" gradientUnits="userSpaceOnUse">
<stop stop-color="#E5C5D5"/>
<stop offset="0.42" stop-color="#EAD4D1"/>
<stop offset="1" stop-color="#F0E9CB"/>
</linearGradient>
<linearGradient id="paint22_linear_143_1352" x1="38.6985" y1="90.5926" x2="47.115" y2="90.5926" gradientUnits="userSpaceOnUse">
<stop stop-color="#E5C5D5"/>
<stop offset="0.42" stop-color="#EAD4D1"/>
<stop offset="1" stop-color="#F0E9CB"/>
</linearGradient>
<linearGradient id="paint23_linear_143_1352" x1="72.9215" y1="85.7083" x2="79.8655" y2="85.7083" gradientUnits="userSpaceOnUse">
<stop stop-color="#E5C5D5"/>
<stop offset="0.42" stop-color="#EAD4D1"/>
<stop offset="1" stop-color="#F0E9CB"/>
</linearGradient>
<linearGradient id="paint24_linear_143_1352" x1="36.7291" y1="66.9482" x2="50.3791" y2="66.9482" gradientUnits="userSpaceOnUse">
<stop stop-opacity="0"/>
<stop offset="0.99"/>
</linearGradient>
</defs>
</svg>
